<svg aria-hidden="true" style="width:0;height:0;position:absolute;overflow:hidden" xmlns="http://www.w3.org/2000/svg"><defs><symbol id="icon-conservansy" viewBox="0 0 44 32"><path d="M29.618 1.578c-.277.124-.607.359-.909.641l-.253.239-.316-.081c-.172-.043-.325-.077-.335-.067-.01.014.005.077.033.148.024.072.048.201.048.292s.024.177.048.191c.086.053.053.11-.129.215-.177.1-.187.105-.397.029a1.818 1.818 0 0 0-.249-.077c-.062 0-.043.134.024.158.086.029.029.067-.167.096-.11.014-.206.005-.263-.038-.081-.062-.081-.072.048-.201.072-.077.129-.163.129-.191 0-.091-.143-.206-.258-.206-.139 0-.249-.12-.392-.43-.062-.129-.124-.239-.143-.239-.072 0 .029.541.153.813.148.33.407.584.808.794.177.096.253.163.239.21s.067.129.225.234l.244.158.148-.167a.502.502 0 0 1 .34-.201c.105-.019.225-.043.273-.053.057-.019.086.024.11.172.019.105.048.191.072.191.019 0 .091-.124.158-.282.086-.196.167-.311.292-.383.239-.153.56-.521.746-.871.143-.273.167-.359.182-.751l.019-.44-.158.005c-.091 0-.253.043-.368.091zm5.199 1.163c.033.043.215.182.407.301.794.526 1.349.976 1.196.976-.019 0-.215-.139-.445-.301-.435-.32-.77-.536-.77-.493 0 .01.129.115.287.225s.277.21.268.225c-.033.029-.45-.206-.751-.426l-.258-.191.239.22c.134.12.426.316.66.435.23.12.416.234.416.258 0 .077-.096.057-.282-.053-.1-.057-.134-.067-.077-.019.158.129.464.277.718.34.344.086.574.182.588.234.019.072-.129.086-.22.019-.043-.033.115.139.349.383.249.258.598.555.823.703.426.277.502.364.593.674.033.115.077.206.096.206.024 0 .177-.053.349-.115.177-.062.368-.1.445-.086.124.019.129.014.057-.062-.057-.057-.072-.134-.057-.268.033-.225-.029-.311-.244-.349-.172-.033-.287-.144-.464-.435-.244-.416-1.014-1.105-1.162-1.048-.048.019-.077.005-.077-.043 0-.043-.067-.115-.144-.163-.081-.048-.134-.11-.124-.143.029-.077.005-.077-.12-.014-.072.043-.124.024-.273-.091a3.748 3.748 0 0 0-.536-.311 3.011 3.011 0 0 1-.607-.387c-.139-.124-.254-.201-.254-.177 0 .1.56.651.866.847.182.12.33.234.33.263 0 .081-.077.053-.34-.129-.541-.368-.756-.545-.923-.751-.096-.115-.234-.225-.306-.239l-.225-.062c-.081-.024-.086-.019-.029.048z"/><path d="M31.794 2.946c-.78.129-1.612.497-1.947.861-.277.301-.263.397.11.612.268.158.34.263.277.421-.11.282-.507.502-.985.55-.383.033-.584-.029-1.124-.344-.718-.421-1.024-.555-1.33-.584-.244-.024-.311-.01-.584.129-.172.086-.359.196-.416.253-.196.177-.124.368.187.502.072.029.187.144.253.249.292.459.952.689 1.971.674.579-.01.856-.048 1.234-.172.651-.22 1.363-.732 1.363-.981 0-.043-.062-.163-.143-.268-.244-.325-.163-.655.244-.957.287-.21.588-.277 1.215-.273 1.244.01 2.239.44 2.583 1.115.196.397.196.402-.067.804-.493.751-.694 1.358-.641 1.923.019.249.062.306.196.268.144-.048.617-.574.751-.842.201-.392.354-1.009.378-1.516.029-.579-.077-.938-.411-1.411-.392-.545-1.119-.933-1.966-1.043a3.202 3.202 0 0 0-1.148.029z"/><path d="M32.584 4.171a.619.619 0 0 0-.077.167c-.043.134-.139.139-.316.014-.096-.067-.177-.091-.258-.067-.163.038-.158.115.019.282.21.201.187.431-.048.459-.249.038-.148.402.23.851.201.239.287.153.129-.124-.067-.12-.11-.23-.1-.239.01-.014.12.033.244.105.12.072.287.134.373.139.134.005.153.024.182.182.014.096.053.21.091.249.062.081.263.105.301.038.048-.072-.029-.297-.096-.297-.038 0-.062-.033-.053-.077.01-.053.077-.086.206-.1.1-.01.201-.029.21-.043.014-.01.019-.115.01-.225-.01-.206-.01-.206.144-.196.086.005.21-.01.273-.033l.124-.048-.105-.1c-.077-.077-.153-.1-.292-.096-.177.014-.191 0-.311-.21-.153-.273-.153-.277-.005-.239.163.043.148-.033-.033-.191-.287-.239-.722-.344-.842-.201zm3.463.866a2.698 2.698 0 0 0-.029.431c0 .292-.014.34-.124.44-.072.067-.167.12-.215.12-.053 0-.091.024-.091.048 0 .033.062.043.158.024.139-.029.172-.014.239.091.11.167.1.225-.048.344-.077.057-.12.124-.1.144.024.019.077 0 .124-.043.1-.091.32-.105.502-.038.067.024.23.148.368.268s.258.21.268.201c.01-.01-.014-.096-.053-.191-.091-.225-.091-.44.005-.813.12-.464.105-.435.187-.368.062.053.067.048.048-.005-.014-.038-.11-.096-.21-.124-.555-.172-.732-.268-.861-.45-.129-.177-.139-.182-.167-.077zm-11.495.425c-.105.139-.158.483-.139.847.024.368.019.387-.1.483-.143.115-.497.129-.933.038-.22-.048-.292-.043-.335.005-.053.048-.033.081.081.177.081.062.177.115.22.115a.19.19 0 0 1 .12.048c.024.024.172.091.33.144s.344.153.416.225c.115.11.134.167.134.392 0 .148-.053.478-.115.732-.115.474-.1.564.067.564.091 0 .311-.33.478-.717.134-.311.316-.526.44-.526.048 0 .359.129.684.287s.627.287.665.287c.067 0 .124-.096.124-.21 0-.033-.086-.12-.196-.201-.32-.23-.622-.512-.698-.66s-.096-.115.459-.894c.158-.22.163-.33.024-.33-.043 0-.23.1-.416.22-.421.273-.636.316-.78.153-.129-.144-.306-.646-.306-.871 0-.287-.12-.445-.225-.306zm12.762.426c-.005.043.043.115.105.167.105.091.105.091.029-.005a.777.777 0 0 1-.105-.167c-.024-.062-.029-.062-.029.005zm-9.184.981c-.091.062-.206.115-.258.115-.048 0-.201.057-.33.129l-.239.129-.086-.105c-.1-.12-.163-.043-.086.105a.316.316 0 0 1 .024.201c-.024.129.024.148.11.043.033-.038.091-.072.129-.072.115 0 .349.144.349.215 0 .053.038.062.143.038.148-.029.187.019.086.12-.096.096 0 .124.124.038.148-.096.172-.096.172 0 0 .067.005.067.077 0 .038-.043.148-.077.239-.077.263 0 .593-.215.593-.387 0-.105-.325-.364-.636-.507a1.988 1.988 0 0 0-.239-.105c-.005 0-.081.057-.172.12zm7.41.402c-.019.191-.005.234.196.526.11.163.249.301.33.335.163.067.191.143.048.143-.048 0-.206-.1-.34-.22-.258-.23-.627-.421-.756-.387-.043.01.048.077.21.148.383.172.421.196.44.249.014.048-.507.163-.727.163-.115 0-.488.282-.378.287.033 0 .067-.029.081-.067.024-.062.493-.158.541-.11.014.01.01.077-.005.143-.024.091-.091.148-.244.206-.182.072-.215.105-.263.277-.105.387-.081.607.091.851.086.129.177.23.206.23s.014-.048-.024-.105c-.077-.11-.105-.277-.043-.277.019 0 .086.048.148.105l.12.11-.062-.12c-.086-.167-.139-.717-.081-.851.072-.153.148-.105.187.124.019.11.086.277.153.378s.124.206.124.239.024.062.048.062c.029 0 .048.033.048.072s.038.072.091.072c.048 0 .115.033.148.072s.187.115.34.172c.325.12.359.153.258.234-.11.091-.636.029-.866-.1l-.187-.11.139.153c.172.187.144.23-.096.129l-.182-.077.115.129c.187.196.354.258.694.258.287 0 .33-.014.459-.139.077-.077.139-.187.139-.239 0-.057.029-.1.067-.1s.105-.014.148-.033c.072-.024.081 0 .048.23-.024.177-.067.287-.134.344-.096.081-.096.081-.01.043a.803.803 0 0 0 .177-.139c.081-.086.187-.531.191-.794.005-.23.129-.139.297.215.1.21.167.306.167.249.005-.153-.124-.435-.335-.717-.1-.139-.187-.297-.187-.354 0-.134.081-.12.115.019.057.239.741.698.894.598.053-.033.043-.043-.033-.043-.191 0-.569-.297-.78-.612-.11-.167-.196-.316-.182-.325.01-.01.144.053.297.143.258.158.282.163.407.1.163-.081.191-.158.187-.445-.005-.172-.014-.196-.038-.105-.053.187-.191.478-.234.478-.019 0-.115-.053-.21-.12s-.23-.12-.301-.12c-.091 0-.153-.053-.263-.23-.077-.129-.196-.258-.263-.287-.086-.038-.12-.091-.12-.187a.577.577 0 0 0-.096-.277c-.12-.177-.124-.311-.01-.311a.382.382 0 0 0 .191-.077c.057-.038.148-.062.196-.043.053.014.105.005.124-.024s-.067-.048-.239-.048c-.22 0-.287.019-.383.12-.067.062-.12.144-.12.177.005.091.172.454.234.488.077.048.067.124-.019.124-.038 0-.091-.043-.12-.096s-.124-.143-.215-.206c-.182-.124-.483-.536-.517-.708l-.019-.115-.014.12zm3.262-.039c-.077.077-.072.144.014.306.105.206.091.301-.091.502-.292.32-.335.732-.124 1.205l.105.234-.124.172c-.239.349-.287.703-.144 1.062.067.163.091.182.148.134.096-.077.234-.364.277-.564.077-.354.11-.368.292-.1.206.306.478.564.78.746.316.191.359.297.268.622-.067.225-.067.287-.01.483l.062.225.1-.234a2.87 2.87 0 0 0 .134-.368c.053-.21.105-.191.144.048a.602.602 0 0 0 .182.368l.153.148.014-.234c.014-.182-.014-.301-.124-.526a1.629 1.629 0 0 1-.167-.674 4.079 4.079 0 0 0-.172-.823c-.081-.244-.153-.512-.158-.598l-.014-.158.258.019.258.014-.206-.244c-.163-.191-.234-.244-.33-.234-.105.014-.144-.033-.325-.359-.115-.206-.22-.454-.234-.55s-.033-.215-.048-.258c-.038-.129-.301-.292-.464-.287a.491.491 0 0 1-.244-.067c-.12-.081-.139-.081-.21-.01zm-17.483.311c-.019.014.01.057.062.096.139.096.12.167-.1.402-.416.45-.617.847-.617 1.225 0 .1-.029.172-.072.191-.043.014-.105.086-.143.163-.091.172-.091.215 0 .139.038-.033.1-.048.139-.033s.077.005.091-.029c.01-.033.072-.014.167.057.172.12.177.115.1-.139-.048-.158-.043-.196.067-.364.258-.402.579-.598 1.1-.665.23-.029.282.01.153.12s-.033.11.158 0a.83.83 0 0 0 .268-.244c.077-.134.1-.139.411-.139.182 0 .383.019.45.048.096.033.124.029.124-.024a.139.139 0 0 0-.043-.096c-.024-.014-.057-.086-.077-.163-.029-.134-.253-.383-.435-.474-.182-.096-.56-.115-.904-.048-.277.057-.364.057-.478.01-.158-.067-.373-.086-.421-.033zm16.34 3.631c-.038.038-.053.143-.038.277.01.12 0 .23-.024.244-.029.014-.048-.005-.048-.043 0-.043-.033-.077-.072-.077s-.072-.043-.072-.096-.024-.096-.057-.096c-.029 0-.043-.014-.024-.029.024-.024-.134-.21-.182-.21-.014 0-.024.053-.024.12 0 .134-.014.143-.144.062-.048-.033-.105-.043-.129-.024-.019.019.11.177.287.349s.32.34.32.373c0 .043-.077.062-.225.062-.349 0-.44.024-.431.115.005.077.158.081.478.019.1-.019.416.062.416.11 0 .019-.115.033-.254.038-.139 0-.297.029-.344.062-.077.048-.029.053.254.024.421-.033.478.053.062.1-.22.024-.277.048-.258.1.024.062-.096.096-.239.072a.549.549 0 0 0-.182.072c-.12.057-.134.086-.086.143.043.053.043.081-.005.139-.1.12-.024.134.201.029.115-.053.268-.11.34-.124.072-.019.129-.053.129-.081 0-.024.024-.029.048-.014.091.057.048.12-.129.191-.167.072-.493.34-.493.407 0 .057.254.024.277-.038a.09.09 0 0 1 .081-.057c.033 0 .086-.033.124-.077.053-.062.402-.273.474-.282a.294.294 0 0 0 .086-.038c.029-.024.077-.029.1-.01.024.014.057.005.077-.024.038-.062.167-.062.167-.005 0 .024-.124.139-.273.254-.234.177-.282.239-.306.397a.7.7 0 0 0 .005.287c.033.081.048.057.096-.12.029-.12.105-.282.172-.359l.115-.143-.029.22c-.019.143-.01.234.024.254.033.024.053-.024.053-.148.005-.21.167-.521.34-.641.096-.072.158-.077.402-.038.435.067.431.067.555.143.263.172.469.167.378-.01-.029-.048-.077-.091-.1-.091-.029 0-.134-.062-.234-.143-.096-.077-.187-.129-.201-.115-.014.01-.053-.01-.086-.053a.259.259 0 0 0-.172-.072c-.11 0-.177-.062-.191-.191a2.211 2.211 0 0 0-.057-.22c-.038-.124-.029-.182.043-.301.048-.081.115-.148.148-.148.043 0 .043-.014-.005-.062-.062-.062-.053-.067-.234.191-.067.091-.067.11.019-.273.024-.11.019-.115-.043-.033-.144.172-.153.67-.014.842.043.057.029.062-.091.033-.077-.019-.158-.062-.177-.091s-.048-.038-.067-.019c-.019.019-.062.01-.096-.014-.067-.057.01-.354.182-.698.057-.115.091-.225.072-.239-.014-.014-.062.038-.105.12-.038.081-.096.148-.124.148-.024 0-.014-.057.019-.134.12-.225.144-.349.072-.335-.105.024-.225.378-.225.67-.005.153-.024.277-.048.277-.072 0-.091-.163-.057-.521.019-.191.014-.359-.005-.368-.019-.014-.043-.01-.043.014a4.7 4.7 0 0 0-.038.454c-.005.077-.019.134-.038.134-.024 0-.029-.105-.024-.23.01-.129.01-.287 0-.354-.01-.1-.024-.115-.072-.057zM2.152 18.253c-.526.139-.947.531-1.153 1.071-.22.574-.215 1.416.014 2.023.196.545.718.971 1.32 1.091.784.153 1.55-.12 1.947-.694.263-.387.368-.77.373-1.392.014-1.105-.416-1.818-1.253-2.081-.359-.115-.866-.12-1.248-.019zm1.172.517c.55.253.847.933.77 1.779-.072.885-.502 1.392-1.22 1.445-.813.057-1.32-.411-1.449-1.33-.057-.43 0-.928.148-1.268.22-.488.617-.741 1.177-.741.249 0 .397.029.574.115zm6.171.463c-.464.057-.88.378-1.081.832-.148.325-.182 1-.072 1.378.158.545.579.89 1.201.99.378.062.612.038 1.114-.105l.344-.1v-.612l-.129.1c-.344.249-.995.354-1.421.23-.359-.11-.651-.521-.651-.914v-.129l1.138-.01 1.134-.014-.014-.354c-.029-.622-.234-.99-.651-1.177a1.605 1.605 0 0 0-.914-.115zm.717.517c.167.091.368.454.349.627l-.014.12H8.792l.029-.158c.029-.182.215-.45.392-.569.263-.172.717-.182 1-.019zm6.405-.517c-.21.038-.66.249-.713.33-.062.1-.12.043-.12-.12v-.167h-.478v3.109h.502l-.029-2.286.143-.1c.373-.268.842-.364 1.129-.234.258.12.287.244.301 1.483l.014 1.138h.531l-.019-1.21c-.014-1.11-.024-1.224-.115-1.425-.196-.421-.622-.612-1.148-.517zm-10.37.072c-.33.105-.746.526-.856.875-.105.335-.11 1.009 0 1.339.091.292.383.641.636.77.416.21 1.081.215 1.555.005l.215-.096v-.579l-.225.143c-.273.172-.488.239-.789.239-.641 0-.981-.459-.938-1.263.033-.603.239-.918.679-1.038.277-.077.574-.024.952.167l.325.167-.029-.593-.311-.105c-.368-.124-.866-.139-1.215-.033zm5.95-.014-.263.057-.014.273-.014.268.301-.096c.196-.067.445-.1.708-.105.512-.005.703.086.813.392.038.105.053.21.033.23s-.263.053-.545.077c-.631.053-.938.134-1.205.325-.249.182-.354.411-.349.77 0 .756.66 1.172 1.473.928a1.56 1.56 0 0 0 .402-.191c.21-.153.239-.153.239.024 0 .143.005.143.258.143h.254l-.01-1.21c-.005-.66-.029-1.248-.048-1.301a1.086 1.086 0 0 0-.469-.512c-.167-.086-.297-.105-.751-.115-.306-.01-.665.01-.813.043zm1.579 1.889c0 .474-.01.488-.383.684-.167.086-.292.11-.56.115-.316 0-.354-.01-.488-.139-.124-.12-.148-.177-.148-.368 0-.277.115-.435.397-.545.191-.072.66-.148 1.028-.163l.153-.005v.421zm-5.477 4.186c-.545.139-.981.478-1.22.942-.23.445-.301 1.239-.167 1.808.196.823.727 1.311 1.578 1.445.478.077 1-.005 1.569-.249l.225-.096v-.67l-.153.115c-.588.45-1.325.574-1.889.325-.311-.139-.507-.34-.67-.689-.124-.268-.134-.34-.134-.842 0-.464.019-.593.115-.832.22-.55.665-.842 1.296-.842.411 0 .727.096 1.095.335.163.105.306.191.316.191.014 0 .024-.148.024-.33v-.33l-.416-.153c-.493-.177-1.162-.234-1.569-.129zm3.626.99c-.713.148-1.114.713-1.114 1.574 0 .909.359 1.464 1.057 1.631.67.163 1.287-.124 1.612-.737.12-.23.129-.282.129-.842 0-.526-.014-.627-.115-.847-.124-.277-.435-.593-.694-.703a1.802 1.802 0 0 0-.875-.077zm.674.497c.33.139.507.521.507 1.105 0 .407-.067.665-.22.875-.163.21-.354.301-.66.301-.584.01-.89-.392-.89-1.177 0-.78.292-1.167.875-1.172.124 0 .301.029.387.067zm3.143-.497c-.206.043-.593.244-.651.335-.062.1-.12.043-.12-.12v-.167h-.526v3.109h.526v-2.291l.158-.12c.335-.253.818-.344 1.11-.21.258.115.282.244.301 1.483l.019 1.138h.517v-1.048c0-.574-.024-1.162-.048-1.301-.115-.617-.631-.942-1.287-.808zm6.266 0c-.627.129-1.014.541-1.153 1.22-.11.536.019 1.153.32 1.502.426.502 1.282.641 2.129.349l.253-.086.014-.292.014-.287-.344.172c-.325.158-.378.172-.789.172-.416 0-.454-.01-.651-.143a1.141 1.141 0 0 1-.45-.732l-.033-.201h2.325l-.024-.397c-.053-.804-.421-1.224-1.138-1.291a1.935 1.935 0 0 0-.474.014zm.756.502c.167.081.32.349.344.593l.019.158-.885-.01c-.483 0-.885-.01-.894-.014a.745.745 0 0 1 .048-.201c.072-.244.354-.521.588-.588s.593-.038.78.062zm12.202-.502a1.44 1.44 0 0 0-.607.268c-.081.062-.163.115-.177.115s-.029-.077-.029-.172V26.4l-.502.029v3.085h.502v-2.339l.34-.167c.526-.263.961-.23 1.134.086.067.124.081.34.096 1.282l.019 1.138h.526l-.019-1.21c-.014-1.028-.033-1.234-.105-1.406a.892.892 0 0 0-.651-.536c-.268-.057-.282-.057-.526-.005zm-16.421.071c-.464.177-.679.488-.646.933.033.483.258.651 1.095.837.607.134.761.23.761.478 0 .536-.871.636-1.665.191-.12-.067-.22-.12-.234-.12-.01 0-.014.134-.005.297l.014.301.335.115c.426.143 1.028.163 1.392.038.703-.244.923-1.048.402-1.488-.153-.124-.407-.21-.947-.32-.402-.077-.603-.215-.622-.421-.033-.34.253-.512.804-.474.287.024.464.081.923.316.019.01.033-.105.033-.253v-.268l-.225-.1c-.297-.134-1.138-.172-1.416-.062zm11.987-.009-.253.048v.55l.301-.1c.397-.129 1.043-.139 1.263-.019.172.091.225.172.273.402l.033.148-.277.029c-.737.077-1.038.129-1.258.225-.67.287-.828 1.091-.316 1.602.354.359.875.392 1.464.1.172-.081.33-.163.354-.172s.029.048.014.134l-.029.148h.521v-1.21c0-1.158-.005-1.22-.105-1.421a.953.953 0 0 0-.607-.478c-.215-.057-1.043-.053-1.378.014zm1.578 1.908-.005.445-.201.129c-.407.263-.971.292-1.215.062-.105-.096-.124-.158-.124-.373 0-.239.014-.277.163-.407.201-.172.545-.253 1.224-.287l.167-.01-.01.44zm5.912-1.903c-.421.148-.651.359-.832.756-.34.741-.124 1.789.445 2.148.292.182.517.244.942.239.244 0 .435-.033.651-.115l.306-.115.014-.292c.014-.273-.033-.373-.11-.249s-.541.301-.837.32c-.45.029-.694-.1-.88-.483-.12-.23-.144-.34-.144-.646-.005-.454.1-.751.354-.981.32-.292.88-.282 1.358.019.124.081.234.143.249.143s.019-.134.01-.297l-.014-.297-.311-.11c-.359-.124-.918-.143-1.201-.043zm-13.58 1.53v1.559h.502l-.005-1.1-.005-1.095.172-.12c.32-.225.526-.282.899-.258l.349.024v-.253c0-.234-.01-.258-.124-.287-.292-.072-.794.072-1.114.32-.158.124-.172.12-.172-.11v-.206l-.502-.029v1.555zm2.119-1.454c.014.053.292.756.612 1.555l.588 1.459h.531l.612-1.521c.335-.832.607-1.535.607-1.555s-.115-.033-.258-.033h-.258l-.153.392c-.641 1.684-.784 2.042-.808 2.019a29.287 29.287 0 0 1-.488-1.205l-.464-1.181-.273-.014c-.258-.014-.273-.01-.249.086zm13.331-.072c0 .014.268.67.598 1.459s.598 1.454.598 1.483c0 .024-.12.311-.263.641-.144.325-.263.607-.263.622 0 .019.12.029.268.019l.273-.014.78-1.842c.431-1.014.837-1.966.904-2.119l.115-.273h-.545l-.474 1.148c-.263.631-.493 1.134-.507 1.114a11.458 11.458 0 0 1-.239-.564c-.115-.292-.32-.784-.454-1.1l-.244-.574-.273-.014c-.148-.01-.273 0-.273.014z"/></symbol><symbol id="icon-globaloceanrefuge" viewBox="0 0 51 32"><path d="M25.933 1.428c-.156.039-.117.233.094.472l.2.217-.011.533c-.017.456 0 .533.083.583.083.044.089.106.061.367-.067.606.178.661.622.144.261-.3.383-.356.506-.233.106.106.078.2-.094.289-.172.094-.25.289-.194.5.039.172.111.2.644.25.422.044.433.05.806.383.483.422.972.767 1.222.85l.194.061-.117.122c-.156.167-.222.372-.167.517.061.167.144.161.644-.039s.544-.2 1.039-.033c1.033.361 2.256.506 2.461.294.094-.1.094-.106-.006-.183-.089-.061-.094-.078-.022-.078.156 0 .15-.217-.006-.522-.467-.883-1.039-1.606-1.922-2.417-.333-.306-.572-.456-1.422-.883-.561-.278-1.144-.611-1.3-.733-.417-.333-.611-.406-.989-.372-.178.017-.383.067-.456.117-.167.111-.178.311-.028.45.061.056.111.15.111.206 0 .272-.328.133-1.133-.472-.372-.272-.672-.45-.717-.422-.006.006-.056.017-.106.033zm-3.461.555a4.04 4.04 0 0 0-.444.322c-.444.367-.578.444-1.172.661s-1.606.756-1.606.85c0 .033.194.189.428.344.706.472 1.172 1.083 1.572 2.072.15.367.217.656.3 1.278.178 1.3.311 1.711.811 2.461.439.667 1.139 1.289 1.139 1.017 0-.033-.183-.239-.406-.456a3.469 3.469 0 0 1-1.039-2.5c.006-.522.078-.767.328-1.083.222-.283.778-.706 1.161-.878.383-.178 1.144-.333 1.883-.378.333-.022.611-.05.622-.061.017-.017 0-.133-.039-.267-.122-.472-.339-.733-1.122-1.361-.967-.778-1.4-1.217-1.644-1.656-.267-.478-.428-.55-.772-.367z"/><path d="M17.65 6.389c-.628.394-1.167 1.583-1.456 3.206l-.094.511-.211.033c-.261.044-1.189.456-1.556.694-.283.183-.472.428-.517.672-.072.394.35.944.806 1.056.278.061.972.039 1.183-.044.122-.044.144-.083-.233.483-.283.439-.422 1.506-.222 1.706.083.083.106.078.317-.067.122-.083.267-.211.322-.278.3-.383.678-.8.694-.761.011.022.067.178.122.344.272.833.8 1.7 1.567 2.583 2.044 2.344 5.428 3.667 8.572 3.35 1.1-.111 2.333-.511 3.189-1.033.589-.356.972-.278 2.228.461.461.272 1.239.472 1.411.367.033-.022-.022-.156-.139-.339a6.712 6.712 0 0 1-.389-.833c-.228-.583-.339-.739-.65-.894-.25-.133-.317-.278-.317-.717 0-.361-.044-.406-.339-.333-.394.094-.539.189-.994.672l-.472.5-.389.056c-.739.106-2.128-.05-2.967-.339a5.26 5.26 0 0 1-2.033-1.272c-.933-.922-1.056-1.667-.35-2.083.25-.144.75-.294 1.111-.328.117-.011.228-.033.244-.056.039-.039-.428-.389-.689-.517-.239-.111-1.094-.111-2.028 0-.667.078-.917.083-1.139.011-.078-.028-.3-.306-.589-.744-.256-.389-.689-1-.967-1.367-.906-1.194-1.194-1.85-1.244-2.839-.033-.572-.122-.794-.494-1.211-.217-.25-.906-.817-.994-.817-.017 0-.15.072-.294.167zm14.1 1.233c.022.133.044.439.05.683.011.544.283 1.378.556 1.722.356.433.589.761.589.811 0 .089-.111.056-.35-.111a6.038 6.038 0 0 0-.661-.361c-.339-.161-.467-.256-.6-.45a1.928 1.928 0 0 0-.311-.356c-.156-.122-.356-.156-.356-.061 0 .128.233.506.422.689s1.222.744 1.689.922c.483.183.856.794 1 1.633.111.644.144 1.506.061 1.561-.033.017-.15.194-.261.389-.172.317-.211.356-.306.306-.183-.1-.261-.294-.294-.778-.05-.611-.111-.872-.244-1.017-.083-.094-.094-.161-.061-.278.033-.128.011-.194-.144-.4a1.12 1.12 0 0 1-.211-.428c-.022-.222-.156-.244-.228-.033-.056.156-.033.206.278.583.144.183.15.183.022.183-.156 0-.872-.689-1.117-1.067-.183-.283-.222-.311-.317-.194-.044.05-.033.122.033.261.117.239.789.956 1.044 1.117.106.061.25.217.322.344.139.233.172.372.228.911.011.156.044.322.061.372.1.261-.417-.094-.683-.472-.15-.206-.278-.328-.344-.328-.167 0-.189.089-.072.261.061.089.172.272.256.417.167.3.222.339.644.433.483.106.489.111.611.278l.117.161-.2.289c-.106.156-.194.306-.194.328 0 .072.45.094.533.028.044-.033.178-.233.289-.444.194-.356.228-.389.467-.45a3.06 3.06 0 0 0 .472-.167c.228-.111.25-.161.428-.939.089-.378.1-.4.583-.861.539-.517.611-.661.511-1-.094-.328-.078-.506.083-.672.283-.294.339-1.217.072-1.217-.017 0-.05.15-.067.339-.044.483-.306.75-.572.578-.172-.111-.167-.233.006-.472a.72.72 0 0 0 .139-.35c0-.1.061-.233.167-.356.094-.1.167-.217.167-.256s-.078-.178-.167-.311a.836.836 0 0 1-.172-.5c-.006-.389-.117-.644-.278-.644-.1 0-.133.028-.122.111.017.189.133.6.25.867.139.317.117.633-.039.633-.089 0-.117-.044-.128-.194-.028-.378-.061-.433-.272-.506-.333-.106-.35-.133-.339-.556.017-.361.011-.383-.172-.572-.233-.239-.506-.356-.506-.211 0 .05.089.183.2.294.183.189.206.25.239.6.033.372.05.406.283.644.167.167.272.333.306.489.039.144.1.25.172.283.117.05.117.056-.039.306-.1.156-.161.322-.161.45 0 .178.044.244.306.483l.306.283v.783l-.322.217c-.55.378-.656.506-.728.872-.144.75-.183.861-.322.972-.211.167-.239.139-.128-.156.172-.45.183-.717.061-1.35l-.111-.583.167-.517c.172-.544.211-.983.111-1.244a1.784 1.784 0 0 1-.061-.483c0-.422-.028-.489-.2-.456s-.217.194-.167.628c.022.261.017.328-.044.328-.133 0-.256-.167-.261-.35-.011-.556-.056-.733-.206-.844-.361-.272-.439-.383-.478-.711-.033-.261-.061-.322-.133-.306-.078.017-.094.089-.094.389v.372l.583.539v.85l.333.289c.356.306.489.583.383.778-.028.061-.067.106-.078.106-.017 0-.228-.306-.483-.683-.25-.372-.583-.839-.744-1.039-.306-.378-.411-.583-.411-.794 0-.139-.067-.272-.294-.583l-.15-.217.111-.244c.122-.272.144-.661.044-.761-.039-.039-.139-.067-.228-.067-.161 0-.161 0-.122.233zM14.378 22.594c.039.017.089.011.106-.006.022-.017-.011-.033-.072-.028-.061 0-.078.017-.033.033zm3.833 0c.039.017.089.011.106-.006.022-.017-.011-.033-.072-.028-.061 0-.078.017-.033.033zm-4.244.106c-.106.083-.106.083.006.033.061-.028.15-.067.194-.083.072-.028.072-.033-.006-.033-.044-.006-.133.033-.194.083zm.689-.05c.039.017.089.011.106-.006.022-.017-.011-.033-.072-.028-.061 0-.078.017-.033.033zm1.3 0c.083.022.1.122.111.839l.017.817.406.017c.228.011.4.039.4.072 0 .039-.183.05-.5.039-.278-.011-.5 0-.5.022 0 .028.239.044.528.044.489 0 .528-.006.528-.111 0-.1-.039-.111-.417-.111h-.417v-.833c0-.828 0-.833-.122-.828-.094.006-.1.017-.033.033zm4.083 0c.1.011.278.011.389 0 .117-.011.039-.022-.178-.022-.211 0-.306.011-.211.022zm2.183.011c0 .028.05.039.111.022.078-.022.122.006.161.1.028.072.056.106.056.067.011-.144-.067-.239-.194-.239-.072 0-.133.022-.133.05zm1.567-.011c.083.022.1.122.111.839l.017.817.406.017c.217.011.4.039.4.067s-.233.061-.511.072l-.517.017.544.011c.506.011.539.006.539-.1 0-.1-.039-.111-.417-.111h-.417v-.833c0-.828 0-.833-.122-.828-.094.006-.1.017-.033.033zm-8.883.078c.133.078.067.178-.072.106a.508.508 0 0 0-.15-.056c-.022.006.028.044.117.089.128.072.167.078.206.017.05-.083-.039-.217-.139-.217-.033 0-.017.028.039.061zm2.711.1c-.094.089-.172.183-.172.211 0 .022.039-.006.083-.061.044-.061.15-.156.233-.211.089-.056.128-.1.094-.1-.039 0-.144.072-.239.161zm.994-.139c0 .011.039.039.089.056.044.017.067.011.05-.022-.033-.056-.139-.078-.139-.033zm-4.439.083c-.056.033.006.044.167.022.133-.017.256-.039.267-.05.056-.05-.361-.017-.433.028zm4.011-.011c.05.011.128.011.167 0 .033-.017-.006-.028-.1-.028-.089 0-.122.011-.067.028zm2.65-.017c0 .022.039.078.083.122.044.05.083.061.083.033s-.039-.083-.083-.122c-.044-.039-.083-.05-.083-.033zm-7.094.1c-.083.111-.139.211-.111.211.017 0 .067-.061.117-.139.094-.144.089-.194-.006-.072zm4.005.112-.161.183.167-.144c.094-.083.206-.161.25-.178.072-.028.072-.033-.006-.033-.044-.006-.156.078-.25.172zm1.089-.156c0 .011.044.056.1.094.083.072.089.067.017-.022s-.117-.117-.117-.072zm1.261.017c-.022.017-.039.183-.039.361v.322h.3c.167 0 .317-.017.328-.044.017-.022-.106-.028-.272-.022l-.3.022v-.617l.294-.022.289-.017-.283-.011c-.156-.006-.3.006-.317.028zm-6.211.166-.133.156.156-.133c.139-.128.178-.172.133-.172-.011 0-.078.067-.156.15zm4.839-.011a.703.703 0 0 0 .156.139c.017 0-.028-.061-.1-.139s-.144-.139-.156-.139c-.017 0 .028.061.1.139zm2.061.006c0 .061.017.078.033.033.017-.039.011-.089-.006-.106-.017-.022-.033.011-.028.072zm1.806.078a.832.832 0 0 0 .089.222c.033.056.039.039.011-.056A.832.832 0 0 0 22.6 23c-.033-.056-.039-.039-.011.056zm-3.556.016c.017.056.05.083.067.067s0-.061-.039-.1c-.056-.05-.061-.044-.028.033zm1.945.078c-.033.078-.028.083.028.033.039-.039.056-.083.039-.1s-.05.011-.067.067zm-3.611.044a.53.53 0 0 0-.028.183c0 .05.028.022.056-.067.05-.178.033-.267-.028-.117zm.166.056c-.017.05-.028.194-.028.322.011.222.011.217.05-.072.039-.328.033-.394-.022-.25zm-4.022.083c0 .078.011.106.028.067a.297.297 0 0 0 0-.139c-.017-.033-.028-.006-.028.072zm5.611 0c0 .078.011.106.028.067a.297.297 0 0 0 0-.139c-.017-.033-.028-.006-.028.072zm2.995.061a.882.882 0 0 0-.056.239c0 .033.039-.039.083-.156.044-.122.067-.228.056-.239s-.05.056-.083.156zm-8.445.123c-.006.311.106.589.283.7.106.061.094.039-.033-.094-.128-.139-.167-.244-.2-.522-.039-.344-.039-.344-.05-.083zm5.289.039c0 .139.011.194.022.122a.95.95 0 0 0 0-.25c-.011-.067-.022-.011-.022.128zm1.872-.112c-.05.033-.056.056-.017.056a.142.142 0 0 0 .1-.056c.044-.067.022-.067-.083 0zm-6.166.223c0 .083.039.111.139.111.117 0 .139.028.139.167 0 .128-.039.194-.178.278-.1.061-.156.111-.122.111s.128-.056.211-.117c.194-.156.189-.456-.006-.483-.2-.028-.15-.122.067-.122h.194v.411c0 .278-.022.422-.067.439s-.033.033.028.033c.083.006.094-.05.094-.467v-.472h-.25c-.211 0-.25.017-.25.111zm7.15.15c-.05.139-.089.267-.078.278s.067-.094.122-.233c.05-.144.083-.267.072-.278s-.067.094-.117.233zm-4.473-.095c0 .078.011.106.028.067a.297.297 0 0 0 0-.139c-.017-.033-.028-.006-.028.072zm2.734-.033c-.017.039-.022.194-.011.344l.017.272.3.017c.294.017.506-.078.506-.233 0-.033-.039 0-.089.067-.067.1-.139.122-.389.122h-.3v-.611h.3c.25 0 .322.022.389.122.05.067.089.1.089.067s-.044-.1-.1-.15c-.133-.122-.667-.133-.711-.017zm.872.017c.039.067.083.111.1.094.017-.011-.017-.067-.072-.122-.094-.089-.1-.089-.028.028zm-7.439.072c0 .078.011.106.028.067a.297.297 0 0 0 0-.139c-.017-.033-.028-.006-.028.072zm5.606-.022c0 .061.017.078.033.033.017-.039.011-.089-.006-.106-.017-.022-.033.011-.028.072zm3.094.005c.1.011.25.011.333 0s0-.022-.183-.022-.25.011-.15.022zm.622-.011c0 .028.028.094.056.139s.056.056.056.028c0-.033-.028-.094-.056-.139s-.056-.061-.056-.028zm-5.277.133c0 .033.022.072.056.089s.039-.006.022-.05c-.039-.1-.078-.117-.078-.039zm1.333-.005c0 .033-.067.139-.15.244-.122.15-.128.161-.022.072.15-.128.25-.3.206-.35-.017-.017-.033 0-.033.033zm.117.161c-.056.144-.056.15.022.05a.43.43 0 0 0 .083-.156c0-.083-.039-.044-.106.106zm2.055-.061c0 .061.017.078.033.033.017-.039.011-.089-.006-.106-.017-.022-.033.011-.028.072zm.833.083a.882.882 0 0 0-.056.239c0 .033.033-.028.072-.133l.072-.194h.394c.211 0 .378-.017.361-.044-.011-.022-.194-.039-.406-.039-.372 0-.378 0-.439.172zm-8.338-.067c0 .033.022.072.056.089s.039-.006.022-.05c-.039-.1-.078-.117-.078-.039zm3.95.156c.039.067.083.111.1.094.017-.011-.017-.067-.072-.122-.094-.089-.1-.089-.028.028zm.216-.017c0 .011.044.056.1.094.083.072.089.067.017-.022s-.117-.117-.117-.072zm3.256.061c-.05.144-.039.178.028.067.033-.056.05-.117.033-.128-.011-.017-.039.011-.061.061zm-7.228.084c.056.061.111.111.128.111s-.017-.05-.072-.111-.111-.111-.128-.111.017.05.072.111zm5 .055c-.089.061-.139.111-.111.111.056 0 .356-.217.306-.222-.017 0-.1.05-.194.111zm-1.017.034c.056.056.111.089.122.072.017-.017-.028-.061-.094-.1-.117-.072-.117-.067-.028.028zm-3.439.005c.05.011.139.011.194 0 .05-.017.006-.028-.1-.028s-.15.011-.094.028zm3.862 0c.033.011.1.011.139 0 .033-.017.006-.028-.072-.028s-.106.011-.067.028zm2.622.017c-.05.033-.056.056-.017.056a.142.142 0 0 0 .1-.056c.044-.067.022-.067-.083 0zm.816.022c-.028.067 0 .089.1.089.078 0 .139-.028.139-.061 0-.028-.028-.039-.061-.017a.083.083 0 0 1-.106-.033c-.028-.044-.05-.039-.072.022zm1.462-.017c0 .033-.039.05-.083.028-.044-.017-.083-.006-.083.022 0 .033.061.056.139.056.1 0 .128-.022.106-.083-.039-.1-.078-.111-.078-.022zm-11.073.117c-.489.1-.839.389-1.061.878-.083.194-.111.367-.111.756-.006.472.011.539.189.889.167.322.244.411.494.561.617.367 1.406.278 1.878-.217.289-.3.422-.667.422-1.183 0-.244-.028-.55-.061-.678-.206-.706-.994-1.161-1.75-1.006zm.684.556c.739.372.733 1.806-.006 2.183-.461.239-1.022-.044-1.189-.606-.261-.867.133-1.667.833-1.694.067-.006.228.05.361.117zm1.433-.584c.039.017.089.011.106-.006.022-.017-.011-.033-.072-.028-.061 0-.078.017-.033.033zm.444 0c.039.017.089.011.106-.006.022-.017-.011-.033-.072-.028-.061 0-.078.017-.033.033zm3.445 0c.039.017.089.011.106-.006.022-.017-.011-.033-.072-.028-.061 0-.078.017-.033.033zm2.05 0c.1.011.278.011.389 0 .117-.011.039-.022-.178-.022-.211 0-.306.011-.211.022zm11.45.056c-.194.122-.267.294-.267.656 0 .3 0 .306-.167.306-.156 0-.167.011-.167.222s.011.222.167.222h.167v1.833h.528l-.033-1.833h.278c.2 0 .272-.022.261-.072a1.238 1.238 0 0 1-.056-.222c-.033-.133-.061-.15-.261-.15h-.233l.033-.256c.033-.311.094-.378.35-.378.172 0 .194-.017.167-.117a.96.96 0 0 1-.033-.211c0-.078-.05-.094-.289-.094-.178 0-.356.039-.444.094zm-17.167 0c.039.017.089.011.106-.006.022-.017-.011-.033-.072-.028-.061 0-.078.017-.033.033zm3.889 0c.039.017.089.011.106-.006.022-.017-.011-.033-.072-.028-.061 0-.078.017-.033.033zm7.4-.011s-.006.733-.017 1.628l-.011 1.622h.583V26.5h.156c.133 0 .206.083.567.644l.417.639.25-.033c.139-.022.272-.056.3-.083.022-.028-.139-.311-.361-.644-.383-.55-.406-.6-.306-.656.417-.244.567-.528.522-.989a.832.832 0 0 0-.439-.683c-.156-.089-.322-.117-.928-.139-.4-.017-.733-.028-.733-.028zm1.245.55c.361.15.383.717.028.894a1.17 1.17 0 0 1-.439.083h-.278v-1.056h.25c.139 0 .339.033.439.078zm-11.523.422c-.322.061-.544.211-.7.472-.122.211-.144.322-.15.656 0 .583.233.983.667 1.117.228.072.722.044.922-.05.183-.083.194-.106.167-.294a1.981 1.981 0 0 0-.044-.222.504.504 0 0 0-.172.072c-.272.139-.606.111-.811-.078-.172-.15-.183-.189-.183-.528 0-.322.017-.378.161-.528.133-.139.211-.172.406-.172.133 0 .317.039.4.083.15.078.161.072.194-.044.067-.25.039-.356-.117-.417a1.475 1.475 0 0 0-.739-.067zm2.317 0c-.272.05-.478.206-.628.467-.339.6-.128 1.511.4 1.733.467.194 1.411.017 1.411-.267 0-.244-.067-.278-.322-.156-.339.167-.689.15-.9-.044a.726.726 0 0 1-.2-.333l-.033-.178h1.456V26.5c0-.444-.3-.906-.633-.972a3.517 3.517 0 0 0-.256-.05 1.02 1.02 0 0 0-.294.022zm.506.456a.757.757 0 0 1 .15.278l.039.156h-.478c-.261 0-.478-.011-.478-.028 0-.106.172-.417.261-.467a.427.427 0 0 1 .506.061zm2.122-.473c-.106.011-.3.044-.433.083-.239.061-.244.061-.206.261.022.111.044.206.05.217.011.006.122-.028.256-.072.472-.167.889-.056.889.244 0 .083-.056.117-.289.144-.844.117-1.228.506-1.044 1.056.078.233.233.35.5.361.35.017.428 0 .633-.139.111-.078.217-.139.228-.139.017 0 .028.061.028.139 0 .128.022.139.239.139h.233l-.017-.928c-.006-.589-.039-.983-.078-1.061-.117-.228-.517-.35-.989-.306zm.555 1.406c0 .256-.017.289-.178.389-.206.122-.489.144-.589.044s-.078-.35.044-.461c.089-.083.5-.228.683-.244.022-.006.039.122.039.272zM23.3 25.5c-.194.044-.522.228-.522.289 0 .022-.022.044-.056.044-.028 0-.056-.078-.056-.167 0-.161-.011-.167-.233-.167h-.239v2.278h.522l.033-1.578.189-.128c.206-.139.444-.167.55-.061.044.044.067.328.067.917v.85h.556v-.889c0-1.139-.061-1.311-.5-1.4a.846.846 0 0 0-.311.011zm5.85 0c-.272.05-.478.206-.628.467-.339.6-.128 1.511.4 1.733.467.194 1.411.017 1.411-.267 0-.244-.067-.278-.322-.156-.339.167-.689.15-.9-.044a.726.726 0 0 1-.2-.333l-.033-.178h1.456V26.5c0-.444-.3-.906-.633-.972a3.517 3.517 0 0 0-.256-.05 1.02 1.02 0 0 0-.294.022zm.506.456a.757.757 0 0 1 .15.278l.039.156h-.478c-.261 0-.478-.011-.478-.028 0-.106.172-.417.261-.467a.427.427 0 0 1 .506.061zm6.45-.456c-.372.106-.606.406-.606.783 0 .2.178.522.317.572.078.033.072.05-.033.161-.122.133-.156.394-.061.456.028.017-.044.128-.167.244-.494.472-.083.894.872.894.433 0 .706-.083.933-.283.322-.283.311-.683-.028-.856-.094-.05-.4-.122-.672-.167-.278-.039-.517-.089-.533-.106s-.017-.067 0-.117c.028-.056.111-.083.294-.083.533 0 .856-.283.856-.75 0-.306.044-.361.283-.361.089 0 .1-.028.067-.183a.905.905 0 0 0-.05-.2c-.006-.011-.128.028-.261.078-.222.083-.261.083-.411.011-.189-.1-.6-.15-.8-.094zm.572.444c.139.144.161.2.133.344-.05.25-.183.378-.406.378a.389.389 0 0 1-.406-.394c0-.217.089-.378.239-.439.2-.078.261-.061.439.111zm.194 1.839c.461.144.144.55-.428.55-.389 0-.739-.222-.633-.406.139-.239.206-.272.55-.233.183.017.411.061.511.089zm2.056-2.283c-.572.106-.894.733-.761 1.45.067.35.278.644.55.756.461.194 1.394.011 1.394-.272 0-.244-.067-.278-.322-.156-.339.167-.689.15-.9-.044a.726.726 0 0 1-.2-.333l-.033-.178h1.456v-.222c0-.444-.3-.906-.633-.972a3.517 3.517 0 0 0-.256-.05 1.02 1.02 0 0 0-.294.022zm.505.456a.757.757 0 0 1 .15.278l.039.156h-.478c-.261 0-.478-.011-.478-.028 0-.106.172-.417.261-.467a.427.427 0 0 1 .506.061zm-6.6.388c0 1.233.083 1.422.628 1.439.206.011.317-.022.539-.161l.278-.172v.161c0 .161.011.167.25.167h.25V25.5h-.55l-.033 1.578-.189.128c-.228.156-.4.161-.522.028-.078-.089-.094-.239-.094-.917V25.5h-.556v.844zm-8.622 2.362c.039.017.089.011.106-.006.022-.017-.011-.033-.072-.028-.061 0-.078.017-.033.033zm3.778 0c.039.017.089.011.106-.006.022-.017-.011-.033-.072-.028-.061 0-.078.017-.033.033zm-2.6.061c0 .028.039.094.089.156.078.1.083.1.017-.028-.056-.122-.05-.128.056-.1.067.017.106.006.083-.022-.039-.061-.244-.067-.244-.006zm1.083.133c-.078.161-.078.172 0 .078.044-.061.083-.133.083-.161s.05-.039.111-.022.128.006.144-.022-.033-.05-.111-.05c-.106 0-.167.05-.228.178zm1.889-.094c.089.072.094.094.033.133-.039.028-.05.061-.022.078s.078-.011.111-.067c.056-.089.039-.111-.083-.167-.144-.061-.144-.056-.039.022zm.806.027c0 .1.039.111.306.111h.306v.833c0 .828 0 .833.128.828.089-.006.094-.017.028-.033-.083-.022-.1-.122-.111-.839l-.017-.817-.289-.017c-.161-.011-.294-.039-.294-.072 0-.028.294-.05.694-.05.706 0 .972.089.378.128l-.322.017.35.011c.311.011.344 0 .344-.1 0-.106-.039-.111-.75-.111s-.75.006-.75.111zm2.305-.077c.4.044.861.044.861.006 0-.022-.233-.033-.511-.028-.283 0-.439.017-.35.022zm1.922.116c.011.133.011.139.033.028.039-.211.156-.139.289.189.167.4.206.361.044-.05-.1-.25-.144-.317-.244-.317-.106 0-.128.028-.122.15zm1.273-.111c0 .028.061.044.139.044s.139-.017.139-.044c0-.022-.061-.039-.139-.039s-.139.017-.139.039zm-10.861.128c-.056.061-.089.122-.078.133s.067-.039.122-.111c.122-.161.094-.178-.044-.022zm.838-.05c.022.033.006.083-.033.106s-.044.056-.017.072c.028.017.078-.017.117-.072.05-.078.044-.106-.022-.133-.05-.022-.067-.011-.044.028zm2.939.05c-.056.061-.089.122-.078.133s.067-.039.122-.111c.122-.161.094-.178-.044-.022zm-3.372-.017c.033.011.1.011.139 0 .033-.017.006-.028-.072-.028s-.106.011-.067.028zm3.778 0c.033.011.1.011.139 0 .033-.017.006-.028-.072-.028s-.106.011-.067.028zm-2.311.045c.039.117.328.639.35.639.017 0-.033-.117-.106-.267-.139-.261-.283-.478-.244-.372zm.933.083c-.033.061-.044.111-.033.111.017 0 .056-.05.089-.111s.044-.111.033-.111c-.017 0-.056.05-.089.111zm4.928-.072c-.022.017-.039.183-.039.361v.322h.333c.428 0 .439.1.017.122l-.322.017v.667l.406.017c.217.011.4.039.4.067s-.233.061-.511.072l-.517.017.544.011c.506.011.539.006.539-.1 0-.1-.039-.111-.417-.111h-.417v-.611h.333c.294 0 .333-.011.333-.111s-.039-.111-.333-.111h-.333v-.606l.406-.022.4-.017-.394-.011c-.217-.006-.411.006-.428.028zm-5.9.294c.05.089.1.167.117.167.011 0-.011-.078-.061-.167-.05-.094-.1-.167-.117-.167-.011 0 .011.072.061.167zm-1.967-.022c0 .061.017.078.033.033.017-.039.011-.089-.006-.106-.017-.022-.033.011-.028.072zm2.589.072a.805.805 0 0 0-.094.211c0 .022.05-.039.117-.144.061-.1.1-.194.094-.206-.011-.011-.067.056-.117.139zm1.217-.022a.591.591 0 0 0 .15.278l.117.111-.089-.111a1.449 1.449 0 0 1-.15-.278l-.061-.167.033.167z"/><path d="M26.394 29.367c-.067.111-.111.211-.1.222s.078-.078.144-.2c.156-.278.117-.294-.044-.022zm6.956.022c0 .139.011.194.022.122a.95.95 0 0 0 0-.25c-.011-.067-.022-.011-.022.128zm1.128-.139c-.05.144-.039.178.028.067.033-.056.05-.117.033-.128-.011-.017-.039.011-.061.061zm.483.167c0 .15.011.211.022.122a1.174 1.174 0 0 0 0-.278c-.011-.067-.022 0-.022.156zm-.167.055c0 .15.011.211.022.122a1.174 1.174 0 0 0 0-.278c-.011-.067-.022 0-.022.156zm-10.822-.083c.056.061.111.111.128.111s-.017-.05-.072-.111-.111-.111-.128-.111.017.05.072.111zm3.778 0c.056.061.111.111.128.111s-.017-.05-.072-.111-.111-.111-.128-.111.017.05.072.111zm5.767.111c0 .139.011.194.022.122a.95.95 0 0 0 0-.25c-.011-.067-.022-.011-.022.128zm-9.795-.128c0 .028.056.1.128.161l.122.106-.111-.139a2.922 2.922 0 0 1-.122-.161c-.011-.011-.017 0-.017.033zm2.111.184c.033.061.072.111.089.111.011 0 0-.05-.033-.111s-.072-.111-.089-.111c-.011 0 0 .05.033.111zm7.889-.084c0 .028.028.094.056.139s.056.056.056.028c0-.033-.028-.094-.056-.139s-.056-.061-.056-.028zm.167.022c0 .033.022.072.056.089s.039-.006.022-.05c-.039-.1-.078-.117-.078-.039zm.428.184c-.05.128-.083.239-.072.25s.061-.083.111-.211.083-.239.072-.25-.061.083-.111.211zm.194-.095c-.094.206-.078.25.022.067.05-.089.078-.172.061-.183-.011-.011-.05.039-.083.117zm-10.305-.022c.039.039.083.056.1.039s-.011-.05-.067-.067c-.078-.033-.083-.028-.033.028zm3.777 0c.039.039.083.056.1.039s-.011-.05-.067-.067c-.078-.033-.083-.028-.033.028zm-3.905.128c.061.05.133.089.167.089.067 0 .039-.028-.133-.106-.133-.061-.133-.061-.033.017zm3.778 0c.061.05.133.089.167.089.067 0 .039-.028-.133-.106-.133-.061-.133-.061-.033.017zm-3.267.089c.067.078.133.178.15.222.028.072.033.072.033-.006.006-.044-.061-.144-.144-.222l-.156-.133.117.139zm1.617-.072c-.022.017-.039.217-.039.439 0 .339-.017.406-.094.428s-.072.028.022.033c.111.006.122-.022.139-.467.011-.261.017-.472.011-.472 0 0-.022.017-.039.039zm7.8.044c.006.106.1.283.1.194 0-.044-.022-.122-.05-.167s-.05-.061-.05-.028zm-5.523.2c.022.072.044.1.061.056a.155.155 0 0 0-.033-.128c-.044-.044-.05-.022-.028.072zm4.811.133c0 .15.011.211.022.122a1.174 1.174 0 0 0 0-.278c-.011-.067-.022 0-.022.156zm1.556.056c0 .183.011.25.022.15s.011-.25 0-.333-.022 0-.022.183zm.167-.028c0 .167.011.239.022.15a1.423 1.423 0 0 0 0-.306c-.011-.083-.022-.011-.022.156zm-10.484-.055c.044.239.078.283.078.106a.499.499 0 0 0-.056-.217c-.039-.061-.044-.028-.022.111zm3.778 0c.044.239.078.283.078.106a.499.499 0 0 0-.056-.217c-.039-.061-.044-.028-.022.111zm5.633-.1c-.006.128.144.322.244.317.106 0 .106-.006.011-.044a.45.45 0 0 1-.178-.178c-.039-.072-.072-.117-.078-.094zm.367.072c-.05.144-.039.178.028.067.033-.056.05-.117.033-.128-.011-.017-.039.011-.061.061zm-.85.222c0 .15.011.211.022.122a1.174 1.174 0 0 0 0-.278c-.011-.067-.022 0-.022.156zm-4.989.083c-.022.061-.1.15-.183.194s-.117.078-.078.083c.083 0 .344-.244.344-.333 0-.094-.044-.061-.083.056zm-4.772.028c-.033.089.161.25.3.25.044-.006 0-.039-.106-.083-.156-.072-.172-.094-.117-.167.039-.05.044-.083.011-.083-.028 0-.067.039-.089.083zm.228.033c.039.039.083.056.1.039s-.011-.05-.067-.067c-.078-.033-.083-.028-.033.028zm.6.112c-.089.056-.139.106-.106.106.039 0 .122-.05.194-.111.167-.133.128-.133-.089.006zm3.044.005c.061.056.15.1.2.094.056 0 .039-.022-.044-.056-.078-.028-.167-.072-.2-.094s-.011.006.044.056zm-3.416-.028c.033.011.1.011.139 0 .033-.017.006-.028-.072-.028s-.106.011-.067.028zm3.833 0c.039.017.089.011.106-.006.022-.017-.011-.033-.072-.028-.061 0-.078.017-.033.033zm5.278.111c.033.011.1.011.139 0 .033-.017.006-.028-.072-.028s-.106.011-.067.028zm1.666 0c.033.011.1.011.139 0 .033-.017.006-.028-.072-.028s-.106.011-.067.028zm-10.722.056c.039.017.089.011.106-.006.022-.017-.011-.033-.072-.028-.061 0-.078.017-.033.033zm3.778 0c.039.017.089.011.106-.006.022-.017-.011-.033-.072-.028-.061 0-.078.017-.033.033z"/></symbol><symbol id="icon-oceana" viewBox="0 0 272 32"><path d="M4.75.5C2.5.85.5 1.8.5 2.5c0 .25.75.8 1.65 1.15 3 1.25 3.2 2.05 1.6 5.25-1.7 3.45-2.2 8.45-1.25 11.95l.7 2.3.65-3.2c.95-4.9 2.95-8.3 6.4-11.1 1.7-1.35 4.05-2.7 5.45-3.1 3.05-.9 8.9-.95 11.4-.05 1.75.6 1.8.6 1.25-.3-1.2-1.9-5.65-3.55-10.8-3.95-2.65-.2-5.25-.5-5.8-.65-1.9-.45-5-.6-7-.3zm38 5.2c-4.85 2.25-7.3 5.95-7.65 11.45-.3 4.5.6 7.35 3.05 10.2 2.8 3.1 5.2 4.15 9.85 4.15 4.05 0 7-1 8.7-2.95.95-1.05.95-1.05-.2-2.3-1.3-1.4-2.65-1.55-4.5-.5-1.65.95-4.7.95-6.7 0C40.75 23.6 40 14.7 44.05 11.3c2.05-1.75 4.65-2.15 7.5-1.15 3.3 1.2 4.2 1.05 5.5-.7 1.1-1.55 1.1-1.6.15-2.3-3.75-2.9-10-3.55-14.45-1.45zM60.5 18.25V31.5H78v-1.15c0-.6-.35-1.65-.8-2.25-.7-1-1.15-1.1-5.5-1.1H67v-6.45l8.25-.3.15-2.15.15-2.1H67V9.5h4.7c4.35 0 4.8-.1 5.5-1.1.45-.6.8-1.65.8-2.25V5H60.5v13.25zm29.3-12.8c-.35.5-6.15 15.3-8.55 21.65l-1.65 4.4h2.95c3.25 0 3.75-.45 4.95-4.15l.6-1.9 10.1.3.8 2.45c.5 1.3 1.15 2.6 1.55 2.85s1.9.45 3.4.45c2.35 0 2.6-.1 2.3-.9-.2-.45-2.35-6.15-4.85-12.6s-4.75-12.05-5-12.4c-.6-.7-6.2-.85-6.6-.15zm6.7 15.65c0 .45-6.2.55-6.6.1-.25-.2 1.7-6.75 2.9-9.7.25-.65 3.7 8.3 3.7 9.6zm12-2.85V31.5h2.5c3.45 0 3.6-.5 3.4-9.3-.1-3.95-.1-7.2-.05-7.2 0 0 3 3.7 6.6 8.25l6.55 8.25h4.5V5h-2.5c-3.1 0-3.1 0-2.9 9.15.1 3.75.05 6.85-.15 6.85-.15 0-3.1-3.6-6.6-8l-6.35-8h-5v13.25zm32.351-3.4c-2.1 5.45-4.4 11.45-5.1 13.3l-1.25 3.4 6.25-.3 2.2-5.5h10.2l.8 2.35c1.1 3.2 1.45 3.5 4.65 3.3l2.75-.15-2.1-5.5c-5.85-15.35-7.75-19.95-8.35-20.3-.35-.25-1.9-.45-3.45-.45h-2.8l-3.8 9.85zm9.1 1.55c.8 2.5 1.3 4.7 1.15 4.85-.4.4-6.6.3-6.6-.1 0-1.2 3.3-10.05 3.6-9.75.2.2 1.05 2.45 1.85 5zm18.05-6.4c0 2.8.2 5 .45 5 .3 0 .55-.85.65-1.9.15-1.8.2-1.85 2.25-2 1.5-.1 2.35-.5 2.9-1.25 1.05-1.5.95-2.2-.5-3.6-.9-.95-1.75-1.25-3.5-1.25h-2.25v5zm5-3.25c1 1.2.2 3.15-1.5 3.5-.8.2-1.7.2-2 0-.55-.35-.7-3.4-.15-3.9.6-.65 3-.35 3.65.4zm43-1c0 .4.35.75.75.75s.75-.35.75-.75-.35-.75-.75-.75-.75.35-.75.75zm27.5 4.25c0 4.05.15 5 .75 5 .5 0 .75-.75.85-2.9.15-2.65.25-2.85 1.4-2.85s1.25.2 1.4 2.85c.1 2.15.35 2.9.85 2.9.55 0 .75-.65.75-2.65 0-3.4-.45-4-2.7-3.75-1.8.2-1.8.2-1.8-1.7 0-1.35-.2-1.9-.75-1.9-.6 0-.75.9-.75 5zm-52.5-3c0 .5-.4 1.2-.85 1.45-.5.3-.6.55-.25.55s.6.7.6 1.85c0 3.3.45 4.15 2.05 4.15.8 0 1.45-.25 1.45-.5 0-.3-.45-.5-1-.5-.85 0-1-.35-1-2.45 0-2.15.15-2.5 1.15-2.7l1.1-.2-1.1-.1c-.85-.05-1.15-.35-1.15-1.3 0-.7-.2-1.25-.5-1.25-.25 0-.5.45-.5 1zm20.5-.4c0 .3-.35 1-.85 1.5-.45.5-.55.9-.25.9s.6 1.2.7 2.85c.15 2.75.2 2.9 1.55 3.05.75.1 1.35-.05 1.35-.35s-.35-.55-.75-.55c-1.15 0-1.05-4.85.15-5.15.8-.2.8-.25 0-.3-.6-.05-.9-.45-.9-1.3 0-.7-.2-1.25-.5-1.25-.25 0-.5.25-.5.6zm27.5 0c0 .3-.35 1-.85 1.5-.45.5-.55.9-.25.9s.6 1.2.7 2.85c.15 2.75.2 2.9 1.55 3.05.75.1 1.35-.05 1.35-.35s-.35-.55-.75-.55c-1.15 0-1.05-4.85.15-5.15.8-.2.8-.25 0-.3-.6-.05-.9-.45-.9-1.3 0-.7-.2-1.25-.5-1.25-.25 0-.5.25-.5.6z"/><path d="M22.5 7.55c0 .2.3.6.7.8 1.75 1 2.9 4.1 2.95 7.8.05 6.35-2.6 10.05-7.65 10.7-5.8.8-9.75-2.55-10.45-8.85l-.35-2.75-1.1 2.9c-.7 1.8-1.1 4-1.1 5.9 0 2.5.2 3.2 1.25 4.25 3.05 3.05 9.95 4.45 14.85 3 7.8-2.25 12.15-9.15 10.85-17.25-.45-2.8-1.35-4.2-3.45-5.3-1.65-.85-6.5-1.75-6.5-1.2zm154.501 3.8c0 4.2.85 5 1.1 1 .15-2.25.3-2.6 1.3-2.75.6-.1 1.1-.5 1.1-.9 0-.85-.25-.85-1.5-.1-.85.55-1.1.5-1.5-.1-.35-.5-.5.4-.5 2.85zm5.75-2.1c-1.1 1.05-1.3 1.6-1.05 2.9.4 2 1.5 2.85 3.6 2.85 1.9 0 3.2-1.45 3.2-3.5 0-1.8-.95-2.95-2.85-3.3-1.3-.25-1.85-.05-2.9 1.05zm3.9.75c1.5 2.15-.45 5.15-2.65 4-1.15-.6-1.4-3.4-.4-4.4.9-.9 2.25-.7 3.05.4zm10.1-.75c-1.4 1.35-1.5 2.1-.65 4 .85 1.85 4.75 2.5 5.3.85.15-.45-.15-.5-1.15-.1-1.65.6-3.25-.1-3.25-1.5 0-.85.35-1 2.5-1 2.8 0 3.25-.75 1.5-2.5-1.35-1.35-2.8-1.25-4.25.25zm3.75-.05c0 .1.15.55.3 1 .25.65-.1.8-1.75.8-1.95 0-2.65-.7-1.7-1.65.35-.4 3.15-.5 3.15-.15zm4.15-.45c-2.15 1.5-1.8 5.45.6 6.05 1.55.4 3.9-.15 3.5-.8-.2-.35-.7-.3-1.3.05-2.15 1.1-4.1-2.95-2.2-4.55.4-.35 1.3-.5 2-.4 1.4.3 1.7-.3.45-.8-1.2-.45-1.9-.35-3.05.45zm15.2-.4c-.2.15-.35 1.75-.35 3.5 0 2.4.15 3.15.75 3.15.5 0 .75-.75.85-2.9.15-2.55.25-2.85 1.35-3 1.55-.25 2.05.6 2.05 3.5 0 1.35.25 2.4.5 2.4.3 0 .5-1.3.5-2.95 0-3.65-.8-4.55-3.15-3.65-1 .4-1.65.4-1.85.1s-.45-.35-.65-.15zm8.55.15c-1.05.65-1.2 2.8-.25 3.15.45.15.45.35-.05 1-.4.45-.55 1.05-.35 1.4.2.3.05.75-.3 1-.55.3-.55.65-.15 1.3.8 1.3 4.6 1.25 5.5-.1.95-1.4.2-2.3-2.25-2.6-2.4-.35-2.5-1.3-.15-1.55 1.25-.15 1.65-.45 1.95-1.5.15-.75.55-1.5.85-1.7.35-.25.25-.4-.25-.4-.45 0-1.45-.1-2.25-.25s-1.85 0-2.3.25zm2.85 1.75c0 .7-.4 1.05-1.35 1.15-1.2.15-1.4 0-1.4-1.15s.2-1.3 1.4-1.15c.95.1 1.35.45 1.35 1.15zm.5 5.5c0 .75-.4 1.05-1.45 1.15-1.65.2-2.55-.5-2.1-1.65.45-1.25 3.55-.8 3.55.5zm20.4-6.45c-1 1-1.2 1.55-.95 2.85.15.9.7 1.9 1.2 2.25 1.05.8 4.2.6 4.5-.3.15-.45-.15-.5-1.15-.1-1.65.6-3.25-.1-3.25-1.5 0-.85.35-1 2.5-1 2.8 0 3.25-.75 1.5-2.5-1.35-1.35-2.8-1.25-4.35.3zm3.85-.1c0 .1.15.55.3 1 .25.65-.1.8-1.75.8-1.95 0-2.65-.7-1.7-1.65.35-.4 3.15-.5 3.15-.15zm-40 2.55c0 2.55.15 3.25.75 3.25s.75-.7.75-3.25-.15-3.25-.75-3.25-.75.7-.75 3.25zm-14.1 14.5c-.1 3.95 0 5.25.5 5.25.45 0 .6-1.4.6-5.25 0-2.95-.2-5.25-.45-5.25-.3 0-.55 2.35-.65 5.25zm8.35-4.75c-.2.3-.25 1.1-.15 1.85.15 1.25 0 1.35-1.85 1.35-1.55.05-2.1.3-2.6 1.3-.7 1.35-.5 3.7.4 4.85.7.8 2.55.85 3.4 0 .55-.45.7-.45.9 0 .7 1.9 1.15.05 1.15-4.6 0-4.8-.35-6.15-1.25-4.75zm-1.05 3.8c1.15.45 1.1 4.5-.05 5.15-.55.3-1.2.3-1.75 0-1.25-.65-1.25-4.2 0-4.9 1.05-.65.85-.6 1.8-.25zm4.55-2.8c0 .8.15 1.5.35 1.5.5 0 1-1.9.65-2.5-.6-.95-1-.5-1 1zm-41.25-.9c.45 2.55 3 9.7 3.55 9.8.5.1 1.05-1.1 1.9-3.9.65-2.2 1.35-3.9 1.5-3.75.2.1.9 1.9 1.55 3.95.65 2.15 1.45 3.8 1.8 3.8.4 0 1.2-1.8 1.95-4.4.75-2.4 1.4-4.65 1.5-5 .15-.3-.1-.6-.5-.6-.7 0-2.25 4.2-2.25 6.15 0 2-1.3.4-2.25-2.8-.9-3.1-2-4.25-2.5-2.75-.1.35-.7 2.1-1.3 3.85l-1.15 3.2-1.15-3.8c-.8-2.55-1.45-3.85-1.9-3.85-.4 0-.75.05-.75.1zm54 .9c-1.05.8-1.25 1.35-1.25 3.75s.2 3 1.2 3.8c4.75 3.85 10.65-1.05 7.8-6.5-1.15-2.25-5.45-2.8-7.75-1.05zm6 1c1.55 1.55 1.35 4.65-.3 5.95-1.7 1.3-2.7 1.3-4.4 0-2.7-2.15-1.2-6.95 2.2-6.95.85 0 1.95.45 2.5 1zm-44.35 1.6c-1.7 2.1-1 5.65 1.25 6.25 2.95.7 5.55-2.65 4.05-5.25-.55-1.05-1.15-1.4-2.75-1.5-1.25-.1-2.25.1-2.55.5zm3.75.5c.35.35.6 1.3.6 2.15 0 1.8-.75 2.75-2.3 2.75-1.2 0-1.7-.85-1.7-2.95 0-1.5.8-2.55 2-2.55.45 0 1.05.25 1.4.6zm3.85 2.4c0 2.4.2 3.5.6 3.5.35 0 .65-1 .75-2.6.1-2.2.35-2.75 1.3-3.15.6-.25 1.1-.65 1.1-.85 0-.6-1.25-.45-1.95.2-.55.5-.7.5-.9 0-.55-1.45-.9-.35-.9 2.9zm21.1-3.15c-.2.15-.35.85-.35 1.5 0 .85.45 1.35 1.75 1.85 1.85.8 2.3 2 .95 2.5-.4.15-1.2.05-1.75-.2-.65-.35-.95-.35-.95-.05 0 1 2.45 1.2 3.8.3 1.65-1.05 1.35-2.3-.8-3.3-2.25-1.1-2.3-2.25-.15-2.15.9.05 1.5-.1 1.35-.35-.3-.5-3.35-.6-3.85-.1zm20.6.45c-.95 1.15-.8 4 .3 5.2.9 1 2.05 1.25 3.45.7 1.25-.5.95-1.1-.45-.8-1.7.3-2.75-.7-2.75-2.65 0-2 1.05-2.95 2.8-2.55.85.25 1.15.15.95-.2-.5-.8-3.55-.6-4.3.3zm6.9.1c-.5.5-.85 1.65-.85 2.5 0 2.9 3 4.55 5.25 2.95.8-.6.65-.7-1.3-.65-1.9.05-2.2-.1-2.35-1.1s.05-1.1 2.1-1.1c2.05 0 2.3-.1 2.3-1.15 0-.65-.25-1.4-.6-1.75-.9-.9-3.65-.7-4.55.3zm4.05.7c.15.75-.2.9-1.6.9-1.7 0-2.35-.75-1.45-1.7.65-.65 2.9-.05 3.05.8zm3.85-1.1c-.2.3.25.35 1.2.2 1.15-.25 1.55-.1 2.05.75.4.85.4 1.1-.1 1.25-3.3.85-3.65 1.1-3.8 2.45-.2 1.65.9 2.25 2.8 1.4.9-.45 1.4-.45 1.5-.1.45 1.4 1.1.3 1.1-2 0-3.45-.6-4.45-2.75-4.45-.9 0-1.85.2-2 .5zm3.6 3.85c.25.75-2.1 2.35-2.85 1.9-.7-.45-.65-2.1.15-2.45.95-.4 2.5-.1 2.7.55zm3.65-.75c0 1.95.2 3.4.5 3.4s.5-1.2.5-2.7c0-3 .95-4.4 2.4-3.45.6.35.9 1.35 1 3.35.1 1.55.35 2.8.65 2.8s.45-1.35.35-3.4l-.15-3.35h-5.25v3.35zm7.85-3.25c-.7.65-.35 2.7.55 2.95 1.6.5 2.35 1.05 2.5 1.8.2 1-1.25 1.55-2.45.9-.6-.35-.95-.35-.95-.05 0 .7 1.8 1.15 3 .8 1.15-.35 2.2-2.05 1.75-2.75-.2-.3-1.1-.85-2.1-1.25-2.1-.9-1.95-2.05.3-1.95.85.05 1.55-.1 1.55-.35 0-.5-3.65-.6-4.15-.1z"/></symbol><symbol id="icon-surfrider" viewBox="0 0 58 32"><path d="M33.44 2.822c-1.824.205-3.808 1.056-5.472 2.349-2.061 1.606-3.456 3.539-4.531 6.298-.691 1.747-.826 2.534-.493 2.893.256.282.685.205 1.005-.186.058-.07.243-.461.41-.864.442-1.082 1.062-2.278 1.517-2.918.218-.307.685-.851 1.037-1.21 1.344-1.35 2.771-2.208 4.403-2.637.582-.154.768-.173 1.677-.173.928 0 1.075.019 1.6.179 1.869.57 3.162 1.875 3.693 3.718.122.435.147.653.141 1.472s-.032 1.05-.173 1.581c-.365 1.363-1.126 2.618-2.31 3.795-2.202 2.182-4.39 3.008-8.966 3.366-.493.038-3.085.083-5.76.102-5.248.038-5.216.032-5.216.365 0 .077.058.198.134.269.128.115.301.122 4.179.128 5.216.013 7.296-.07 9.331-.365 2.381-.339 4.691-1.094 6.227-2.042 2.656-1.626 4.698-4.141 5.446-6.707 1.555-5.344-2.362-10.022-7.878-9.414z"/><path d="M31.11 9.312c-1.357.307-2.47.947-3.558 2.042-.653.659-1.062 1.242-1.53 2.176-.243.486-.326.736-.346 1.011-.045.589.237.883.704.755.307-.09.563-.365.954-1.043.442-.749 1.414-1.754 2.086-2.15.8-.474 1.28-.608 2.131-.614.704 0 .755.013 1.19.211.538.256 1.024.717 1.267 1.203.602 1.203.198 2.771-1.024 4.032-1.21 1.242-2.854 1.843-5.85 2.138-.371.038-2.24.09-4.16.109-3.008.032-3.501.045-3.597.134-.147.128-.147.224.006.358.115.109.378.109 3.891.083 2.963-.019 3.962-.051 4.691-.134 2.336-.269 4.013-.8 5.146-1.626 1.094-.8 1.83-1.638 2.342-2.669.39-.781.512-1.222.557-2.022.102-1.818-.89-3.302-2.573-3.872-.64-.211-1.69-.269-2.33-.122z"/><path d="M30.72 13.376c-.634.134-1.37.614-1.914 1.242-.499.576-.634 1.011-.39 1.254.256.256.608.141 1.197-.397.429-.39.915-.627 1.286-.627.742 0 1.043.595.678 1.331-.326.666-1.107 1.178-2.182 1.453-1.427.358-2.784.48-5.402.48-1.837 0-2.042.013-2.163.109-.096.083-.115.141-.07.211.051.083.371.096 2.285.09 3.552-.006 5.421-.275 6.925-.998 1.229-.589 2.048-1.882 1.85-2.918-.166-.915-1.069-1.44-2.099-1.229zm-14.016 9.286a1.16 1.16 0 0 0-.582.614c-.179.544.147.954.922 1.171.723.205.902.314.928.557.026.269-.173.403-.582.403-.442 0-.742-.186-.749-.467 0-.09-.058-.109-.32-.109-.301 0-.32.013-.32.16 0 .781 1.235 1.242 2.131.787.333-.166.493-.448.493-.877 0-.474-.237-.71-.896-.896-.768-.224-.909-.288-.966-.435-.038-.102-.013-.186.077-.301.243-.307.877-.186 1.018.192.058.141.096.154.384.147l.326-.013-.038-.198c-.051-.243-.205-.467-.442-.64-.141-.109-.288-.134-.698-.147-.288-.013-.595.013-.685.051zm2.381 1.255c.019 1.139.032 1.293.154 1.491.205.358.595.538 1.171.538.57 0 .928-.147 1.171-.486.141-.205.147-.269.166-1.51l.019-1.293h-.646v1.088c0 1.286-.051 1.478-.416 1.6-.314.102-.634.032-.8-.173-.115-.154-.128-.256-.128-1.338v-1.178h-.717l.026 1.261zm3.251.352v1.619h.608l.064-1.28.506.006c.608 0 .71.09.774.653.07.646.051.621.416.621.307 0 .32-.006.294-.16a6.322 6.322 0 0 1-.07-.544c-.051-.435-.115-.595-.307-.742l-.128-.109.134-.07c.326-.173.442-.826.205-1.203-.218-.358-.39-.403-1.504-.403h-.992v1.613zm1.798-.979c.109.083.147.186.147.358 0 .371-.179.48-.8.48h-.506v-.96h.506c.397 0 .538.026.653.122zm1.466.985v1.619l.32-.006h.32v-1.376h1.344V24H26.24v-.768h1.574l-.006-.288v-.288H25.6v1.619zm2.739-.006.019 1.619h.602l.064-1.28.301-.019c.384-.026.794.083.851.23.032.058.083.32.122.576l.07.474.339.019c.301.019.333.006.301-.096a6.102 6.102 0 0 1-.096-.614c-.045-.435-.077-.525-.237-.666l-.186-.166.154-.115c.179-.134.333-.467.333-.717 0-.256-.192-.602-.41-.736-.173-.102-.333-.122-1.222-.122H28.32l.019 1.613zm1.792-.999c.186.128.198.544.013.73-.109.109-.211.128-.64.128h-.512v-.96h.499c.346 0 .538.032.64.102zm1.421 1.005v1.613l.339-.006.333-.013.019-1.606.013-1.606h-.704v1.619zm1.261-.006.013 1.619.883-.013c1.069-.019 1.338-.122 1.645-.621.173-.269.198-.378.218-.909.026-.544.013-.634-.141-.941-.301-.614-.621-.749-1.792-.749h-.838l.013 1.613zm1.683-.941c.256.134.397.429.429.896.051.71-.256 1.05-.998 1.107l-.454.032v-2.131h.416c.25 0 .499.038.608.096zm1.536.947v1.613l1.171-.006c.64-.006 1.171-.032 1.184-.051.006-.019.013-.147.013-.282v-.237h-1.696v-.832l1.568-.038v-.506h-1.6v-.704h1.715l.026-.288.019-.288h-2.4v1.619zm2.88 0v1.619l.672-.013.019-.659.019-.666.486.032c.576.038.691.134.755.614.096.755.064.698.41.691l.314-.006-.032-.352c-.051-.634-.147-.947-.326-1.082l-.166-.115.141-.077c.326-.173.442-.826.205-1.203-.218-.358-.39-.403-1.504-.403h-.992v1.619zm1.824-.947c.09.083.16.23.16.32s-.07.237-.16.32c-.134.141-.211.16-.634.16h-.474l-.026-.454c-.013-.25-.006-.467.006-.48s.243-.026.499-.026c.416 0 .493.019.627.16zm-21.843 3.366c-.512.256-.774 1.03-.589 1.722.115.422.518.806.922.864.621.096 1.222-.282 1.382-.864.109-.41.045-.966-.154-1.306-.301-.512-.992-.698-1.562-.416zm1.069.295c.288.218.397.506.378 1.018-.019.378-.051.493-.198.685-.416.544-1.267.41-1.51-.23-.109-.282-.083-.877.045-1.133.166-.339.493-.531.838-.493.154.019.352.083.448.154zm17.094-.288c-.589.301-.826 1.222-.486 1.946.179.39.467.589.922.646.883.102 1.523-.749 1.299-1.741-.186-.838-.986-1.229-1.734-.851zm1.062.275c.531.346.538 1.523.006 1.901-.262.192-.736.198-.986.013-.301-.224-.41-.48-.41-.954 0-.493.122-.749.461-.979.25-.173.646-.166.928.019zm-22.15.96v1.312h.147c.134 0 .141-.019.141-.608v-.608h.64c.595 0 .64-.006.64-.128 0-.115-.051-.128-.621-.141l-.627-.019-.019-.435-.019-.429h.71c.659 0 .704-.006.704-.128s-.045-.128-.851-.128h-.851l.006 1.312zm5.421-.307c.026 1.107.077 1.299.416 1.53.262.173.966.166 1.216-.013.346-.256.403-.467.403-1.549v-.973h-.32v.96c0 .73-.026 1.011-.096 1.152-.186.352-.832.403-1.133.083-.141-.147-.147-.211-.166-1.178l-.019-1.018h-.326l.026 1.005zm2.995.307c0 1.261.006 1.312.128 1.312s.128-.051.141-1.075l.019-1.069.704 1.069c.627.96.723 1.075.883 1.075h.173v-2.624h-.32l-.013 1.069-.019 1.069-.691-1.069c-.582-.896-.723-1.069-.851-1.069h-.154v1.312zm2.944 0v1.331l.691-.032c.787-.032 1.011-.122 1.235-.474.109-.186.154-.358.173-.755.019-.448 0-.557-.128-.8-.25-.48-.397-.544-1.242-.576l-.73-.019v1.325zm1.536-.832c.429.41.371 1.427-.096 1.734-.083.058-.358.115-.634.134l-.486.038v-2.15l.512.032c.454.026.538.051.704.211zm1.99-.339-.512 1.293c-.25.627-.454 1.152-.454 1.165s.07.026.154.026c.134 0 .179-.058.307-.416l.147-.416h1.107l.154.416c.122.346.173.416.288.416.083 0 .147-.019.147-.038 0-.032-.397-1.082-.928-2.477-.064-.16-.346-.141-.41.032zm.608 1.28c.032.102-.019.115-.416.115h-.448l.154-.403c.083-.218.186-.486.224-.589l.077-.192.186.48c.102.262.205.531.224.589zm1.012-1.293c0 .115.045.128.403.128h.403v2.368h.32V26.88h.384c.339 0 .384-.013.384-.128 0-.122-.045-.128-.947-.128s-.947.006-.947.128zm2.726 1.184v1.312h.32v-2.624h-.32v1.312zm4.416 0c0 1.267.006 1.312.128 1.312s.128-.045.128-1.056c0-.582.019-1.056.051-1.056.026.006.346.48.717 1.056.602.941.691 1.05.851 1.056h.173v-2.624h-.32l-.013 1.056-.019 1.056-.698-1.056c-.576-.877-.717-1.056-.845-1.056h-.154v1.312z"/></symbol></defs></svg>