<svg aria-hidden="true" style="width:0;height:0;position:absolute;overflow:hidden" xmlns="http://www.w3.org/2000/svg"><defs><symbol id="icon-dolphin" viewBox="0 0 32 32"><path d="M16.469.037c-1.456.15-2.406.356-3.75.819-.9.306-1.069.35-1.662.375-.6.031-.725.019-1.25-.137-.975-.287-1.369-.35-2.119-.35-1.487 0-2.756.45-3.869 1.381-.806.681-1.613 1.831-1.675 2.406-.031.244-.013.294.156.469.225.219.375.231.994.088.313-.075.619-.094 1.175-.069 1.344.05 1.694.275 1.287.813-1.669 2.238-2.55 3.969-3.169 6.225-.269.981-.369 1.55-.313 1.775.05.2.369.419.612.419.1 0 .25-.069.362-.175.156-.144.206-.275.35-.919.313-1.419.9-2.975 1.606-4.25.338-.613 1.112-1.775 1.481-2.219.388-.469.469-.662.469-1.194 0-.419-.019-.506-.188-.781-.369-.594-1.063-.875-2.337-.956l-.656-.038.206-.231c.513-.587 1.581-1.2 2.419-1.4.256-.056.7-.1 1.088-.094.65 0 .725.013 2.063.388.831.231 2.081.131 3.063-.237a15.59 15.59 0 0 1 2.606-.712c.65-.119 1.038-.144 2.081-.144 1.356-.006 1.837.05 2.906.319 2.225.556 3.863 1.631 5.7 3.756.15.175.375.275 1.675.731 1.319.463 1.525.55 1.706.744.169.188.2.275.2.519a.958.958 0 0 1-.125.5c-.231.381-.313.394-2.2.394-2.587 0-4.213.119-5.863.412-.706.125-2.131.494-2.8.719-.594.2-.556.213-.775-.194-.125-.225-.481-.394-.706-.338s-.469.369-.469.606c0 .113.063.3.131.419.644 1.056.85 2.688.494 3.938-.206.713-.65 1.512-1.15 2.044-.394.419-1.194 1.069-1.256 1.012-.012-.012.019-.194.075-.4.056-.238.094-.7.1-1.25.006-.95-.094-1.594-.375-2.494-.219-.706-.719-1.75-.9-1.869-.387-.275-.994.037-.994.506 0 .056.081.281.181.494l.188.387-.481.406a14.415 14.415 0 0 0-2.775 3.131c-1.338 2.037-2.081 4.237-2.3 6.813-.088 1.025-.081 1.394.031 1.762.112.375.494.831.825.988.456.219.669.225 1.956.019.844-.131 1.325-.175 1.569-.15.794.081 1.563.531 1.988 1.169.144.212.256.419.256.456 0 .05-.594.169-1.719.344-2.213.35-2.438.344-3.319-.094-.55-.275-.662-.306-1.025-.306-.331 0-.469.038-.737.181-.35.194-.513.381-.794.9-.244.45-.531.775-.919 1.025-.275.181-3.344 1.613-3.456 1.613-.094 0-.025-1.031.1-1.387.288-.856.731-1.275 2.013-1.887.794-.375.994-.5 1.213-.75.313-.35.456-.744.456-1.231 0-.494-.106-.744-.65-1.563-.862-1.281-1.494-2.669-1.831-4.037-.2-.794-.362-1.031-.719-1.031-.306 0-.481.106-.587.363-.081.194-.075.275.044.794.344 1.475 1.094 3.169 1.988 4.519.769 1.163.737 1.269-.575 1.869-1.263.575-1.894 1.137-2.331 2.063-.331.688-.419 1.131-.387 1.931.044 1.131.375 1.85.85 1.85.163 0 2.238-.906 3.812-1.663.737-.356.881-.456 1.319-.887.281-.275.588-.663.731-.913.344-.613.356-.613.987-.3 1.131.563 1.588.569 4.488.106 2.119-.337 2.144-.344 2.319-.531.194-.219.213-.425.075-.938-.381-1.425-1.613-2.569-3.081-2.85-.637-.119-.938-.106-2.2.094-.694.113-1.144.156-1.231.125-.25-.094-.287-.269-.244-1.081.175-3.094 1.169-5.7 3.031-7.925.581-.694 1.7-1.756 1.769-1.688s.238 1.231.238 1.65c0 .431-.137 1.169-.287 1.55a6.12 6.12 0 0 1-.381.719c-.319.512-.338.706-.088.981.162.181.219.206.488.194.162 0 .575-.106.919-.231 2.938-1.05 4.656-4.006 4.125-7.094-.056-.319-.087-.588-.075-.6.056-.056 1.606-.5 2.313-.656 1.806-.412 3.506-.563 6.5-.563 1.681 0 1.819-.006 2.156-.131.438-.169.906-.594 1.131-1.025.231-.45.269-1.263.081-1.694-.381-.856-.675-1.063-2.431-1.675l-1.331-.463-.756-.794C24.378 1.708 22.297.596 19.628.158c-.569-.094-2.637-.175-3.156-.119z"/><path d="M20.794 5.094c-.313.313-.231.8.156.987.444.219.863-.063.863-.575 0-.5-.663-.769-1.019-.412zM2.181 15.994c-.244.244-.25.556-.006.819.231.262.487.3.756.113.119-.081.244-.225.275-.319.2-.613-.563-1.069-1.025-.613z"/></symbol><symbol id="icon-gull" viewBox="0 0 32 32"><path d="M24.863 3.25c-1.756.319-3.225 1.487-3.581 2.844-.05.206-.094.5-.094.662 0 .388.15 1.219.331 1.844l.144.512-1 .325c-4.038 1.306-7.738 3.394-10.162 5.725-.419.406-.725.637-1.044.8-2 1-3.669 2.481-4.419 3.919l-.181.344-2.256 1.05c-2.325 1.081-2.6 1.244-2.6 1.575 0 .4.5.9 1.281 1.281 1.075.519 2.194.669 4.119.563 1.431-.081 1.975-.05 4.85.25 3.069.325 5.706.319 7.681-.012.394-.069.725-.106.738-.094.019.012.081.794.15 1.738.069.938.156 1.788.194 1.881.137.356.206.363 2.712.344l2.288-.019.15-.175a.644.644 0 0 0 0-.837l-.15-.175-3.887-.038v-.2c0-.113-.044-.806-.094-1.544-.131-1.894-.163-1.675.325-2.188.225-.244.65-.6.931-.788.288-.188.55-.394.587-.462.163-.3.025-.694-.294-.844-.206-.1-.238-.1-.488 0-.575.219-1.681 1.137-2.063 1.706-.163.25-.169.25-.863.381-1.425.262-1.775.288-3.887.281-1.944 0-2.188-.012-4.313-.244-2.056-.219-2.369-.238-3.625-.212-2.5.038-3.013.025-3.612-.125-.3-.069-.625-.169-.719-.219l-.169-.087.531-.244c.294-.137 1.087-.506 1.763-.825l1.237-.575.862.219c1.469.381 2.219.488 3.638.519 2.787.069 4.494-.438 7.688-2.275 1.6-.919 1.769-1.006 2.813-1.425 1.2-.481 1.375-.575 2.031-.994 1.556-1.012 2.206-2.431 1.881-4.1-.212-1.094-.981-2.256-1.863-2.825l-.319-.2.337-.081c.369-.094.681-.363.681-.594 0-.069-.113-.456-.244-.856-.262-.775-.444-1.606-.444-2.031 0-1.037 1.475-2.162 2.969-2.269.881-.056 1.731.231 2.25.769.613.631.6 1.456-.038 2.094-.431.431-.469.669-.181 1.119.837 1.306 1.363 4.388 1.031 6.1-.288 1.512-1.169 3.1-2.369 4.275-.387.375-.512.644-.419.887a.697.697 0 0 0 .613.425c.188 0 .294-.069.719-.488a10.21 10.21 0 0 0 1.85-2.506c.65-1.262.881-2.125.931-3.45.069-1.825-.306-3.906-.95-5.256l-.169-.363.212-.325a3.78 3.78 0 0 0 .294-.537c.05-.106.113-.2.144-.2.094 0 .694.319.913.487.113.088.319.313.456.506s.313.381.387.425c.406.225.919-.088.919-.563 0-.225-.431-.85-.837-1.206-.413-.375-.831-.612-1.406-.813-.394-.138-.419-.156-.538-.444-.413-1.006-1.119-1.631-2.25-1.994-.55-.175-1.575-.25-2.106-.15zm-4.226 7.819c1.5.313 2.606 1.781 2.469 3.281-.075.769-.5 1.412-1.294 1.963-.462.313-.881.525-1.8.887-.981.387-1.606.7-3.094 1.556-1.963 1.131-3.15 1.637-4.537 1.938-.838.181-2.756.231-3.756.1-.713-.094-2.144-.387-2.3-.475-.131-.075.263-.6.981-1.325a10.315 10.315 0 0 1 2.65-1.875c.512-.262.731-.419 1.269-.931 2.106-2 4.962-3.744 8.1-4.938.7-.269.819-.281 1.313-.181z"/><path d="M25.712 5.744c-.406.175-.525.706-.219 1.013.425.425 1.15.05 1.044-.531-.069-.369-.5-.619-.825-.481zM23.706 20.531c-.606.256-.425 1.156.231 1.156.55 0 .825-.6.456-.994-.212-.225-.425-.275-.688-.163z"/></symbol><symbol id="icon-seal" viewBox="0 0 32 32"><path d="M5.969 5.188c-.806.094-1.55.344-2.706.906l-1.087.531h-.512c-.831 0-1.25.213-1.512.775-.163.35-.188.656-.075.981.131.387.762 1.331 1.131 1.7.556.544 1.444.919 2.169.919.206 0 .25.025.25.119 0 .063-.1 1.137-.225 2.387-.244 2.438-.256 3.494-.063 4.45.075.4.075.425-.038.488-.212.113-.625.512-.775.75-.281.456-.35.856-.306 1.794.056 1.025.081.975-.837 1.631-.344.244-.669.506-.725.581-.119.175-.125.544 0 .712.162.244 1 .837 1.413 1 .575.244 1.494.281 2.1.094.463-.137 1.35-.669 1.412-.85.081-.2.044-.45-.081-.563-.2-.181-.438-.137-.85.137a3.72 3.72 0 0 1-.669.356c-.331.113-1.019.131-1.356.038-.256-.069-.887-.438-.919-.531-.006-.038.131-.163.306-.281.556-.381.9-.731 1.05-1.075.131-.306.138-.381.094-1.212-.038-.806-.031-.919.081-1.163a1.56 1.56 0 0 1 .275-.413l.156-.144.112.3c.4 1.075 1.194 2.35 1.988 3.188.556.581.731.65 1.013.363.25-.244.206-.425-.244-.9-.938-1-1.731-2.35-2.063-3.531-.419-1.456-.431-2.288-.1-5.644.206-2.019.213-2.075.356-2.137.338-.156.319-.675-.031-.813-.094-.031-.531-.069-.981-.081-.737-.019-.85-.037-1.188-.194a2.765 2.765 0 0 1-.575-.369l-.2-.194.256-.287c.306-.35.587-.9.675-1.306l.069-.294.675-.356c1.344-.706 2.175-.95 3.256-.95.362 0 .862.037 1.119.081.431.075.469.075.625-.037.238-.181.256-.525.037-.694-.287-.225-1.588-.362-2.5-.263zM1.75 7.625c0 .1-.225.512-.394.719l-.156.181-.131-.213c-.262-.431-.094-.75.4-.75.156 0 .281.031.281.063zM9.887 6.156c-.213.094-.3.3-.238.55.019.088.181.244.394.388.781.513 1.594 1.431 2.012 2.262.394.787.5 1.256.762 3.331.194 1.544.269 2 .363 2.125.075.106.8.475 2.356 1.194 2.669 1.225 3.6 1.7 4.794 2.413 1.444.869 3 1.969 4.156 2.944.481.406.663.488.913.425.087-.019.975-.675 1.988-1.456 2.012-1.556 2.137-1.644 2.35-1.644.194 0 .481.156.6.325.137.2.125.625-.019.813-.069.081-.644.456-1.288.825-.637.375-1.188.725-1.219.788a.527.527 0 0 0 .094.625c.15.144.225.156 1.394.219.675.038 1.288.1 1.356.137a.737.737 0 0 1 .025 1.294c-.15.087-.275.1-.769.063-.544-.038-.594-.031-.719.094a.443.443 0 0 0 .113.719c.238.125 1.119.188 1.425.106a1.8 1.8 0 0 0 1.044-.819c.169-.3.194-.406.194-.813-.006-.569-.137-.863-.563-1.238-.35-.306-.544-.375-1.194-.438l-.494-.044.456-.269c.619-.369.881-.613 1.05-.981.65-1.394-.856-2.85-2.212-2.137-.144.075-1.038.738-1.988 1.469-.944.738-1.756 1.325-1.794 1.306-.044-.019-.4-.288-.794-.6a33.198 33.198 0 0 0-4.5-3.019c-1.081-.6-1.481-.806-2.988-1.494-2.6-1.194-3.012-1.394-3.012-1.456 0-.45-.463-3.625-.594-4.056-.419-1.444-1.356-2.781-2.544-3.625-.531-.381-.662-.425-.912-.325z"/><path d="M4.625 7.237c-.206.213-.237.419-.094.694.144.288.412.337.681.125.131-.1.162-.181.162-.4 0-.306-.138-.506-.388-.569-.138-.031-.206 0-.362.15zM10.037 19.137c-.931.125-1.719.794-2.031 1.725-.188.544-.188 2.081-.006 2.788.162.631.519 1.3.906 1.706.35.363.488.4.744.2.25-.194.219-.469-.088-.844-.575-.694-.75-1.281-.75-2.525 0-.744.025-.95.119-1.156.4-.881 1.363-1.238 2.213-.819.625.3.844.694.988 1.75.081.631.15.831.412 1.194.262.356.631.531 2.144 1 .738.225 1.387.425 1.438.444.137.05-.8.631-1.4.869a7.166 7.166 0 0 1-1.006.313c-.613.131-1.725.15-2.3.038-.375-.075-.438-.069-.575.019-.325.212-.256.663.119.819.113.05.506.119.875.156 1.287.131 2.619-.131 3.831-.744.444-.225 1.3-.825 1.538-1.075.206-.225.225-.556.05-.85-.131-.206-.275-.262-3.019-1.113-.613-.188-.756-.256-.919-.438-.1-.119-.2-.306-.219-.419s-.063-.413-.1-.656c-.088-.606-.269-1.081-.563-1.45-.569-.719-1.444-1.063-2.4-.931zM22.156 23.756c-1.956.269-3.569.488-3.575.488l-.144.144c-.269.288-.044.738.363.738.125 0 1.75-.206 3.606-.456 3.325-.45 3.375-.456 3.969-.381 1.4.175 1.294.175 1.469 0 .2-.2.206-.469.019-.644-.119-.106-.313-.15-.988-.231-.462-.056-.913-.113-1-.125-.087-.006-1.756.2-3.719.469z"/></symbol><symbol id="icon-turtle" viewBox="0 0 32 32"><path d="M9.8.069C8.581.244 7.35.794 6.144 1.7c-.7.519-1.944 1.775-2.094 2.1-.219.494-.013.994.519 1.269.9.456 2.313.869 3.431.994.938.112 2.894.05 3.838-.119.412-.075.769-.112.787-.088.05.056.188.531.188.638 0 .037-.125.125-.287.194-.731.313-1.756 1.025-2.569 1.781-1.3 1.2-2.362 2.9-2.969 4.775-.15.45-.3.819-.338.819s-.444-.113-.906-.256c-1.331-.406-2.094-.4-2.944.019-.55.269-1.669 1.394-2.075 2.081-.694 1.188-.881 2.356-.569 3.563.219.869 1.219 2.469 1.738 2.781.219.137.569.163.837.056.094-.031.938-.825 1.869-1.75l1.688-1.688.131.8c.313 1.894 1.088 3.5 2.094 4.338.981.819 2.406 1.394 4.037 1.625l.525.075-1.656 1.663c-.912.913-1.7 1.75-1.756 1.863-.219.438-.088.863.406 1.281.756.637 1.656 1.137 2.431 1.344.625.169 1.713.15 2.313-.031 1-.313 2.081-1.038 2.781-1.869.925-1.081 1.056-2.025.538-3.725-.15-.475-.25-.881-.238-.9.019-.012.394-.15.837-.3 1.45-.481 2.994-1.3 3.144-1.65a.452.452 0 0 0-.269-.6c-.15-.05-.225-.031-.438.087-1.306.744-2.225 1.15-3.262 1.444-2.775.775-5.725.631-7.75-.375-1.044-.519-1.6-1.075-2.094-2.094-.894-1.831-1.106-4.275-.594-6.819a11.336 11.336 0 0 1 1.031-2.994c.531-1.069 1.1-1.875 1.844-2.625 2.806-2.831 6.1-3.219 9.438-1.125 1.706 1.075 3.456 2.95 4.337 4.65 1.569 3.037 1.181 5.756-1.188 8.394-.356.394-.431.512-.431.694 0 .269.163.419.456.419.2 0 .269-.05.669-.488.6-.656 1.188-1.488 1.544-2.188.163-.313.319-.575.35-.575.1 0 .569.144.625.188.025.025-.006.363-.081.756-.438 2.469-.175 5.044.719 6.981.269.575.475.806.794.894.456.119.675 0 1.506-.806 1.525-1.494 2.438-3.038 2.806-4.731.113-.531.094-2.012-.031-2.575a7.935 7.935 0 0 0-1.188-2.756c-.531-.806-.988-1.306-1.281-1.387-.131-.031-.938-.063-1.825-.063h-1.6l-.075-.519c-.144-.925-.706-2.406-1.238-3.238l-.144-.238.219-.188c.194-.175.256-.194.644-.194 1.262 0 2.613-.713 3.456-1.819 1.25-1.65 1.425-3.737.494-5.931-.262-.612-.369-.706-1.181-1-.863-.313-1.569-.45-2.387-.45-1.369 0-2.337.337-3.413 1.2-.956.763-1.65 2.144-1.65 3.294 0 .4-.094.675-.275.831-.087.063-.137.056-.337-.081-.781-.513-2.313-1.1-3.244-1.237l-.519-.075v-1.6c0-.9-.031-1.7-.063-1.831C16.08 2.007 14.186.75 12.786.319c-.925-.287-2.088-.381-2.987-.25zm2.381 1.062c.988.25 1.925.731 2.775 1.413l.419.337v3.113l-.356.037c-.2.019-.556.075-.8.125-.238.044-.456.063-.481.037-.019-.019-.1-.263-.175-.531-.262-.944-.319-.981-1.194-.787a12.12 12.12 0 0 1-2.894.313c-1.563 0-2.706-.206-3.881-.694-.794-.331-.8-.256.094-1.138C7.05 2.025 8.313 1.3 9.744 1.031c.65-.125 1.756-.081 2.438.1zm14.694 2.038c.256.05.688.175.962.281.481.188.488.194.644.544.087.194.225.619.313.944.194.75.219 1.819.056 2.431-.45 1.719-1.956 3.006-3.519 3.006-.462 0-.894.125-1.175.338l-.206.162-.269-.331c-.425-.519-1.544-1.644-2.069-2.081l-.481-.406.188-.269c.212-.3.3-.612.306-1.081.006-1.15.681-2.294 1.788-3.019.956-.625 2.075-.794 3.462-.519zM5.506 14.725c.531.156.969.287.975.3.006.006-.025.275-.075.6s-.106.9-.131 1.281l-.037.688-1.919 1.919c-1.05 1.063-1.931 1.925-1.956 1.925-.094 0-.806-1.031-1.006-1.456-.313-.669-.387-1-.381-1.7.006-1.038.388-1.875 1.263-2.794.563-.588.725-.713 1.194-.9.544-.225.95-.2 2.075.137zm23.857 2.194c.369.45.719.994 1 1.55 1.1 2.206.875 4.469-.663 6.619-.363.506-1.563 1.806-1.769 1.919-.1.05-.144.006-.3-.3-.881-1.762-1.087-4.644-.5-7.144.188-.8.15-.856-.788-1.125-.275-.081-.519-.163-.544-.181s-.006-.194.044-.394c.044-.194.1-.55.125-.794l.044-.444h3.1l.25.294zm-12.425 8.6c0 .012.131.444.288.956.262.85.281.975.256 1.431-.031.6-.169.931-.613 1.438-.663.756-1.444 1.306-2.213 1.55-.338.106-.581.137-1.063.131-.619 0-.931-.063-1.5-.306-.262-.113-1.137-.675-1.419-.919l-.175-.144 3.906-3.894.719-.044a15.354 15.354 0 0 0 1.769-.212c.025 0 .044.006.044.012z"/><path d="M24.844 4c-.587.156-.738.338-.594.713.106.287.3.325.919.169.3-.075.6-.188.663-.237.144-.138.137-.487-.019-.644s-.381-.15-.969 0zM27.363 6.169c-.056.056-.169.362-.244.681-.131.544-.137.588-.038.737a.454.454 0 0 0 .6.156c.188-.106.369-.581.425-1.094.031-.269.012-.344-.1-.456-.163-.162-.5-.175-.644-.025zM14.706 7.963c-1.475.281-2.819 1.113-4.075 2.506-1.613 1.794-2.606 4.825-2.488 7.594.094 2.075.619 3.606 1.544 4.456 1.688 1.563 5.894 1.8 9.075.519 1.363-.55 2.337-1.188 3.269-2.137.925-.944 1.544-1.95 1.881-3.056.15-.5.169-.663.169-1.438 0-1.044-.156-1.738-.606-2.688-1.081-2.287-3.45-4.544-5.675-5.406-.938-.362-2.244-.513-3.094-.35zm1.8.956c.056.056-.644 2.5-.738 2.581-.025.031-.669.231-1.425.456l-1.375.406-.738-.731-.738-.725.469-.444c.931-.887 1.975-1.431 3.069-1.613.269-.037 1.419.012 1.475.069zm1.563.55c1.438.719 2.938 2.069 3.938 3.55.344.512.844 1.463.8 1.512-.012.006-.594.188-1.281.387l-1.262.369-.844-.831c-.85-.838-.962-.906-1.262-.794-.163.063-.281.394-.206.588.031.088.406.512.837.944l.781.787-.406 1.394c-.231.769-.425 1.413-.444 1.425-.038.044-2.675.819-2.781.825-.1 0-3.563-3.425-3.563-3.531 0-.156.775-2.7.844-2.775.05-.05.694-.262 1.444-.488l1.362-.394.281.275c.156.15.35.306.425.344.3.15.644-.088.644-.45 0-.125-.087-.269-.313-.506-.169-.181-.313-.356-.313-.387-.006-.075.712-2.525.738-2.525.006 0 .275.125.581.281zM12.25 13.05c0 .156-.769 2.731-.838 2.8-.037.044-.531.206-1.1.369s-1.069.313-1.119.331c-.069.025-.075-.038-.037-.306.194-1.525.781-3.181 1.519-4.287l.225-.338.675.675c.369.369.675.713.675.756zm10.919 3.05c.087 1.35-.5 2.775-1.637 3.95l-.438.456-1.45-1.475.413-1.387c.225-.762.431-1.4.45-1.425.081-.081 2.525-.769 2.575-.719.025.025.069.294.087.6zm-9.719 2.444c.956.956 1.738 1.762 1.738 1.8s-.162.625-.369 1.313l-.363 1.25-.275.019c-.588.044-1.894-.163-2.637-.419-.95-.331-1.463-.756-1.831-1.525-.356-.75-.65-2.175-.65-3.131v-.281l.456-.137c.244-.075.8-.238 1.231-.369s.825-.238.875-.244c.05-.006.875.775 1.825 1.725zm6.262 1.887.681.681-.337.219c-1.038.663-2.462 1.2-3.762 1.431-.438.075-.806.125-.819.106-.031-.031.606-2.219.662-2.281.05-.05 2.669-.831 2.8-.831.056-.006.4.3.775.675z"/></symbol><symbol id="icon-wave" viewBox="0 0 32 32"><path d="M14.6 6.694c-3.275.344-5.994 1.969-7.463 4.463-.675 1.15-1.013 2.475-1.013 4 0 1.094-.313 1.9-1 2.594-.737.744-1.538 1.038-2.688.981-.5-.019-.769-.069-1.125-.194-.831-.3-1.056-.294-1.225.038-.081.163-.1.313-.069.744.163 2.494 1.994 4.55 4.469 5.031.563.106 1.544.113 2.05.012.2-.038.694-.069 1.087-.069.813.006 1.281.125 2.281.569.925.406 1.294.481 2.438.475 1.162 0 1.544-.081 2.569-.544.919-.413 1.3-.5 2.181-.5.9 0 1.256.081 2.256.525s1.688.575 2.744.538c.944-.038 1.488-.163 2.325-.538.85-.387 1.425-.519 2.238-.519.837-.006 1.281.1 2.275.525.806.35 1.631.55 2.275.55.394 0 .444-.012.619-.194l.194-.188-.044-.644c-.194-3.012-1.494-5.438-3.356-6.281-.644-.288-1.169-.394-2.019-.394-.931 0-1.594.144-2.456.538-1 .456-1.231.506-2.3.506-.887 0-.969-.012-1.481-.194-1.956-.7-3.113-2.144-3.219-4.025-.038-.719.044-1.219.294-1.731.337-.688 1.063-1.206 1.681-1.206.3 0 .9.344 1.238.706.175.194.394.369.488.394.719.181 1.375-1.406 1.069-2.594-.256-1-1.081-1.931-2.288-2.594-.581-.313-1.606-.638-2.381-.75-.706-.106-1.825-.119-2.644-.031zm2.856 1.187c1.488.3 2.75 1.113 3.231 2.075.15.3.188.456.188.775 0 .213-.012.394-.025.394s-.181-.1-.381-.219c-.669-.4-.856-.438-2.25-.438-1.344 0-2.006.075-2.956.319-2.35.613-3.731 2.05-4.019 4.188-.3 2.256 1.031 4.375 3.544 5.637.887.444 2.331.887 2.9.887.444 0 .669-.587.35-.906a.809.809 0 0 0-.387-.188c-.981-.169-2.175-.613-3.006-1.125-.637-.4-1.55-1.306-1.856-1.85-.869-1.569-.506-3.569.869-4.863.694-.644 1.762-1.075 2.919-1.169l.5-.044-.231.3c-.594.781-.806 1.481-.8 2.625.006.969.131 1.525.544 2.375.55 1.144 1.387 1.962 2.625 2.563 1.038.506 1.488.613 2.663.613 1.131 0 1.575-.094 2.556-.544.775-.356 1.212-.475 1.944-.512 2.488-.15 3.962 1.581 4.469 5.213l.038.275-.269-.044c-.375-.063-.863-.231-1.519-.519-.906-.394-1.35-.481-2.469-.481-1.113.006-1.506.087-2.606.569-.85.369-1.281.462-2.144.462-.875 0-1.331-.1-2.137-.469-1.05-.481-1.419-.563-2.644-.563-1.231 0-1.481.056-2.569.538-.906.4-1.331.494-2.219.494-.9 0-1.444-.131-2.25-.531-1.175-.587-2-1.212-2.394-1.813-.287-.425-.406-.756-.475-1.313-.044-.356-.088-.462-.219-.575-.362-.313-.906-.031-.906.462.006.712.388 1.719.888 2.337l.281.344-.85.113c-.713.094-.931.1-1.375.038-1.5-.206-2.813-1.119-3.431-2.387-.25-.519-.444-1.137-.375-1.212.025-.019.206 0 .406.044.538.119 1.775.106 2.269-.025a4.506 4.506 0 0 0 2.881-2.387c.356-.738.438-1.106.494-2.375.056-1.375.181-1.912.656-2.875 1.075-2.188 3.225-3.694 5.969-4.181.744-.131.844-.144 1.956-.15.787-.013 1.125.013 1.625.119z"/><path d="M12.356 9.5c-.331.262-.25.775.144.938s.813-.206.719-.637c-.05-.219-.306-.425-.531-.425a.634.634 0 0 0-.331.125zM10.025 11.025c-1.106 1.125-1.631 2.287-1.669 3.688-.012.531-.006.55.162.7.238.2.563.2.762-.006.131-.125.156-.213.156-.494 0-.512.162-1.262.369-1.7.256-.544.5-.887 1.075-1.5.55-.581.594-.713.331-1.019-.131-.156-.206-.194-.412-.194-.238 0-.294.037-.775.525zM20.594 13.969a.53.53 0 0 0 .375.906.516.516 0 0 0 .531-.531.53.53 0 0 0-.906-.375zM22.806 16.181c-.225.231-.238.494-.031.731.387.456 1.119-.012.887-.569-.163-.387-.556-.463-.856-.163zM1.281 16.719a.53.53 0 0 0 .375.906c.306 0 .531-.225.531-.531s-.225-.531-.531-.531a.483.483 0 0 0-.375.156z"/></symbol><symbol id="icon-whale" viewBox="0 0 32 32"><path d="M15.375.688c-1.444.306-2.519.881-3.419 1.831-.419.444-.981 1.281-1.056 1.581-.037.15-.244.213-.688.213-.463 0-1.637.188-2.375.375C3.762 5.738.925 8.769.175 12.869c-.106.575-.131.981-.138 1.975 0 1.125.019 1.325.169 2.05a13.919 13.919 0 0 0 4.763 7.794c1.337 1.094 3.15 2.069 4.906 2.65.563.188 1.037.375 1.05.413.037.1-.275 1.069-.563 1.75-.213.5-.244.637-.225.919.031.381.262.725.619.913.306.163 1.644.113 2.556-.1 1.819-.425 3.794-1.462 5.437-2.856l.344-.288.913-.137c3.706-.563 6.863-2.087 9.087-4.394.694-.719.988-1.087 1.55-1.931.494-.75.956-1.675 1.2-2.406.144-.419.169-.569.137-.944-.113-1.556-1.45-2.313-4.794-2.719-.413-.056-3.469-.088-10.063-.113-8.544-.037-9.494-.05-9.725-.144-1.088-.431-1.644-1.006-1.925-1.988-.313-1.125-.1-2.369.594-3.406.85-1.262 2.619-2.237 4.344-2.388l.438-.037.106.281c.319.825 1.363 1.975 2.262 2.481a7.308 7.308 0 0 0 3.063.925c.431.031.544.012.762-.094.375-.194.55-.512.538-.988-.012-.506-.275-1.644-.519-2.25-.238-.6-.644-1.263-1.025-1.675l-.281-.306.369-.4c.656-.719 1.15-1.85 1.381-3.2.087-.544.106-.762.056-.944a1.042 1.042 0 0 0-.5-.656c-.244-.125-1.019-.113-1.688.031zm1.1 1.274c-.063.538-.331 1.406-.613 1.969-.269.531-.7 1.038-1.287 1.494-.219.175-.262.244-.262.431 0 .181.044.263.231.419.744.631 1.069 1.019 1.35 1.606.294.606.519 1.331.587 1.925l.038.331-.4-.044c-2.063-.238-3.581-1.313-4.313-3.056-.269-.65-.356-.688-1.3-.6-2.588.244-4.769 1.594-5.7 3.531-.381.781-.506 1.363-.513 2.281 0 .537.031.919.106 1.219.356 1.456 1.4 2.494 2.944 2.919l.5.137 9.75.038c9.681.044 9.756.044 10.469.175 1.337.256 2.269.587 2.556.919.206.238.344.606.306.844l-.019.156-2.688.031c-2.575.031-2.7.038-3.05.169-.781.294-1.238.65-1.788 1.394-1.025 1.387-2.431 2.4-4.406 3.156-.6.231-.625.238-.938.156-.431-.113-3.731-.163-4.431-.069-1.363.188-2.206 1.063-2.369 2.462-.063.512-.088.606-.181.606-.156 0-1.3-.381-1.963-.656-3.188-1.313-5.781-3.825-7.1-6.894-.938-2.163-1.15-4.238-.675-6.444.444-2.044 1.587-3.894 3.144-5.088.65-.506.894-.656 1.575-1 1.344-.675 2.8-1.031 4.65-1.138.406-.025.769-.081.825-.119.063-.044.2-.306.319-.581.519-1.231 1.412-2.094 2.694-2.606.506-.206 1.338-.4 1.719-.406l.275-.006-.044.337zm13.956 17.925c-.038.081-.238.431-.444.781l-.375.631-1.606.025c-1.587.019-1.6.019-1.962.188-.225.106-.587.381-.975.744-.344.313-.856.744-1.144.944-.706.512-2.038 1.156-3.094 1.506-.863.288-1.144.35-1.144.238 0-.025-.069-.156-.156-.288-.094-.125-.156-.244-.144-.25.012-.012.231-.106.488-.212 1.788-.756 3.219-1.825 4.262-3.175.531-.688.863-.962 1.381-1.15.294-.106.544-.113 2.656-.119h2.331l-.075.137zm-1.743 2.544c0 .094-1.194 1.206-1.712 1.594-1.419 1.063-3.019 1.85-4.85 2.369-.8.231-2.169.525-2.212.475-.012-.012.006-.194.038-.4l.063-.375 1.031-.331c1.225-.4 2.706-1.125 3.55-1.731.306-.219.825-.644 1.144-.944.325-.3.688-.581.813-.625.262-.094 2.137-.125 2.137-.031zm-10.769 2.225c.6.25.975.8.981 1.438.006.544-.188.894-.806 1.425-1.9 1.644-4.294 2.731-6.231 2.837-.4.025-.675.012-.675-.019s.094-.288.213-.569a11.53 11.53 0 0 0 .856-3.363c.106-1.012.306-1.394.887-1.688l.319-.156h2.113c1.756 0 2.156.019 2.344.094z"/><path d="M21.625 18.206a.505.505 0 0 0-.081.856c.125.1.256.125.606.125.456-.006.587-.056.712-.294.119-.219.087-.394-.106-.587-.163-.163-.225-.181-.581-.181-.219 0-.462.038-.55.081z"/></symbol></defs></svg>