<svg aria-hidden="true" style="width:0;height:0;position:absolute" xmlns="http://www.w3.org/2000/svg" overflow="hidden"><defs><symbol id="icon-face" viewBox="0 0 32 32"><path d="M21.329 5.313h2.921V.225C23.746.156 22.013 0 19.994 0c-4.212 0-7.097 2.649-7.097 7.519V12H8.249v5.688h4.648V32h5.699V17.689h4.46l.708-5.688h-5.169V8.082c.001-1.644.444-2.769 2.735-2.769z"/></symbol><symbol id="icon-insta" viewBox="0 0 32 32"><path d="M31.969 9.408c-.075-1.7-.35-2.869-.744-3.882a7.806 7.806 0 0 0-1.851-2.838A7.867 7.867 0 0 0 26.542.844C25.523.45 24.36.175 22.66.1 20.947.019 20.403 0 16.059 0s-4.888.019-6.595.094c-1.7.075-2.869.35-3.882.744a7.803 7.803 0 0 0-2.838 1.85A7.867 7.867 0 0 0 .9 5.52C.506 6.539.231 7.702.156 9.402c-.081 1.713-.1 2.257-.1 6.601s.019 4.888.094 6.595c.075 1.7.35 2.869.744 3.882a7.895 7.895 0 0 0 1.85 2.838 7.867 7.867 0 0 0 2.832 1.844c1.019.394 2.182.669 3.882.744 1.706.075 2.25.094 6.595.094s4.888-.019 6.595-.094c1.7-.075 2.869-.35 3.882-.744a8.184 8.184 0 0 0 4.682-4.682c.394-1.019.669-2.182.744-3.882.075-1.707.094-2.251.094-6.595s-.006-4.888-.081-6.595zm-2.882 13.065c-.069 1.563-.331 2.407-.55 2.969a5.31 5.31 0 0 1-3.038 3.038c-.563.219-1.413.481-2.969.55-1.688.075-2.194.094-6.464.094s-4.782-.019-6.464-.094c-1.563-.069-2.407-.331-2.969-.55a4.926 4.926 0 0 1-1.838-1.194 4.974 4.974 0 0 1-1.194-1.838c-.219-.563-.481-1.413-.55-2.969-.075-1.688-.094-2.194-.094-6.464s.019-4.782.094-6.464c.069-1.563.331-2.407.55-2.969a4.868 4.868 0 0 1 1.2-1.838A4.974 4.974 0 0 1 6.639 3.55c.563-.219 1.413-.481 2.969-.55 1.688-.075 2.194-.094 6.464-.094 4.276 0 4.782.019 6.464.094 1.563.069 2.407.331 2.969.55a4.914 4.914 0 0 1 1.838 1.194 4.974 4.974 0 0 1 1.194 1.838c.219.563.481 1.413.55 2.969.075 1.688.094 2.194.094 6.464s-.019 4.77-.094 6.458z"/><path d="M16.059 7.783c-4.538 0-8.22 3.682-8.22 8.22s3.682 8.22 8.22 8.22 8.22-3.682 8.22-8.22-3.682-8.22-8.22-8.22zm0 13.553a5.333 5.333 0 0 1 0-10.664 5.333 5.333 0 0 1 0 10.664zM26.524 7.458a1.919 1.919 0 1 1-3.838 0 1.919 1.919 0 0 1 3.838 0z"/></symbol><symbol id="icon-lkdl" viewBox="0 0 32 32"><path d="M31.992 32v-.001H32V20.263c0-5.741-1.236-10.164-7.948-10.164-3.227 0-5.392 1.771-6.276 3.449h-.093v-2.913h-6.364v21.364h6.627V21.42c0-2.785.528-5.479 3.977-5.479 3.399 0 3.449 3.179 3.449 5.657v10.401h6.62zM.528 10.636h6.635V32H.528V10.636zM3.843 0C1.722 0 0 1.721 0 3.843s1.721 3.879 3.843 3.879c2.121 0 3.843-1.757 3.843-3.879A3.846 3.846 0 0 0 3.843 0z"/></symbol><symbol id="icon-twit" viewBox="0 0 32 32"><path d="M32 6.078c-1.19.522-2.458.868-3.78 1.036a6.523 6.523 0 0 0 2.886-3.626 13.11 13.11 0 0 1-4.16 1.588A6.574 6.574 0 0 0 22.154 3c-3.632 0-6.556 2.948-6.556 6.562 0 .52.044 1.02.152 1.496-5.454-.266-10.28-2.88-13.522-6.862a6.605 6.605 0 0 0-.898 3.316 6.57 6.57 0 0 0 2.914 5.452 6.479 6.479 0 0 1-2.964-.808v.072c0 3.188 2.274 5.836 5.256 6.446a6.548 6.548 0 0 1-1.72.216 5.8 5.8 0 0 1-1.242-.112c.85 2.598 3.262 4.508 6.13 4.57a13.182 13.182 0 0 1-8.134 2.798c-.538 0-1.054-.024-1.57-.09A18.469 18.469 0 0 0 10.064 29c12.072 0 18.672-10 18.672-18.668 0-.29-.01-.57-.024-.848A13.087 13.087 0 0 0 32 6.078z"/></symbol><symbol id="icon-logo" viewBox="0 0 38 32"><path d="m21.774 9.64-.716-.571a.53.53 0 0 0-.766.08l-9.915 11.897.153.177 2.456-2.366c-.082-.034-.15-.098-.191-.179s-.055-.175-.038-.265c.018-.09.065-.171.134-.229a.37.37 0 0 1 .464-.011.385.385 0 0 1 .134.198l3.238-3.137a.27.27 0 0 1 .35 0l.164.126a.266.266 0 0 0 .367-.045l4.233-4.96a.489.489 0 0 0 .065-.564.467.467 0 0 0-.13-.149z"/><path d="M26.433 12.989a21.696 21.696 0 0 1-7.175 3.514 37.324 37.324 0 0 1-7.804 1.211c.053.406.148.804.284 1.189 1.488 1.406 12.688-.994 14.875-3.771.465-.577-.18-2.143-.18-2.143zm-13.3 5.868c-.074 0-.146-.023-.207-.066s-.109-.103-.137-.174a.399.399 0 0 1 .081-.423.36.36 0 0 1 .572.059.4.4 0 0 1 .063.216.387.387 0 0 1-.228.361.35.35 0 0 1-.143.028zM2.552 12.166l.087-.394 1.422.337c.117.226.19.475.213.731a2.54 2.54 0 0 1-.049.811 2.187 2.187 0 0 1-.47.994 1.87 1.87 0 0 1-1.876.611 1.883 1.883 0 0 1-.913-.503 1.909 1.909 0 0 1-.52-.897 2.259 2.259 0 0 1 0-1.143c.059-.28.164-.547.312-.789.14-.22.327-.402.547-.531l.197.314c-.188.121-.35.282-.475.473s-.209.408-.247.635c-.068.296-.062.604.016.897.073.278.219.529.421.726.207.21.467.354.749.417.274.08.563.08.837 0 .262-.09.498-.25.684-.463.191-.23.323-.507.383-.806.09-.362.067-.744-.066-1.091l-1.252-.331zM5.647 8.571l-1.274 1.777.547 1.023-.252.354-2.023-3.857.235-.337 4.118.926-.257.354-1.094-.24zm-.361-.091-2.188-.514 1.094 2.051L5.286 8.48zM5.286 4.886l.328-.257 2.084 2.914L9.415 6.2l.208.291-2.04 1.594-2.297-3.2zM8.731 2.503l.366-.171 1.444 3.303 1.952-.926.142.331-2.319 1.103-1.586-3.64zM15.939 3.817l.082.36-2.636.646L12.51.926l2.559-.623.077.354-2.188.531.312 1.383 1.925-.474.082.354-1.93.469.328 1.446 2.264-.549zM19.696 3.96l-.913-1.257a2.603 2.603 0 0 1-.306 0l-1.028.034.038 1.269h-.405l-.126-4L18.411 0a1.67 1.67 0 0 1 1.159.326c.142.119.256.271.334.443s.117.361.115.551c.016.282-.055.563-.202.8a1.278 1.278 0 0 1-.634.486l.957 1.337-.443.017zm-.383-1.88c.098-.094.175-.211.223-.34s.067-.269.056-.408c.003-.139-.025-.278-.081-.405S19.372.689 19.269.6a1.284 1.284 0 0 0-.859-.234l-1.039.04.066 2 1.017-.034c.31.012.614-.091.859-.291zM22.589 2.897l-.197 1.366-.399-.063.202-1.343L21.063 0l.427.069.968 2.434L24.099.486l.383.086-1.892 2.326zM27.997 2.657l.476.646-.208.171-.476-.663-.301.749-.23-.103.306-.749-.788.109v-.274l.777-.091-.481-.646.213-.171.421.651.295-.754.235.103-.279.766.788-.114v.28l-.749.091zM29.824 7.263a1.625 1.625 0 0 1-.235-.691l.323-.149c.024.226.095.445.208.64.122.219.282.412.47.571.195.195.444.321.711.36.097.009.194-.006.283-.045s.169-.1.231-.178a.53.53 0 0 0 .126-.389 1.092 1.092 0 0 0-.131-.394 6.105 6.105 0 0 0-.334-.509 5.147 5.147 0 0 1-.394-.629 1.181 1.181 0 0 1-.142-.537c0-.212.076-.416.213-.571a.996.996 0 0 1 .454-.326c.198-.06.409-.06.607 0 .255.087.492.227.694.411.168.146.317.315.443.503.116.174.203.367.257.571l-.312.171a2.013 2.013 0 0 0-.241-.537 2.017 2.017 0 0 0-.366-.394 1.195 1.195 0 0 0-.705-.349c-.098-.009-.196.008-.285.049s-.168.104-.229.185c-.047.051-.082.113-.104.18s-.029.138-.022.209a.967.967 0 0 0 .131.406c.077.131.186.303.334.509.146.195.278.401.394.617.091.164.142.348.148.537a.863.863 0 0 1-.213.571.976.976 0 0 1-.459.326 1.014 1.014 0 0 1-.607 0 2.018 2.018 0 0 1-.7-.411 2.583 2.583 0 0 1-.547-.709zM35.326 8.097l-.771-1.143.284-.211 1.777 2.651-.284.211-.771-1.143-2.855 2.086-.23-.349 2.849-2.103zM34.101 12.794c.098-.345.287-.655.547-.891.254-.238.563-.401.897-.474.34-.082.695-.068 1.028.04.322.111.61.308.837.571.236.283.396.626.465.994.091.361.091.741 0 1.103a1.998 1.998 0 0 1-1.467 1.382 1.946 1.946 0 0 1-1.032-.046 1.837 1.837 0 0 1-.837-.571 2.191 2.191 0 0 1-.465-.989 2.295 2.295 0 0 1 .027-1.12zm.716 1.817c.183.217.419.377.684.463.273.083.561.092.838.028s.534-.199.748-.394c.202-.194.351-.441.432-.714.076-.289.084-.593.022-.886s-.191-.565-.377-.794a1.558 1.558 0 0 0-.705-.463 1.563 1.563 0 0 0-.842 0 1.49 1.49 0 0 0-.744.394 1.607 1.607 0 0 0-.432.72c-.074.29-.074.596 0 .886.06.284.19.546.377.76zM33.685 19.428l1.416-.571c0-.103.033-.206.06-.314l.268-1.034-1.159-.314.104-.406 3.697 1.034-.372 1.446a1.827 1.827 0 0 1-.634 1.063 1.138 1.138 0 0 1-1.04.16c-.264-.06-.5-.212-.67-.431s-.263-.492-.265-.775l-1.509.571.104-.429zm1.832.16c.064.121.151.228.255.314a.956.956 0 0 0 .746.208.961.961 0 0 0 .371-.139c.241-.203.406-.488.465-.806l.263-1.029-1.854-.52-.262 1.029c-.101.306-.095.64.016.943zM31.722 23.109l-.279-.223 1.641-2.257 3.052 2.417-1.586 2.189-.279-.223 1.34-1.846-1.094-.863-1.198 1.651-.273-.217 1.225-1.651-1.132-.897-1.416 1.92zM30.442 27.663l-.782.046v-.274l.782-.006-.421-.68.213-.143.416.686.339-.766.235.131-.372.72.782-.046v.28h-.793l.421.68-.213.143-.416-.686-.361.743-.23-.137.399-.691zM23.333 27.206l.662.383c.111-.223.266-.418.454-.574s.406-.268.639-.329c.217-.071.446-.096.673-.074.197.016.386.087.547.206a.902.902 0 0 1 .306.457c.066.226.054.468-.033.686a2.84 2.84 0 0 1-.547.794c.18.101.348.226.498.371.103.111.18.246.224.394a.79.79 0 0 1-.142.669c-.146.22-.364.376-.613.44a.913.913 0 0 1-.678 0c-.097-.044-.183-.11-.252-.195s-.117-.184-.142-.291a.81.81 0 0 1 .038-.571c.126-.26.29-.497.487-.703l-1.318-.766a2.87 2.87 0 0 0-.033.817h-.334a2.872 2.872 0 0 1 .109-.994l-.689-.4.142-.32zm.951.571 1.449.84c.19-.189.347-.412.465-.657a.756.756 0 0 0 0-.514c-.025-.099-.073-.19-.14-.265s-.15-.131-.243-.164a1.05 1.05 0 0 0-.7 0c-.186.051-.358.144-.505.273s-.266.289-.348.47l.022.017zm2.056 2.286a.536.536 0 0 0 .044-.422.715.715 0 0 0-.175-.297 2.342 2.342 0 0 0-.454-.314 2.947 2.947 0 0 0-.432.571.596.596 0 0 0-.044.423c.017.065.048.126.089.178s.093.095.151.124a.586.586 0 0 0 .432 0 .646.646 0 0 0 .366-.269l.022.006zM16.666 31.611l.077-4h.388l-.06 3.2 1.553-2.663h.191l1.455 2.709.055-3.183h.388l-.071 4h-.334L18.7 28.685l-1.701 2.931-.334-.006zM14.763 27.429c.25.249.429.566.517.915s.081.717-.019 1.062c-.09.354-.269.675-.52.931-.243.25-.548.424-.88.503a2.032 2.032 0 0 1-1.061-.034 2.039 2.039 0 0 1-.919-.52 1.95 1.95 0 0 1-.509-.903c-.084-.356-.078-.729.018-1.082s.278-.673.529-.93c.239-.249.537-.427.864-.514a2.02 2.02 0 0 1 1.055.034c.348.092.666.277.924.537zm-1.865-.2a1.45 1.45 0 0 0-.706.411 1.68 1.68 0 0 0-.416.76 1.704 1.704 0 0 0 0 .874c.065.278.203.532.399.731.206.21.46.362.738.44.278.074.57.074.848 0 .268-.069.513-.211.711-.411.2-.21.344-.473.416-.76a1.727 1.727 0 0 0 0-.88 1.62 1.62 0 0 0-.405-.731 1.623 1.623 0 0 0-.744-.434 1.507 1.507 0 0 0-.842 0zM8.758 24.571l.148 1.571c.094.042.185.09.273.143l.891.537.602-1.109.355.211-1.914 3.446-1.247-.749a1.781 1.781 0 0 1-.82-.914c-.059-.179-.08-.369-.059-.557s.082-.369.179-.529c.127-.25.329-.451.574-.571a1.22 1.22 0 0 1 .788-.063l-.159-1.68.388.263zm-.623 1.806c-.128.034-.249.094-.355.178s-.194.188-.26.308-.108.253-.123.39-.005.277.032.41c.128.296.35.536.629.68l.88.531.957-1.714-.88-.531a1.313 1.313 0 0 0-.88-.28v.029zM5.521 21.892l.246-.257 1.887 2.029-2.734 2.789-1.821-1.966.252-.257 1.548 1.663.935-.989-1.356-1.474.263-.263 1.384 1.486 1.017-1.034-1.619-1.726zM1.458 19.646l.131-.789.257.04-.148.811.727-.28.087.251-.738.263.607.537-.175.206-.585-.571-.137.811-.262-.051.153-.811-.733.274-.082-.223.733-.269-.607-.531.18-.206.591.537z"/></symbol></defs></svg>