<svg aria-hidden="true" style="position: absolute; width: 0; height: 0; overflow: hidden;" version="1.1" xmlns="http://www.w3.org/2000/svg" xmlns:xlink="http://www.w3.org/1999/xlink">
<defs>
<symbol id="icon-conservansy" viewBox="0 0 44 32">
<path d="M29.618 1.578c-0.277 0.124-0.607 0.359-0.909 0.641l-0.253 0.239-0.316-0.081c-0.172-0.043-0.325-0.077-0.335-0.067-0.010 0.014 0.005 0.077 0.033 0.148 0.024 0.072 0.048 0.201 0.048 0.292s0.024 0.177 0.048 0.191c0.086 0.053 0.053 0.11-0.129 0.215-0.177 0.1-0.187 0.105-0.397 0.029-0.12-0.043-0.23-0.077-0.249-0.077-0.062 0-0.043 0.134 0.024 0.158 0.086 0.029 0.029 0.067-0.167 0.096-0.11 0.014-0.206 0.005-0.263-0.038-0.081-0.062-0.081-0.072 0.048-0.201 0.072-0.077 0.129-0.163 0.129-0.191 0-0.091-0.143-0.206-0.258-0.206-0.139 0-0.249-0.12-0.392-0.43-0.062-0.129-0.124-0.239-0.143-0.239-0.072 0 0.029 0.541 0.153 0.813 0.148 0.33 0.407 0.584 0.808 0.794 0.177 0.096 0.253 0.163 0.239 0.21s0.067 0.129 0.225 0.234l0.244 0.158 0.148-0.167c0.105-0.124 0.201-0.182 0.34-0.201 0.105-0.019 0.225-0.043 0.273-0.053 0.057-0.019 0.086 0.024 0.11 0.172 0.019 0.105 0.048 0.191 0.072 0.191 0.019 0 0.091-0.124 0.158-0.282 0.086-0.196 0.167-0.311 0.292-0.383 0.239-0.153 0.56-0.521 0.746-0.871 0.143-0.273 0.167-0.359 0.182-0.751l0.019-0.44-0.158 0.005c-0.091 0-0.253 0.043-0.368 0.091zM34.817 2.741c0.033 0.043 0.215 0.182 0.407 0.301 0.794 0.526 1.349 0.976 1.196 0.976-0.019 0-0.215-0.139-0.445-0.301-0.435-0.32-0.77-0.536-0.77-0.493 0 0.010 0.129 0.115 0.287 0.225s0.277 0.21 0.268 0.225c-0.033 0.029-0.45-0.206-0.751-0.426l-0.258-0.191 0.239 0.22c0.134 0.12 0.426 0.316 0.66 0.435 0.23 0.12 0.416 0.234 0.416 0.258 0 0.077-0.096 0.057-0.282-0.053-0.1-0.057-0.134-0.067-0.077-0.019 0.158 0.129 0.464 0.277 0.718 0.34 0.344 0.086 0.574 0.182 0.588 0.234 0.019 0.072-0.129 0.086-0.22 0.019-0.043-0.033 0.115 0.139 0.349 0.383 0.249 0.258 0.598 0.555 0.823 0.703 0.426 0.277 0.502 0.364 0.593 0.674 0.033 0.115 0.077 0.206 0.096 0.206 0.024 0 0.177-0.053 0.349-0.115 0.177-0.062 0.368-0.1 0.445-0.086 0.124 0.019 0.129 0.014 0.057-0.062-0.057-0.057-0.072-0.134-0.057-0.268 0.033-0.225-0.029-0.311-0.244-0.349-0.172-0.033-0.287-0.144-0.464-0.435-0.244-0.416-1.014-1.105-1.162-1.048-0.048 0.019-0.077 0.005-0.077-0.043 0-0.043-0.067-0.115-0.144-0.163-0.081-0.048-0.134-0.11-0.124-0.143 0.029-0.077 0.005-0.077-0.12-0.014-0.072 0.043-0.124 0.024-0.273-0.091-0.096-0.077-0.34-0.215-0.536-0.311-0.196-0.091-0.474-0.268-0.607-0.387-0.139-0.124-0.254-0.201-0.254-0.177 0 0.1 0.56 0.651 0.866 0.847 0.182 0.12 0.33 0.234 0.33 0.263 0 0.081-0.077 0.053-0.34-0.129-0.541-0.368-0.756-0.545-0.923-0.751-0.096-0.115-0.234-0.225-0.306-0.239-0.072-0.019-0.172-0.048-0.225-0.062-0.081-0.024-0.086-0.019-0.029 0.048z"></path>
<path d="M31.794 2.946c-0.78 0.129-1.612 0.497-1.947 0.861-0.277 0.301-0.263 0.397 0.11 0.612 0.268 0.158 0.34 0.263 0.277 0.421-0.11 0.282-0.507 0.502-0.985 0.55-0.383 0.033-0.584-0.029-1.124-0.344-0.718-0.421-1.024-0.555-1.33-0.584-0.244-0.024-0.311-0.010-0.584 0.129-0.172 0.086-0.359 0.196-0.416 0.253-0.196 0.177-0.124 0.368 0.187 0.502 0.072 0.029 0.187 0.144 0.253 0.249 0.292 0.459 0.952 0.689 1.971 0.674 0.579-0.010 0.856-0.048 1.234-0.172 0.651-0.22 1.363-0.732 1.363-0.981 0-0.043-0.062-0.163-0.143-0.268-0.244-0.325-0.163-0.655 0.244-0.957 0.287-0.21 0.588-0.277 1.215-0.273 1.244 0.010 2.239 0.44 2.583 1.115 0.196 0.397 0.196 0.402-0.067 0.804-0.493 0.751-0.694 1.358-0.641 1.923 0.019 0.249 0.062 0.306 0.196 0.268 0.144-0.048 0.617-0.574 0.751-0.842 0.201-0.392 0.354-1.009 0.378-1.516 0.029-0.579-0.077-0.938-0.411-1.411-0.392-0.545-1.119-0.933-1.966-1.043-0.44-0.057-0.684-0.053-1.148 0.029z"></path>
<path d="M32.584 4.171c-0.024 0.033-0.062 0.11-0.077 0.167-0.043 0.134-0.139 0.139-0.316 0.014-0.096-0.067-0.177-0.091-0.258-0.067-0.163 0.038-0.158 0.115 0.019 0.282 0.21 0.201 0.187 0.431-0.048 0.459-0.249 0.038-0.148 0.402 0.23 0.851 0.201 0.239 0.287 0.153 0.129-0.124-0.067-0.12-0.11-0.23-0.1-0.239 0.010-0.014 0.12 0.033 0.244 0.105 0.12 0.072 0.287 0.134 0.373 0.139 0.134 0.005 0.153 0.024 0.182 0.182 0.014 0.096 0.053 0.21 0.091 0.249 0.062 0.081 0.263 0.105 0.301 0.038 0.048-0.072-0.029-0.297-0.096-0.297-0.038 0-0.062-0.033-0.053-0.077 0.010-0.053 0.077-0.086 0.206-0.1 0.1-0.010 0.201-0.029 0.21-0.043 0.014-0.010 0.019-0.115 0.010-0.225-0.010-0.206-0.010-0.206 0.144-0.196 0.086 0.005 0.21-0.010 0.273-0.033l0.124-0.048-0.105-0.1c-0.077-0.077-0.153-0.1-0.292-0.096-0.177 0.014-0.191 0-0.311-0.21-0.153-0.273-0.153-0.277-0.005-0.239 0.163 0.043 0.148-0.033-0.033-0.191-0.287-0.239-0.722-0.344-0.842-0.201zM36.047 5.037c-0.014 0.057-0.029 0.253-0.029 0.431 0 0.292-0.014 0.34-0.124 0.44-0.072 0.067-0.167 0.12-0.215 0.12-0.053 0-0.091 0.024-0.091 0.048 0 0.033 0.062 0.043 0.158 0.024 0.139-0.029 0.172-0.014 0.239 0.091 0.11 0.167 0.1 0.225-0.048 0.344-0.077 0.057-0.12 0.124-0.1 0.144 0.024 0.019 0.077 0 0.124-0.043 0.1-0.091 0.32-0.105 0.502-0.038 0.067 0.024 0.23 0.148 0.368 0.268s0.258 0.21 0.268 0.201c0.010-0.010-0.014-0.096-0.053-0.191-0.091-0.225-0.091-0.44 0.005-0.813 0.12-0.464 0.105-0.435 0.187-0.368 0.062 0.053 0.067 0.048 0.048-0.005-0.014-0.038-0.11-0.096-0.21-0.124-0.555-0.172-0.732-0.268-0.861-0.45-0.129-0.177-0.139-0.182-0.167-0.077zM24.552 5.462c-0.105 0.139-0.158 0.483-0.139 0.847 0.024 0.368 0.019 0.387-0.1 0.483-0.143 0.115-0.497 0.129-0.933 0.038-0.22-0.048-0.292-0.043-0.335 0.005-0.053 0.048-0.033 0.081 0.081 0.177 0.081 0.062 0.177 0.115 0.22 0.115 0.038 0 0.091 0.019 0.12 0.048 0.024 0.024 0.172 0.091 0.33 0.144s0.344 0.153 0.416 0.225c0.115 0.11 0.134 0.167 0.134 0.392 0 0.148-0.053 0.478-0.115 0.732-0.115 0.474-0.1 0.564 0.067 0.564 0.091 0 0.311-0.33 0.478-0.717 0.134-0.311 0.316-0.526 0.44-0.526 0.048 0 0.359 0.129 0.684 0.287s0.627 0.287 0.665 0.287c0.067 0 0.124-0.096 0.124-0.21 0-0.033-0.086-0.12-0.196-0.201-0.32-0.23-0.622-0.512-0.698-0.66s-0.096-0.115 0.459-0.894c0.158-0.22 0.163-0.33 0.024-0.33-0.043 0-0.23 0.1-0.416 0.22-0.421 0.273-0.636 0.316-0.78 0.153-0.129-0.144-0.306-0.646-0.306-0.871 0-0.287-0.12-0.445-0.225-0.306zM37.314 5.888c-0.005 0.043 0.043 0.115 0.105 0.167 0.105 0.091 0.105 0.091 0.029-0.005-0.043-0.053-0.091-0.129-0.105-0.167-0.024-0.062-0.029-0.062-0.029 0.005zM28.13 6.869c-0.091 0.062-0.206 0.115-0.258 0.115-0.048 0-0.201 0.057-0.33 0.129l-0.239 0.129-0.086-0.105c-0.1-0.12-0.163-0.043-0.086 0.105 0.029 0.048 0.038 0.139 0.024 0.201-0.024 0.129 0.024 0.148 0.11 0.043 0.033-0.038 0.091-0.072 0.129-0.072 0.115 0 0.349 0.144 0.349 0.215 0 0.053 0.038 0.062 0.143 0.038 0.148-0.029 0.187 0.019 0.086 0.12-0.096 0.096 0 0.124 0.124 0.038 0.148-0.096 0.172-0.096 0.172 0 0 0.067 0.005 0.067 0.077 0 0.038-0.043 0.148-0.077 0.239-0.077 0.263 0 0.593-0.215 0.593-0.387 0-0.105-0.325-0.364-0.636-0.507-0.129-0.062-0.239-0.11-0.239-0.105-0.005 0-0.081 0.057-0.172 0.12zM35.54 7.271c-0.019 0.191-0.005 0.234 0.196 0.526 0.11 0.163 0.249 0.301 0.33 0.335 0.163 0.067 0.191 0.143 0.048 0.143-0.048 0-0.206-0.1-0.34-0.22-0.258-0.23-0.627-0.421-0.756-0.387-0.043 0.010 0.048 0.077 0.21 0.148 0.383 0.172 0.421 0.196 0.44 0.249 0.014 0.048-0.507 0.163-0.727 0.163-0.115 0-0.488 0.282-0.378 0.287 0.033 0 0.067-0.029 0.081-0.067 0.024-0.062 0.493-0.158 0.541-0.11 0.014 0.010 0.010 0.077-0.005 0.143-0.024 0.091-0.091 0.148-0.244 0.206-0.182 0.072-0.215 0.105-0.263 0.277-0.105 0.387-0.081 0.607 0.091 0.851 0.086 0.129 0.177 0.23 0.206 0.23s0.014-0.048-0.024-0.105c-0.077-0.11-0.105-0.277-0.043-0.277 0.019 0 0.086 0.048 0.148 0.105l0.12 0.11-0.062-0.12c-0.086-0.167-0.139-0.717-0.081-0.851 0.072-0.153 0.148-0.105 0.187 0.124 0.019 0.11 0.086 0.277 0.153 0.378s0.124 0.206 0.124 0.239c0 0.033 0.024 0.062 0.048 0.062 0.029 0 0.048 0.033 0.048 0.072s0.038 0.072 0.091 0.072c0.048 0 0.115 0.033 0.148 0.072s0.187 0.115 0.34 0.172c0.325 0.12 0.359 0.153 0.258 0.234-0.11 0.091-0.636 0.029-0.866-0.1l-0.187-0.11 0.139 0.153c0.172 0.187 0.144 0.23-0.096 0.129l-0.182-0.077 0.115 0.129c0.187 0.196 0.354 0.258 0.694 0.258 0.287 0 0.33-0.014 0.459-0.139 0.077-0.077 0.139-0.187 0.139-0.239 0-0.057 0.029-0.1 0.067-0.1s0.105-0.014 0.148-0.033c0.072-0.024 0.081 0 0.048 0.23-0.024 0.177-0.067 0.287-0.134 0.344-0.096 0.081-0.096 0.081-0.010 0.043 0.053-0.029 0.134-0.091 0.177-0.139 0.081-0.086 0.187-0.531 0.191-0.794 0.005-0.23 0.129-0.139 0.297 0.215 0.1 0.21 0.167 0.306 0.167 0.249 0.005-0.153-0.124-0.435-0.335-0.717-0.1-0.139-0.187-0.297-0.187-0.354 0-0.134 0.081-0.12 0.115 0.019 0.057 0.239 0.741 0.698 0.894 0.598 0.053-0.033 0.043-0.043-0.033-0.043-0.191 0-0.569-0.297-0.78-0.612-0.11-0.167-0.196-0.316-0.182-0.325 0.010-0.010 0.144 0.053 0.297 0.143 0.258 0.158 0.282 0.163 0.407 0.1 0.163-0.081 0.191-0.158 0.187-0.445-0.005-0.172-0.014-0.196-0.038-0.105-0.053 0.187-0.191 0.478-0.234 0.478-0.019 0-0.115-0.053-0.21-0.12s-0.23-0.12-0.301-0.12c-0.091 0-0.153-0.053-0.263-0.23-0.077-0.129-0.196-0.258-0.263-0.287-0.086-0.038-0.12-0.091-0.12-0.187 0-0.077-0.043-0.201-0.096-0.277-0.12-0.177-0.124-0.311-0.010-0.311 0.048 0 0.134-0.033 0.191-0.077 0.057-0.038 0.148-0.062 0.196-0.043 0.053 0.014 0.105 0.005 0.124-0.024s-0.067-0.048-0.239-0.048c-0.22 0-0.287 0.019-0.383 0.12-0.067 0.062-0.12 0.144-0.12 0.177 0.005 0.091 0.172 0.454 0.234 0.488 0.077 0.048 0.067 0.124-0.019 0.124-0.038 0-0.091-0.043-0.12-0.096s-0.124-0.143-0.215-0.206c-0.182-0.124-0.483-0.536-0.517-0.708l-0.019-0.115-0.014 0.12zM38.802 7.232c-0.077 0.077-0.072 0.144 0.014 0.306 0.105 0.206 0.091 0.301-0.091 0.502-0.292 0.32-0.335 0.732-0.124 1.205l0.105 0.234-0.124 0.172c-0.239 0.349-0.287 0.703-0.144 1.062 0.067 0.163 0.091 0.182 0.148 0.134 0.096-0.077 0.234-0.364 0.277-0.564 0.077-0.354 0.11-0.368 0.292-0.1 0.206 0.306 0.478 0.564 0.78 0.746 0.316 0.191 0.359 0.297 0.268 0.622-0.067 0.225-0.067 0.287-0.010 0.483l0.062 0.225 0.1-0.234c0.057-0.129 0.115-0.292 0.134-0.368 0.053-0.21 0.105-0.191 0.144 0.048 0.024 0.158 0.077 0.263 0.182 0.368l0.153 0.148 0.014-0.234c0.014-0.182-0.014-0.301-0.124-0.526-0.105-0.22-0.148-0.387-0.167-0.674-0.019-0.23-0.086-0.555-0.172-0.823-0.081-0.244-0.153-0.512-0.158-0.598l-0.014-0.158 0.258 0.019 0.258 0.014-0.206-0.244c-0.163-0.191-0.234-0.244-0.33-0.234-0.105 0.014-0.144-0.033-0.325-0.359-0.115-0.206-0.22-0.454-0.234-0.55s-0.033-0.215-0.048-0.258c-0.038-0.129-0.301-0.292-0.464-0.287-0.081 0-0.191-0.029-0.244-0.067-0.12-0.081-0.139-0.081-0.21-0.010zM21.319 7.543c-0.019 0.014 0.010 0.057 0.062 0.096 0.139 0.096 0.12 0.167-0.1 0.402-0.416 0.45-0.617 0.847-0.617 1.225 0 0.1-0.029 0.172-0.072 0.191-0.043 0.014-0.105 0.086-0.143 0.163-0.091 0.172-0.091 0.215 0 0.139 0.038-0.033 0.1-0.048 0.139-0.033s0.077 0.005 0.091-0.029c0.010-0.033 0.072-0.014 0.167 0.057 0.172 0.12 0.177 0.115 0.1-0.139-0.048-0.158-0.043-0.196 0.067-0.364 0.258-0.402 0.579-0.598 1.1-0.665 0.23-0.029 0.282 0.010 0.153 0.12s-0.033 0.11 0.158 0c0.1-0.057 0.225-0.167 0.268-0.244 0.077-0.134 0.1-0.139 0.411-0.139 0.182 0 0.383 0.019 0.45 0.048 0.096 0.033 0.124 0.029 0.124-0.024 0-0.033-0.019-0.077-0.043-0.096-0.024-0.014-0.057-0.086-0.077-0.163-0.029-0.134-0.253-0.383-0.435-0.474-0.182-0.096-0.56-0.115-0.904-0.048-0.277 0.057-0.364 0.057-0.478 0.010-0.158-0.067-0.373-0.086-0.421-0.033zM37.659 11.174c-0.038 0.038-0.053 0.143-0.038 0.277 0.010 0.12 0 0.23-0.024 0.244-0.029 0.014-0.048-0.005-0.048-0.043 0-0.043-0.033-0.077-0.072-0.077s-0.072-0.043-0.072-0.096-0.024-0.096-0.057-0.096c-0.029 0-0.043-0.014-0.024-0.029 0.024-0.024-0.134-0.21-0.182-0.21-0.014 0-0.024 0.053-0.024 0.12 0 0.134-0.014 0.143-0.144 0.062-0.048-0.033-0.105-0.043-0.129-0.024-0.019 0.019 0.11 0.177 0.287 0.349s0.32 0.34 0.32 0.373c0 0.043-0.077 0.062-0.225 0.062-0.349 0-0.44 0.024-0.431 0.115 0.005 0.077 0.158 0.081 0.478 0.019 0.1-0.019 0.416 0.062 0.416 0.11 0 0.019-0.115 0.033-0.254 0.038-0.139 0-0.297 0.029-0.344 0.062-0.077 0.048-0.029 0.053 0.254 0.024 0.421-0.033 0.478 0.053 0.062 0.1-0.22 0.024-0.277 0.048-0.258 0.1 0.024 0.062-0.096 0.096-0.239 0.072-0.019-0.005-0.1 0.029-0.182 0.072-0.12 0.057-0.134 0.086-0.086 0.143 0.043 0.053 0.043 0.081-0.005 0.139-0.1 0.12-0.024 0.134 0.201 0.029 0.115-0.053 0.268-0.11 0.34-0.124 0.072-0.019 0.129-0.053 0.129-0.081 0-0.024 0.024-0.029 0.048-0.014 0.091 0.057 0.048 0.12-0.129 0.191-0.167 0.072-0.493 0.34-0.493 0.407 0 0.057 0.254 0.024 0.277-0.038 0.010-0.029 0.043-0.057 0.081-0.057 0.033 0 0.086-0.033 0.124-0.077 0.053-0.062 0.402-0.273 0.474-0.282 0.014 0 0.053-0.019 0.086-0.038 0.029-0.024 0.077-0.029 0.1-0.010 0.024 0.014 0.057 0.005 0.077-0.024 0.038-0.062 0.167-0.062 0.167-0.005 0 0.024-0.124 0.139-0.273 0.254-0.234 0.177-0.282 0.239-0.306 0.397-0.019 0.105-0.014 0.234 0.005 0.287 0.033 0.081 0.048 0.057 0.096-0.12 0.029-0.12 0.105-0.282 0.172-0.359l0.115-0.143-0.029 0.22c-0.019 0.143-0.010 0.234 0.024 0.254 0.033 0.024 0.053-0.024 0.053-0.148 0.005-0.21 0.167-0.521 0.34-0.641 0.096-0.072 0.158-0.077 0.402-0.038 0.435 0.067 0.431 0.067 0.555 0.143 0.263 0.172 0.469 0.167 0.378-0.010-0.029-0.048-0.077-0.091-0.1-0.091-0.029 0-0.134-0.062-0.234-0.143-0.096-0.077-0.187-0.129-0.201-0.115-0.014 0.010-0.053-0.010-0.086-0.053-0.033-0.038-0.11-0.072-0.172-0.072-0.11 0-0.177-0.062-0.191-0.191-0.005-0.038-0.033-0.139-0.057-0.22-0.038-0.124-0.029-0.182 0.043-0.301 0.048-0.081 0.115-0.148 0.148-0.148 0.043 0 0.043-0.014-0.005-0.062-0.062-0.062-0.053-0.067-0.234 0.191-0.067 0.091-0.067 0.11 0.019-0.273 0.024-0.11 0.019-0.115-0.043-0.033-0.144 0.172-0.153 0.67-0.014 0.842 0.043 0.057 0.029 0.062-0.091 0.033-0.077-0.019-0.158-0.062-0.177-0.091s-0.048-0.038-0.067-0.019c-0.019 0.019-0.062 0.010-0.096-0.014-0.067-0.057 0.010-0.354 0.182-0.698 0.057-0.115 0.091-0.225 0.072-0.239-0.014-0.014-0.062 0.038-0.105 0.12-0.038 0.081-0.096 0.148-0.124 0.148-0.024 0-0.014-0.057 0.019-0.134 0.12-0.225 0.144-0.349 0.072-0.335-0.105 0.024-0.225 0.378-0.225 0.67-0.005 0.153-0.024 0.277-0.048 0.277-0.072 0-0.091-0.163-0.057-0.521 0.019-0.191 0.014-0.359-0.005-0.368-0.019-0.014-0.043-0.010-0.043 0.014-0.014 0.067-0.033 0.32-0.038 0.454-0.005 0.077-0.019 0.134-0.038 0.134-0.024 0-0.029-0.105-0.024-0.23 0.010-0.129 0.010-0.287 0-0.354-0.010-0.1-0.024-0.115-0.072-0.057zM2.152 18.253c-0.526 0.139-0.947 0.531-1.153 1.071-0.22 0.574-0.215 1.416 0.014 2.023 0.196 0.545 0.718 0.971 1.32 1.091 0.784 0.153 1.55-0.12 1.947-0.694 0.263-0.387 0.368-0.77 0.373-1.392 0.014-1.105-0.416-1.818-1.253-2.081-0.359-0.115-0.866-0.12-1.248-0.019zM3.324 18.77c0.55 0.253 0.847 0.933 0.77 1.779-0.072 0.885-0.502 1.392-1.22 1.445-0.813 0.057-1.32-0.411-1.449-1.33-0.057-0.43 0-0.928 0.148-1.268 0.22-0.488 0.617-0.741 1.177-0.741 0.249 0 0.397 0.029 0.574 0.115zM9.495 19.233c-0.464 0.057-0.88 0.378-1.081 0.832-0.148 0.325-0.182 1-0.072 1.378 0.158 0.545 0.579 0.89 1.201 0.99 0.378 0.062 0.612 0.038 1.114-0.105l0.344-0.1v-0.612l-0.129 0.1c-0.344 0.249-0.995 0.354-1.421 0.23-0.359-0.11-0.651-0.521-0.651-0.914v-0.129l1.138-0.010 1.134-0.014-0.014-0.354c-0.029-0.622-0.234-0.99-0.651-1.177-0.277-0.124-0.564-0.163-0.914-0.115zM10.212 19.75c0.167 0.091 0.368 0.454 0.349 0.627l-0.014 0.12h-1.755l0.029-0.158c0.029-0.182 0.215-0.45 0.392-0.569 0.263-0.172 0.717-0.182 1-0.019zM16.617 19.233c-0.21 0.038-0.66 0.249-0.713 0.33-0.062 0.1-0.12 0.043-0.12-0.12v-0.167h-0.478v3.109h0.502l-0.029-2.286 0.143-0.1c0.373-0.268 0.842-0.364 1.129-0.234 0.258 0.12 0.287 0.244 0.301 1.483l0.014 1.138h0.531l-0.019-1.21c-0.014-1.11-0.024-1.224-0.115-1.425-0.196-0.421-0.622-0.612-1.148-0.517zM6.247 19.305c-0.33 0.105-0.746 0.526-0.856 0.875-0.105 0.335-0.11 1.009 0 1.339 0.091 0.292 0.383 0.641 0.636 0.77 0.416 0.21 1.081 0.215 1.555 0.005l0.215-0.096v-0.579l-0.225 0.143c-0.273 0.172-0.488 0.239-0.789 0.239-0.641 0-0.981-0.459-0.938-1.263 0.033-0.603 0.239-0.918 0.679-1.038 0.277-0.077 0.574-0.024 0.952 0.167l0.325 0.167-0.029-0.593-0.311-0.105c-0.368-0.124-0.866-0.139-1.215-0.033zM12.197 19.291l-0.263 0.057-0.014 0.273-0.014 0.268 0.301-0.096c0.196-0.067 0.445-0.1 0.708-0.105 0.512-0.005 0.703 0.086 0.813 0.392 0.038 0.105 0.053 0.21 0.033 0.23s-0.263 0.053-0.545 0.077c-0.631 0.053-0.938 0.134-1.205 0.325-0.249 0.182-0.354 0.411-0.349 0.77 0 0.756 0.66 1.172 1.473 0.928 0.129-0.038 0.311-0.124 0.402-0.191 0.21-0.153 0.239-0.153 0.239 0.024 0 0.143 0.005 0.143 0.258 0.143h0.254l-0.010-1.21c-0.005-0.66-0.029-1.248-0.048-1.301-0.077-0.196-0.273-0.411-0.469-0.512-0.167-0.086-0.297-0.105-0.751-0.115-0.306-0.010-0.665 0.010-0.813 0.043zM13.776 21.18c0 0.474-0.010 0.488-0.383 0.684-0.167 0.086-0.292 0.11-0.56 0.115-0.316 0-0.354-0.010-0.488-0.139-0.124-0.12-0.148-0.177-0.148-0.368 0-0.277 0.115-0.435 0.397-0.545 0.191-0.072 0.66-0.148 1.028-0.163l0.153-0.005v0.421zM8.299 25.366c-0.545 0.139-0.981 0.478-1.22 0.942-0.23 0.445-0.301 1.239-0.167 1.808 0.196 0.823 0.727 1.311 1.578 1.445 0.478 0.077 1-0.005 1.569-0.249l0.225-0.096v-0.67l-0.153 0.115c-0.588 0.45-1.325 0.574-1.889 0.325-0.311-0.139-0.507-0.34-0.67-0.689-0.124-0.268-0.134-0.34-0.134-0.842 0-0.464 0.019-0.593 0.115-0.832 0.22-0.55 0.665-0.842 1.296-0.842 0.411 0 0.727 0.096 1.095 0.335 0.163 0.105 0.306 0.191 0.316 0.191 0.014 0 0.024-0.148 0.024-0.33v-0.33l-0.416-0.153c-0.493-0.177-1.162-0.234-1.569-0.129zM11.925 26.356c-0.713 0.148-1.114 0.713-1.114 1.574 0 0.909 0.359 1.464 1.057 1.631 0.67 0.163 1.287-0.124 1.612-0.737 0.12-0.23 0.129-0.282 0.129-0.842 0-0.526-0.014-0.627-0.115-0.847-0.124-0.277-0.435-0.593-0.694-0.703-0.22-0.091-0.627-0.129-0.875-0.077zM12.599 26.853c0.33 0.139 0.507 0.521 0.507 1.105 0 0.407-0.067 0.665-0.22 0.875-0.163 0.21-0.354 0.301-0.66 0.301-0.584 0.010-0.89-0.392-0.89-1.177 0-0.78 0.292-1.167 0.875-1.172 0.124 0 0.301 0.029 0.387 0.067zM15.742 26.356c-0.206 0.043-0.593 0.244-0.651 0.335-0.062 0.1-0.12 0.043-0.12-0.12v-0.167h-0.526v3.109h0.526v-2.291l0.158-0.12c0.335-0.253 0.818-0.344 1.11-0.21 0.258 0.115 0.282 0.244 0.301 1.483l0.019 1.138h0.517v-1.048c0-0.574-0.024-1.162-0.048-1.301-0.115-0.617-0.631-0.942-1.287-0.808zM22.008 26.356c-0.627 0.129-1.014 0.541-1.153 1.22-0.11 0.536 0.019 1.153 0.32 1.502 0.426 0.502 1.282 0.641 2.129 0.349l0.253-0.086 0.014-0.292 0.014-0.287-0.344 0.172c-0.325 0.158-0.378 0.172-0.789 0.172-0.416 0-0.454-0.010-0.651-0.143-0.234-0.167-0.402-0.44-0.45-0.732l-0.033-0.201h2.325l-0.024-0.397c-0.053-0.804-0.421-1.224-1.138-1.291-0.143-0.014-0.359-0.010-0.474 0.014zM22.764 26.858c0.167 0.081 0.32 0.349 0.344 0.593l0.019 0.158-0.885-0.010c-0.483 0-0.885-0.010-0.894-0.014-0.005-0.010 0.014-0.1 0.048-0.201 0.072-0.244 0.354-0.521 0.588-0.588s0.593-0.038 0.78 0.062zM34.966 26.356c-0.244 0.053-0.435 0.134-0.607 0.268-0.081 0.062-0.163 0.115-0.177 0.115s-0.029-0.077-0.029-0.172v-0.167l-0.502 0.029v3.085h0.502v-2.339l0.34-0.167c0.526-0.263 0.961-0.23 1.134 0.086 0.067 0.124 0.081 0.34 0.096 1.282l0.019 1.138h0.526l-0.019-1.21c-0.014-1.028-0.033-1.234-0.105-1.406-0.12-0.282-0.354-0.474-0.651-0.536-0.268-0.057-0.282-0.057-0.526-0.005zM18.545 26.427c-0.464 0.177-0.679 0.488-0.646 0.933 0.033 0.483 0.258 0.651 1.095 0.837 0.607 0.134 0.761 0.23 0.761 0.478 0 0.536-0.871 0.636-1.665 0.191-0.12-0.067-0.22-0.12-0.234-0.12-0.010 0-0.014 0.134-0.005 0.297l0.014 0.301 0.335 0.115c0.426 0.143 1.028 0.163 1.392 0.038 0.703-0.244 0.923-1.048 0.402-1.488-0.153-0.124-0.407-0.21-0.947-0.32-0.402-0.077-0.603-0.215-0.622-0.421-0.033-0.34 0.253-0.512 0.804-0.474 0.287 0.024 0.464 0.081 0.923 0.316 0.019 0.010 0.033-0.105 0.033-0.253v-0.268l-0.225-0.1c-0.297-0.134-1.138-0.172-1.416-0.062zM30.532 26.418l-0.253 0.048v0.55l0.301-0.1c0.397-0.129 1.043-0.139 1.263-0.019 0.172 0.091 0.225 0.172 0.273 0.402l0.033 0.148-0.277 0.029c-0.737 0.077-1.038 0.129-1.258 0.225-0.67 0.287-0.828 1.091-0.316 1.602 0.354 0.359 0.875 0.392 1.464 0.1 0.172-0.081 0.33-0.163 0.354-0.172s0.029 0.048 0.014 0.134l-0.029 0.148h0.521v-1.21c0-1.158-0.005-1.22-0.105-1.421-0.12-0.234-0.335-0.402-0.607-0.478-0.215-0.057-1.043-0.053-1.378 0.014zM32.11 28.326l-0.005 0.445-0.201 0.129c-0.407 0.263-0.971 0.292-1.215 0.062-0.105-0.096-0.124-0.158-0.124-0.373 0-0.239 0.014-0.277 0.163-0.407 0.201-0.172 0.545-0.253 1.224-0.287l0.167-0.010-0.010 0.44zM38.022 26.423c-0.421 0.148-0.651 0.359-0.832 0.756-0.34 0.741-0.124 1.789 0.445 2.148 0.292 0.182 0.517 0.244 0.942 0.239 0.244 0 0.435-0.033 0.651-0.115l0.306-0.115 0.014-0.292c0.014-0.273-0.033-0.373-0.11-0.249s-0.541 0.301-0.837 0.32c-0.45 0.029-0.694-0.1-0.88-0.483-0.12-0.23-0.144-0.34-0.144-0.646-0.005-0.454 0.1-0.751 0.354-0.981 0.32-0.292 0.88-0.282 1.358 0.019 0.124 0.081 0.234 0.143 0.249 0.143s0.019-0.134 0.010-0.297l-0.014-0.297-0.311-0.11c-0.359-0.124-0.918-0.143-1.201-0.043zM24.442 27.953v1.559h0.502l-0.005-1.1-0.005-1.095 0.172-0.12c0.32-0.225 0.526-0.282 0.899-0.258l0.349 0.024v-0.253c0-0.234-0.010-0.258-0.124-0.287-0.292-0.072-0.794 0.072-1.114 0.32-0.158 0.124-0.172 0.12-0.172-0.11v-0.206l-0.502-0.029v1.555zM26.561 26.499c0.014 0.053 0.292 0.756 0.612 1.555l0.588 1.459h0.531l0.612-1.521c0.335-0.832 0.607-1.535 0.607-1.555s-0.115-0.033-0.258-0.033h-0.258l-0.153 0.392c-0.641 1.684-0.784 2.042-0.808 2.019-0.014-0.014-0.234-0.555-0.488-1.205l-0.464-1.181-0.273-0.014c-0.258-0.014-0.273-0.010-0.249 0.086zM39.892 26.427c0 0.014 0.268 0.67 0.598 1.459s0.598 1.454 0.598 1.483c0 0.024-0.12 0.311-0.263 0.641-0.144 0.325-0.263 0.607-0.263 0.622 0 0.019 0.12 0.029 0.268 0.019l0.273-0.014 0.78-1.842c0.431-1.014 0.837-1.966 0.904-2.119l0.115-0.273h-0.545l-0.474 1.148c-0.263 0.631-0.493 1.134-0.507 1.114-0.014-0.024-0.124-0.277-0.239-0.564-0.115-0.292-0.32-0.784-0.454-1.1l-0.244-0.574-0.273-0.014c-0.148-0.010-0.273 0-0.273 0.014z"></path>
</symbol>
<symbol id="icon-globaloceanrefuge" viewBox="0 0 51 32">
<path d="M25.933 1.428c-0.156 0.039-0.117 0.233 0.094 0.472l0.2 0.217-0.011 0.533c-0.017 0.456 0 0.533 0.083 0.583 0.083 0.044 0.089 0.106 0.061 0.367-0.067 0.606 0.178 0.661 0.622 0.144 0.261-0.3 0.383-0.356 0.506-0.233 0.106 0.106 0.078 0.2-0.094 0.289-0.172 0.094-0.25 0.289-0.194 0.5 0.039 0.172 0.111 0.2 0.644 0.25 0.422 0.044 0.433 0.050 0.806 0.383 0.483 0.422 0.972 0.767 1.222 0.85l0.194 0.061-0.117 0.122c-0.156 0.167-0.222 0.372-0.167 0.517 0.061 0.167 0.144 0.161 0.644-0.039s0.544-0.2 1.039-0.033c1.033 0.361 2.256 0.506 2.461 0.294 0.094-0.1 0.094-0.106-0.006-0.183-0.089-0.061-0.094-0.078-0.022-0.078 0.156 0 0.15-0.217-0.006-0.522-0.467-0.883-1.039-1.606-1.922-2.417-0.333-0.306-0.572-0.456-1.422-0.883-0.561-0.278-1.144-0.611-1.3-0.733-0.417-0.333-0.611-0.406-0.989-0.372-0.178 0.017-0.383 0.067-0.456 0.117-0.167 0.111-0.178 0.311-0.028 0.45 0.061 0.056 0.111 0.15 0.111 0.206 0 0.272-0.328 0.133-1.133-0.472-0.372-0.272-0.672-0.45-0.717-0.422-0.006 0.006-0.056 0.017-0.106 0.033zM22.472 1.983c-0.089 0.050-0.289 0.194-0.444 0.322-0.444 0.367-0.578 0.444-1.172 0.661s-1.606 0.756-1.606 0.85c0 0.033 0.194 0.189 0.428 0.344 0.706 0.472 1.172 1.083 1.572 2.072 0.15 0.367 0.217 0.656 0.3 1.278 0.178 1.3 0.311 1.711 0.811 2.461 0.439 0.667 1.139 1.289 1.139 1.017 0-0.033-0.183-0.239-0.406-0.456-0.672-0.656-1.039-1.55-1.039-2.5 0.006-0.522 0.078-0.767 0.328-1.083 0.222-0.283 0.778-0.706 1.161-0.878 0.383-0.178 1.144-0.333 1.883-0.378 0.333-0.022 0.611-0.050 0.622-0.061 0.017-0.017 0-0.133-0.039-0.267-0.122-0.472-0.339-0.733-1.122-1.361-0.967-0.778-1.4-1.217-1.644-1.656-0.267-0.478-0.428-0.55-0.772-0.367z"></path>
<path d="M17.65 6.389c-0.628 0.394-1.167 1.583-1.456 3.206l-0.094 0.511-0.211 0.033c-0.261 0.044-1.189 0.456-1.556 0.694-0.283 0.183-0.472 0.428-0.517 0.672-0.072 0.394 0.35 0.944 0.806 1.056 0.278 0.061 0.972 0.039 1.183-0.044 0.122-0.044 0.144-0.083-0.233 0.483-0.283 0.439-0.422 1.506-0.222 1.706 0.083 0.083 0.106 0.078 0.317-0.067 0.122-0.083 0.267-0.211 0.322-0.278 0.3-0.383 0.678-0.8 0.694-0.761 0.011 0.022 0.067 0.178 0.122 0.344 0.272 0.833 0.8 1.7 1.567 2.583 2.044 2.344 5.428 3.667 8.572 3.35 1.1-0.111 2.333-0.511 3.189-1.033 0.589-0.356 0.972-0.278 2.228 0.461 0.461 0.272 1.239 0.472 1.411 0.367 0.033-0.022-0.022-0.156-0.139-0.339-0.1-0.167-0.278-0.544-0.389-0.833-0.228-0.583-0.339-0.739-0.65-0.894-0.25-0.133-0.317-0.278-0.317-0.717 0-0.361-0.044-0.406-0.339-0.333-0.394 0.094-0.539 0.189-0.994 0.672l-0.472 0.5-0.389 0.056c-0.739 0.106-2.128-0.050-2.967-0.339-0.756-0.256-1.433-0.678-2.033-1.272-0.933-0.922-1.056-1.667-0.35-2.083 0.25-0.144 0.75-0.294 1.111-0.328 0.117-0.011 0.228-0.033 0.244-0.056 0.039-0.039-0.428-0.389-0.689-0.517-0.239-0.111-1.094-0.111-2.028 0-0.667 0.078-0.917 0.083-1.139 0.011-0.078-0.028-0.3-0.306-0.589-0.744-0.256-0.389-0.689-1-0.967-1.367-0.906-1.194-1.194-1.85-1.244-2.839-0.033-0.572-0.122-0.794-0.494-1.211-0.217-0.25-0.906-0.817-0.994-0.817-0.017 0-0.15 0.072-0.294 0.167zM31.75 7.622c0.022 0.133 0.044 0.439 0.050 0.683 0.011 0.544 0.283 1.378 0.556 1.722 0.356 0.433 0.589 0.761 0.589 0.811 0 0.089-0.111 0.056-0.35-0.111-0.128-0.089-0.428-0.25-0.661-0.361-0.339-0.161-0.467-0.256-0.6-0.45-0.089-0.133-0.233-0.294-0.311-0.356-0.156-0.122-0.356-0.156-0.356-0.061 0 0.128 0.233 0.506 0.422 0.689s1.222 0.744 1.689 0.922c0.483 0.183 0.856 0.794 1 1.633 0.111 0.644 0.144 1.506 0.061 1.561-0.033 0.017-0.15 0.194-0.261 0.389-0.172 0.317-0.211 0.356-0.306 0.306-0.183-0.1-0.261-0.294-0.294-0.778-0.050-0.611-0.111-0.872-0.244-1.017-0.083-0.094-0.094-0.161-0.061-0.278 0.033-0.128 0.011-0.194-0.144-0.4-0.106-0.133-0.194-0.322-0.211-0.428-0.022-0.222-0.156-0.244-0.228-0.033-0.056 0.156-0.033 0.206 0.278 0.583 0.144 0.183 0.15 0.183 0.022 0.183-0.156 0-0.872-0.689-1.117-1.067-0.183-0.283-0.222-0.311-0.317-0.194-0.044 0.050-0.033 0.122 0.033 0.261 0.117 0.239 0.789 0.956 1.044 1.117 0.106 0.061 0.25 0.217 0.322 0.344 0.139 0.233 0.172 0.372 0.228 0.911 0.011 0.156 0.044 0.322 0.061 0.372 0.1 0.261-0.417-0.094-0.683-0.472-0.15-0.206-0.278-0.328-0.344-0.328-0.167 0-0.189 0.089-0.072 0.261 0.061 0.089 0.172 0.272 0.256 0.417 0.167 0.3 0.222 0.339 0.644 0.433 0.483 0.106 0.489 0.111 0.611 0.278l0.117 0.161-0.2 0.289c-0.106 0.156-0.194 0.306-0.194 0.328 0 0.072 0.45 0.094 0.533 0.028 0.044-0.033 0.178-0.233 0.289-0.444 0.194-0.356 0.228-0.389 0.467-0.45 0.139-0.033 0.35-0.111 0.472-0.167 0.228-0.111 0.25-0.161 0.428-0.939 0.089-0.378 0.1-0.4 0.583-0.861 0.539-0.517 0.611-0.661 0.511-1-0.094-0.328-0.078-0.506 0.083-0.672 0.283-0.294 0.339-1.217 0.072-1.217-0.017 0-0.050 0.15-0.067 0.339-0.044 0.483-0.306 0.75-0.572 0.578-0.172-0.111-0.167-0.233 0.006-0.472 0.078-0.106 0.139-0.261 0.139-0.35 0-0.1 0.061-0.233 0.167-0.356 0.094-0.1 0.167-0.217 0.167-0.256s-0.078-0.178-0.167-0.311c-0.122-0.178-0.167-0.311-0.172-0.5-0.006-0.389-0.117-0.644-0.278-0.644-0.1 0-0.133 0.028-0.122 0.111 0.017 0.189 0.133 0.6 0.25 0.867 0.139 0.317 0.117 0.633-0.039 0.633-0.089 0-0.117-0.044-0.128-0.194-0.028-0.378-0.061-0.433-0.272-0.506-0.333-0.106-0.35-0.133-0.339-0.556 0.017-0.361 0.011-0.383-0.172-0.572-0.233-0.239-0.506-0.356-0.506-0.211 0 0.050 0.089 0.183 0.2 0.294 0.183 0.189 0.206 0.25 0.239 0.6 0.033 0.372 0.050 0.406 0.283 0.644 0.167 0.167 0.272 0.333 0.306 0.489 0.039 0.144 0.1 0.25 0.172 0.283 0.117 0.050 0.117 0.056-0.039 0.306-0.1 0.156-0.161 0.322-0.161 0.45 0 0.178 0.044 0.244 0.306 0.483l0.306 0.283v0.783l-0.322 0.217c-0.55 0.378-0.656 0.506-0.728 0.872-0.144 0.75-0.183 0.861-0.322 0.972-0.211 0.167-0.239 0.139-0.128-0.156 0.172-0.45 0.183-0.717 0.061-1.35l-0.111-0.583 0.167-0.517c0.172-0.544 0.211-0.983 0.111-1.244-0.033-0.089-0.061-0.306-0.061-0.483 0-0.422-0.028-0.489-0.2-0.456s-0.217 0.194-0.167 0.628c0.022 0.261 0.017 0.328-0.044 0.328-0.133 0-0.256-0.167-0.261-0.35-0.011-0.556-0.056-0.733-0.206-0.844-0.361-0.272-0.439-0.383-0.478-0.711-0.033-0.261-0.061-0.322-0.133-0.306-0.078 0.017-0.094 0.089-0.094 0.389v0.372l0.583 0.539v0.85l0.333 0.289c0.356 0.306 0.489 0.583 0.383 0.778-0.028 0.061-0.067 0.106-0.078 0.106-0.017 0-0.228-0.306-0.483-0.683-0.25-0.372-0.583-0.839-0.744-1.039-0.306-0.378-0.411-0.583-0.411-0.794 0-0.139-0.067-0.272-0.294-0.583l-0.15-0.217 0.111-0.244c0.122-0.272 0.144-0.661 0.044-0.761-0.039-0.039-0.139-0.067-0.228-0.067-0.161 0-0.161 0-0.122 0.233zM14.378 22.594c0.039 0.017 0.089 0.011 0.106-0.006 0.022-0.017-0.011-0.033-0.072-0.028-0.061 0-0.078 0.017-0.033 0.033zM18.211 22.594c0.039 0.017 0.089 0.011 0.106-0.006 0.022-0.017-0.011-0.033-0.072-0.028-0.061 0-0.078 0.017-0.033 0.033zM13.967 22.7c-0.106 0.083-0.106 0.083 0.006 0.033 0.061-0.028 0.15-0.067 0.194-0.083 0.072-0.028 0.072-0.033-0.006-0.033-0.044-0.006-0.133 0.033-0.194 0.083zM14.656 22.65c0.039 0.017 0.089 0.011 0.106-0.006 0.022-0.017-0.011-0.033-0.072-0.028-0.061 0-0.078 0.017-0.033 0.033zM15.956 22.65c0.083 0.022 0.1 0.122 0.111 0.839l0.017 0.817 0.406 0.017c0.228 0.011 0.4 0.039 0.4 0.072 0 0.039-0.183 0.050-0.5 0.039-0.278-0.011-0.5 0-0.5 0.022 0 0.028 0.239 0.044 0.528 0.044 0.489 0 0.528-0.006 0.528-0.111 0-0.1-0.039-0.111-0.417-0.111h-0.417v-0.833c0-0.828 0-0.833-0.122-0.828-0.094 0.006-0.1 0.017-0.033 0.033zM20.039 22.65c0.1 0.011 0.278 0.011 0.389 0 0.117-0.011 0.039-0.022-0.178-0.022-0.211 0-0.306 0.011-0.211 0.022zM22.222 22.661c0 0.028 0.050 0.039 0.111 0.022 0.078-0.022 0.122 0.006 0.161 0.1 0.028 0.072 0.056 0.106 0.056 0.067 0.011-0.144-0.067-0.239-0.194-0.239-0.072 0-0.133 0.022-0.133 0.050zM23.789 22.65c0.083 0.022 0.1 0.122 0.111 0.839l0.017 0.817 0.406 0.017c0.217 0.011 0.4 0.039 0.4 0.067s-0.233 0.061-0.511 0.072l-0.517 0.017 0.544 0.011c0.506 0.011 0.539 0.006 0.539-0.1 0-0.1-0.039-0.111-0.417-0.111h-0.417v-0.833c0-0.828 0-0.833-0.122-0.828-0.094 0.006-0.1 0.017-0.033 0.033zM14.906 22.728c0.133 0.078 0.067 0.178-0.072 0.106-0.056-0.028-0.122-0.056-0.15-0.056-0.022 0.006 0.028 0.044 0.117 0.089 0.128 0.072 0.167 0.078 0.206 0.017 0.050-0.083-0.039-0.217-0.139-0.217-0.033 0-0.017 0.028 0.039 0.061zM17.617 22.828c-0.094 0.089-0.172 0.183-0.172 0.211 0 0.022 0.039-0.006 0.083-0.061 0.044-0.061 0.15-0.156 0.233-0.211 0.089-0.056 0.128-0.1 0.094-0.1-0.039 0-0.144 0.072-0.239 0.161zM18.611 22.689c0 0.011 0.039 0.039 0.089 0.056 0.044 0.017 0.067 0.011 0.050-0.022-0.033-0.056-0.139-0.078-0.139-0.033zM14.172 22.772c-0.056 0.033 0.006 0.044 0.167 0.022 0.133-0.017 0.256-0.039 0.267-0.050 0.056-0.050-0.361-0.017-0.433 0.028zM18.183 22.761c0.050 0.011 0.128 0.011 0.167 0 0.033-0.017-0.006-0.028-0.1-0.028-0.089 0-0.122 0.011-0.067 0.028zM20.833 22.744c0 0.022 0.039 0.078 0.083 0.122 0.044 0.050 0.083 0.061 0.083 0.033s-0.039-0.083-0.083-0.122c-0.044-0.039-0.083-0.050-0.083-0.033zM13.739 22.844c-0.083 0.111-0.139 0.211-0.111 0.211 0.017 0 0.067-0.061 0.117-0.139 0.094-0.144 0.089-0.194-0.006-0.072zM17.744 22.956l-0.161 0.183 0.167-0.144c0.094-0.083 0.206-0.161 0.25-0.178 0.072-0.028 0.072-0.033-0.006-0.033-0.044-0.006-0.156 0.078-0.25 0.172zM18.833 22.8c0 0.011 0.044 0.056 0.1 0.094 0.083 0.072 0.089 0.067 0.017-0.022s-0.117-0.117-0.117-0.072zM20.094 22.817c-0.022 0.017-0.039 0.183-0.039 0.361v0.322h0.3c0.167 0 0.317-0.017 0.328-0.044 0.017-0.022-0.106-0.028-0.272-0.022l-0.3 0.022v-0.617l0.294-0.022 0.289-0.017-0.283-0.011c-0.156-0.006-0.3 0.006-0.317 0.028zM13.883 22.983l-0.133 0.156 0.156-0.133c0.139-0.128 0.178-0.172 0.133-0.172-0.011 0-0.078 0.067-0.156 0.15zM18.722 22.972c0.072 0.078 0.144 0.139 0.156 0.139 0.017 0-0.028-0.061-0.1-0.139s-0.144-0.139-0.156-0.139c-0.017 0 0.028 0.061 0.1 0.139zM20.783 22.978c0 0.061 0.017 0.078 0.033 0.033 0.017-0.039 0.011-0.089-0.006-0.106-0.017-0.022-0.033 0.011-0.028 0.072zM22.589 23.056c0.017 0.078 0.061 0.178 0.089 0.222 0.033 0.056 0.039 0.039 0.011-0.056-0.017-0.078-0.061-0.178-0.089-0.222-0.033-0.056-0.039-0.039-0.011 0.056zM19.033 23.072c0.017 0.056 0.050 0.083 0.067 0.067s0-0.061-0.039-0.1c-0.056-0.050-0.061-0.044-0.028 0.033zM20.978 23.15c-0.033 0.078-0.028 0.083 0.028 0.033 0.039-0.039 0.056-0.083 0.039-0.1s-0.050 0.011-0.067 0.067zM17.367 23.194c-0.017 0.050-0.033 0.133-0.028 0.183 0 0.050 0.028 0.022 0.056-0.067 0.050-0.178 0.033-0.267-0.028-0.117zM17.533 23.25c-0.017 0.050-0.028 0.194-0.028 0.322 0.011 0.222 0.011 0.217 0.050-0.072 0.039-0.328 0.033-0.394-0.022-0.25zM13.511 23.333c0 0.078 0.011 0.106 0.028 0.067 0.011-0.033 0.011-0.1 0-0.139-0.017-0.033-0.028-0.006-0.028 0.072zM19.122 23.333c0 0.078 0.011 0.106 0.028 0.067 0.011-0.033 0.011-0.1 0-0.139-0.017-0.033-0.028-0.006-0.028 0.072zM22.117 23.394c-0.033 0.1-0.061 0.206-0.056 0.239 0 0.033 0.039-0.039 0.083-0.156 0.044-0.122 0.067-0.228 0.056-0.239s-0.050 0.056-0.083 0.156zM13.672 23.517c-0.006 0.311 0.106 0.589 0.283 0.7 0.106 0.061 0.094 0.039-0.033-0.094-0.128-0.139-0.167-0.244-0.2-0.522-0.039-0.344-0.039-0.344-0.050-0.083zM18.961 23.556c0 0.139 0.011 0.194 0.022 0.122 0.011-0.067 0.011-0.178 0-0.25-0.011-0.067-0.022-0.011-0.022 0.128zM20.833 23.444c-0.050 0.033-0.056 0.056-0.017 0.056 0.033 0 0.083-0.028 0.1-0.056 0.044-0.067 0.022-0.067-0.083 0zM14.667 23.667c0 0.083 0.039 0.111 0.139 0.111 0.117 0 0.139 0.028 0.139 0.167 0 0.128-0.039 0.194-0.178 0.278-0.1 0.061-0.156 0.111-0.122 0.111s0.128-0.056 0.211-0.117c0.194-0.156 0.189-0.456-0.006-0.483-0.2-0.028-0.15-0.122 0.067-0.122h0.194v0.411c0 0.278-0.022 0.422-0.067 0.439s-0.033 0.033 0.028 0.033c0.083 0.006 0.094-0.050 0.094-0.467v-0.472h-0.25c-0.211 0-0.25 0.017-0.25 0.111zM21.817 23.817c-0.050 0.139-0.089 0.267-0.078 0.278s0.067-0.094 0.122-0.233c0.050-0.144 0.083-0.267 0.072-0.278s-0.067 0.094-0.117 0.233zM17.344 23.722c0 0.078 0.011 0.106 0.028 0.067 0.011-0.033 0.011-0.1 0-0.139-0.017-0.033-0.028-0.006-0.028 0.072zM20.078 23.689c-0.017 0.039-0.022 0.194-0.011 0.344l0.017 0.272 0.3 0.017c0.294 0.017 0.506-0.078 0.506-0.233 0-0.033-0.039 0-0.089 0.067-0.067 0.1-0.139 0.122-0.389 0.122h-0.3v-0.611h0.3c0.25 0 0.322 0.022 0.389 0.122 0.050 0.067 0.089 0.1 0.089 0.067s-0.044-0.1-0.1-0.15c-0.133-0.122-0.667-0.133-0.711-0.017zM20.95 23.706c0.039 0.067 0.083 0.111 0.1 0.094 0.017-0.011-0.017-0.067-0.072-0.122-0.094-0.089-0.1-0.089-0.028 0.028zM13.511 23.778c0 0.078 0.011 0.106 0.028 0.067 0.011-0.033 0.011-0.1 0-0.139-0.017-0.033-0.028-0.006-0.028 0.072zM19.117 23.756c0 0.061 0.017 0.078 0.033 0.033 0.017-0.039 0.011-0.089-0.006-0.106-0.017-0.022-0.033 0.011-0.028 0.072zM22.211 23.761c0.1 0.011 0.25 0.011 0.333 0s0-0.022-0.183-0.022-0.25 0.011-0.15 0.022zM22.833 23.75c0 0.028 0.028 0.094 0.056 0.139s0.056 0.056 0.056 0.028c0-0.033-0.028-0.094-0.056-0.139s-0.056-0.061-0.056-0.028zM17.556 23.883c0 0.033 0.022 0.072 0.056 0.089s0.039-0.006 0.022-0.050c-0.039-0.1-0.078-0.117-0.078-0.039zM18.889 23.878c0 0.033-0.067 0.139-0.15 0.244-0.122 0.15-0.128 0.161-0.022 0.072 0.15-0.128 0.25-0.3 0.206-0.35-0.017-0.017-0.033 0-0.033 0.033zM19.006 24.039c-0.056 0.144-0.056 0.15 0.022 0.050 0.044-0.061 0.083-0.128 0.083-0.156 0-0.083-0.039-0.044-0.106 0.106zM21.061 23.978c0 0.061 0.017 0.078 0.033 0.033 0.017-0.039 0.011-0.089-0.006-0.106-0.017-0.022-0.033 0.011-0.028 0.072zM21.894 24.061c-0.033 0.1-0.061 0.206-0.056 0.239 0 0.033 0.033-0.028 0.072-0.133l0.072-0.194h0.394c0.211 0 0.378-0.017 0.361-0.044-0.011-0.022-0.194-0.039-0.406-0.039-0.372 0-0.378 0-0.439 0.172zM13.556 23.994c0 0.033 0.022 0.072 0.056 0.089s0.039-0.006 0.022-0.050c-0.039-0.1-0.078-0.117-0.078-0.039zM17.506 24.15c0.039 0.067 0.083 0.111 0.1 0.094 0.017-0.011-0.017-0.067-0.072-0.122-0.094-0.089-0.1-0.089-0.028 0.028zM17.722 24.133c0 0.011 0.044 0.056 0.1 0.094 0.083 0.072 0.089 0.067 0.017-0.022s-0.117-0.117-0.117-0.072zM20.978 24.194c-0.050 0.144-0.039 0.178 0.028 0.067 0.033-0.056 0.050-0.117 0.033-0.128-0.011-0.017-0.039 0.011-0.061 0.061zM13.75 24.278c0.056 0.061 0.111 0.111 0.128 0.111s-0.017-0.050-0.072-0.111-0.111-0.111-0.128-0.111c-0.017 0 0.017 0.050 0.072 0.111zM18.75 24.333c-0.089 0.061-0.139 0.111-0.111 0.111 0.056 0 0.356-0.217 0.306-0.222-0.017 0-0.1 0.050-0.194 0.111zM17.733 24.367c0.056 0.056 0.111 0.089 0.122 0.072 0.017-0.017-0.028-0.061-0.094-0.1-0.117-0.072-0.117-0.067-0.028 0.028zM14.294 24.372c0.050 0.011 0.139 0.011 0.194 0 0.050-0.017 0.006-0.028-0.1-0.028s-0.15 0.011-0.094 0.028zM18.156 24.372c0.033 0.011 0.1 0.011 0.139 0 0.033-0.017 0.006-0.028-0.072-0.028s-0.106 0.011-0.067 0.028zM20.778 24.389c-0.050 0.033-0.056 0.056-0.017 0.056 0.033 0 0.083-0.028 0.1-0.056 0.044-0.067 0.022-0.067-0.083 0zM21.594 24.411c-0.028 0.067 0 0.089 0.1 0.089 0.078 0 0.139-0.028 0.139-0.061 0-0.028-0.028-0.039-0.061-0.017-0.033 0.017-0.083 0.006-0.106-0.033-0.028-0.044-0.050-0.039-0.072 0.022zM23.056 24.394c0 0.033-0.039 0.050-0.083 0.028-0.044-0.017-0.083-0.006-0.083 0.022 0 0.033 0.061 0.056 0.139 0.056 0.1 0 0.128-0.022 0.106-0.083-0.039-0.1-0.078-0.111-0.078-0.022zM11.983 24.511c-0.489 0.1-0.839 0.389-1.061 0.878-0.083 0.194-0.111 0.367-0.111 0.756-0.006 0.472 0.011 0.539 0.189 0.889 0.167 0.322 0.244 0.411 0.494 0.561 0.617 0.367 1.406 0.278 1.878-0.217 0.289-0.3 0.422-0.667 0.422-1.183 0-0.244-0.028-0.55-0.061-0.678-0.206-0.706-0.994-1.161-1.75-1.006zM12.667 25.067c0.739 0.372 0.733 1.806-0.006 2.183-0.461 0.239-1.022-0.044-1.189-0.606-0.261-0.867 0.133-1.667 0.833-1.694 0.067-0.006 0.228 0.050 0.361 0.117zM14.1 24.483c0.039 0.017 0.089 0.011 0.106-0.006 0.022-0.017-0.011-0.033-0.072-0.028-0.061 0-0.078 0.017-0.033 0.033zM14.544 24.483c0.039 0.017 0.089 0.011 0.106-0.006 0.022-0.017-0.011-0.033-0.072-0.028-0.061 0-0.078 0.017-0.033 0.033zM17.989 24.483c0.039 0.017 0.089 0.011 0.106-0.006 0.022-0.017-0.011-0.033-0.072-0.028-0.061 0-0.078 0.017-0.033 0.033zM20.039 24.483c0.1 0.011 0.278 0.011 0.389 0 0.117-0.011 0.039-0.022-0.178-0.022-0.211 0-0.306 0.011-0.211 0.022zM31.489 24.539c-0.194 0.122-0.267 0.294-0.267 0.656 0 0.3 0 0.306-0.167 0.306-0.156 0-0.167 0.011-0.167 0.222s0.011 0.222 0.167 0.222h0.167v1.833h0.528l-0.033-1.833h0.278c0.2 0 0.272-0.022 0.261-0.072-0.017-0.033-0.039-0.133-0.056-0.222-0.033-0.133-0.061-0.15-0.261-0.15h-0.233l0.033-0.256c0.033-0.311 0.094-0.378 0.35-0.378 0.172 0 0.194-0.017 0.167-0.117-0.017-0.061-0.033-0.156-0.033-0.211 0-0.078-0.050-0.094-0.289-0.094-0.178 0-0.356 0.039-0.444 0.094zM14.322 24.539c0.039 0.017 0.089 0.011 0.106-0.006 0.022-0.017-0.011-0.033-0.072-0.028-0.061 0-0.078 0.017-0.033 0.033zM18.211 24.539c0.039 0.017 0.089 0.011 0.106-0.006 0.022-0.017-0.011-0.033-0.072-0.028-0.061 0-0.078 0.017-0.033 0.033zM25.611 24.528s-0.006 0.733-0.017 1.628l-0.011 1.622h0.583v-1.278h0.156c0.133 0 0.206 0.083 0.567 0.644l0.417 0.639 0.25-0.033c0.139-0.022 0.272-0.056 0.3-0.083 0.022-0.028-0.139-0.311-0.361-0.644-0.383-0.55-0.406-0.6-0.306-0.656 0.417-0.244 0.567-0.528 0.522-0.989-0.033-0.311-0.167-0.522-0.439-0.683-0.156-0.089-0.322-0.117-0.928-0.139-0.4-0.017-0.733-0.028-0.733-0.028zM26.856 25.078c0.361 0.15 0.383 0.717 0.028 0.894-0.083 0.044-0.283 0.083-0.439 0.083h-0.278v-1.056h0.25c0.139 0 0.339 0.033 0.439 0.078zM15.333 25.5c-0.322 0.061-0.544 0.211-0.7 0.472-0.122 0.211-0.144 0.322-0.15 0.656 0 0.583 0.233 0.983 0.667 1.117 0.228 0.072 0.722 0.044 0.922-0.050 0.183-0.083 0.194-0.106 0.167-0.294-0.017-0.111-0.039-0.211-0.044-0.222-0.006-0.006-0.083 0.022-0.172 0.072-0.272 0.139-0.606 0.111-0.811-0.078-0.172-0.15-0.183-0.189-0.183-0.528 0-0.322 0.017-0.378 0.161-0.528 0.133-0.139 0.211-0.172 0.406-0.172 0.133 0 0.317 0.039 0.4 0.083 0.15 0.078 0.161 0.072 0.194-0.044 0.067-0.25 0.039-0.356-0.117-0.417-0.222-0.083-0.517-0.111-0.739-0.067zM17.65 25.5c-0.272 0.050-0.478 0.206-0.628 0.467-0.339 0.6-0.128 1.511 0.4 1.733 0.467 0.194 1.411 0.017 1.411-0.267 0-0.244-0.067-0.278-0.322-0.156-0.339 0.167-0.689 0.15-0.9-0.044-0.089-0.083-0.183-0.233-0.2-0.333l-0.033-0.178h1.456v-0.222c0-0.444-0.3-0.906-0.633-0.972-0.094-0.022-0.211-0.044-0.256-0.050-0.044-0.011-0.178 0-0.294 0.022zM18.156 25.956c0.061 0.072 0.133 0.194 0.15 0.278l0.039 0.156h-0.478c-0.261 0-0.478-0.011-0.478-0.028 0-0.106 0.172-0.417 0.261-0.467 0.167-0.094 0.378-0.067 0.506 0.061zM20.278 25.483c-0.106 0.011-0.3 0.044-0.433 0.083-0.239 0.061-0.244 0.061-0.206 0.261 0.022 0.111 0.044 0.206 0.050 0.217 0.011 0.006 0.122-0.028 0.256-0.072 0.472-0.167 0.889-0.056 0.889 0.244 0 0.083-0.056 0.117-0.289 0.144-0.844 0.117-1.228 0.506-1.044 1.056 0.078 0.233 0.233 0.35 0.5 0.361 0.35 0.017 0.428 0 0.633-0.139 0.111-0.078 0.217-0.139 0.228-0.139 0.017 0 0.028 0.061 0.028 0.139 0 0.128 0.022 0.139 0.239 0.139h0.233l-0.017-0.928c-0.006-0.589-0.039-0.983-0.078-1.061-0.117-0.228-0.517-0.35-0.989-0.306zM20.833 26.889c0 0.256-0.017 0.289-0.178 0.389-0.206 0.122-0.489 0.144-0.589 0.044s-0.078-0.35 0.044-0.461c0.089-0.083 0.5-0.228 0.683-0.244 0.022-0.006 0.039 0.122 0.039 0.272zM23.3 25.5c-0.194 0.044-0.522 0.228-0.522 0.289 0 0.022-0.022 0.044-0.056 0.044-0.028 0-0.056-0.078-0.056-0.167 0-0.161-0.011-0.167-0.233-0.167h-0.239v2.278h0.522l0.033-1.578 0.189-0.128c0.206-0.139 0.444-0.167 0.55-0.061 0.044 0.044 0.067 0.328 0.067 0.917v0.85h0.556v-0.889c0-1.139-0.061-1.311-0.5-1.4-0.078-0.017-0.217-0.011-0.311 0.011zM29.15 25.5c-0.272 0.050-0.478 0.206-0.628 0.467-0.339 0.6-0.128 1.511 0.4 1.733 0.467 0.194 1.411 0.017 1.411-0.267 0-0.244-0.067-0.278-0.322-0.156-0.339 0.167-0.689 0.15-0.9-0.044-0.089-0.083-0.183-0.233-0.2-0.333l-0.033-0.178h1.456v-0.222c0-0.444-0.3-0.906-0.633-0.972-0.094-0.022-0.211-0.044-0.256-0.050-0.044-0.011-0.178 0-0.294 0.022zM29.656 25.956c0.061 0.072 0.133 0.194 0.15 0.278l0.039 0.156h-0.478c-0.261 0-0.478-0.011-0.478-0.028 0-0.106 0.172-0.417 0.261-0.467 0.167-0.094 0.378-0.067 0.506 0.061zM36.106 25.5c-0.372 0.106-0.606 0.406-0.606 0.783 0 0.2 0.178 0.522 0.317 0.572 0.078 0.033 0.072 0.050-0.033 0.161-0.122 0.133-0.156 0.394-0.061 0.456 0.028 0.017-0.044 0.128-0.167 0.244-0.494 0.472-0.083 0.894 0.872 0.894 0.433 0 0.706-0.083 0.933-0.283 0.322-0.283 0.311-0.683-0.028-0.856-0.094-0.050-0.4-0.122-0.672-0.167-0.278-0.039-0.517-0.089-0.533-0.106s-0.017-0.067 0-0.117c0.028-0.056 0.111-0.083 0.294-0.083 0.533 0 0.856-0.283 0.856-0.75 0-0.306 0.044-0.361 0.283-0.361 0.089 0 0.1-0.028 0.067-0.183-0.017-0.094-0.039-0.189-0.050-0.2-0.006-0.011-0.128 0.028-0.261 0.078-0.222 0.083-0.261 0.083-0.411 0.011-0.189-0.1-0.6-0.15-0.8-0.094zM36.678 25.944c0.139 0.144 0.161 0.2 0.133 0.344-0.050 0.25-0.183 0.378-0.406 0.378-0.233 0-0.406-0.167-0.406-0.394 0-0.217 0.089-0.378 0.239-0.439 0.2-0.078 0.261-0.061 0.439 0.111zM36.872 27.783c0.461 0.144 0.144 0.55-0.428 0.55-0.389 0-0.739-0.222-0.633-0.406 0.139-0.239 0.206-0.272 0.55-0.233 0.183 0.017 0.411 0.061 0.511 0.089zM38.928 25.5c-0.572 0.106-0.894 0.733-0.761 1.45 0.067 0.35 0.278 0.644 0.55 0.756 0.461 0.194 1.394 0.011 1.394-0.272 0-0.244-0.067-0.278-0.322-0.156-0.339 0.167-0.689 0.15-0.9-0.044-0.089-0.083-0.183-0.233-0.2-0.333l-0.033-0.178h1.456v-0.222c0-0.444-0.3-0.906-0.633-0.972-0.094-0.022-0.211-0.044-0.256-0.050-0.044-0.011-0.178 0-0.294 0.022zM39.433 25.956c0.061 0.072 0.133 0.194 0.15 0.278l0.039 0.156h-0.478c-0.261 0-0.478-0.011-0.478-0.028 0-0.106 0.172-0.417 0.261-0.467 0.167-0.094 0.378-0.067 0.506 0.061zM32.833 26.344c0 1.233 0.083 1.422 0.628 1.439 0.206 0.011 0.317-0.022 0.539-0.161l0.278-0.172v0.161c0 0.161 0.011 0.167 0.25 0.167h0.25v-2.278h-0.55l-0.033 1.578-0.189 0.128c-0.228 0.156-0.4 0.161-0.522 0.028-0.078-0.089-0.094-0.239-0.094-0.917v-0.817h-0.556v0.844zM24.211 28.706c0.039 0.017 0.089 0.011 0.106-0.006 0.022-0.017-0.011-0.033-0.072-0.028-0.061 0-0.078 0.017-0.033 0.033zM27.989 28.706c0.039 0.017 0.089 0.011 0.106-0.006 0.022-0.017-0.011-0.033-0.072-0.028-0.061 0-0.078 0.017-0.033 0.033zM25.389 28.767c0 0.028 0.039 0.094 0.089 0.156 0.078 0.1 0.083 0.1 0.017-0.028-0.056-0.122-0.050-0.128 0.056-0.1 0.067 0.017 0.106 0.006 0.083-0.022-0.039-0.061-0.244-0.067-0.244-0.006zM26.472 28.9c-0.078 0.161-0.078 0.172 0 0.078 0.044-0.061 0.083-0.133 0.083-0.161s0.050-0.039 0.111-0.022c0.061 0.017 0.128 0.006 0.144-0.022s-0.033-0.050-0.111-0.050c-0.106 0-0.167 0.050-0.228 0.178zM28.361 28.806c0.089 0.072 0.094 0.094 0.033 0.133-0.039 0.028-0.050 0.061-0.022 0.078s0.078-0.011 0.111-0.067c0.056-0.089 0.039-0.111-0.083-0.167-0.144-0.061-0.144-0.056-0.039 0.022zM29.167 28.833c0 0.1 0.039 0.111 0.306 0.111h0.306v0.833c0 0.828 0 0.833 0.128 0.828 0.089-0.006 0.094-0.017 0.028-0.033-0.083-0.022-0.1-0.122-0.111-0.839l-0.017-0.817-0.289-0.017c-0.161-0.011-0.294-0.039-0.294-0.072 0-0.028 0.294-0.050 0.694-0.050 0.706 0 0.972 0.089 0.378 0.128l-0.322 0.017 0.35 0.011c0.311 0.011 0.344 0 0.344-0.1 0-0.106-0.039-0.111-0.75-0.111s-0.75 0.006-0.75 0.111zM31.472 28.756c0.4 0.044 0.861 0.044 0.861 0.006 0-0.022-0.233-0.033-0.511-0.028-0.283 0-0.439 0.017-0.35 0.022zM33.394 28.872c0.011 0.133 0.011 0.139 0.033 0.028 0.039-0.211 0.156-0.139 0.289 0.189 0.167 0.4 0.206 0.361 0.044-0.050-0.1-0.25-0.144-0.317-0.244-0.317-0.106 0-0.128 0.028-0.122 0.15zM34.667 28.761c0 0.028 0.061 0.044 0.139 0.044s0.139-0.017 0.139-0.044c0-0.022-0.061-0.039-0.139-0.039s-0.139 0.017-0.139 0.039zM23.806 28.889c-0.056 0.061-0.089 0.122-0.078 0.133s0.067-0.039 0.122-0.111c0.122-0.161 0.094-0.178-0.044-0.022zM24.644 28.839c0.022 0.033 0.006 0.083-0.033 0.106s-0.044 0.056-0.017 0.072c0.028 0.017 0.078-0.017 0.117-0.072 0.050-0.078 0.044-0.106-0.022-0.133-0.050-0.022-0.067-0.011-0.044 0.028zM27.583 28.889c-0.056 0.061-0.089 0.122-0.078 0.133s0.067-0.039 0.122-0.111c0.122-0.161 0.094-0.178-0.044-0.022zM24.211 28.872c0.033 0.011 0.1 0.011 0.139 0 0.033-0.017 0.006-0.028-0.072-0.028s-0.106 0.011-0.067 0.028zM27.989 28.872c0.033 0.011 0.1 0.011 0.139 0 0.033-0.017 0.006-0.028-0.072-0.028s-0.106 0.011-0.067 0.028zM25.678 28.917c0.039 0.117 0.328 0.639 0.35 0.639 0.017 0-0.033-0.117-0.106-0.267-0.139-0.261-0.283-0.478-0.244-0.372zM26.611 29c-0.033 0.061-0.044 0.111-0.033 0.111 0.017 0 0.056-0.050 0.089-0.111s0.044-0.111 0.033-0.111c-0.017 0-0.056 0.050-0.089 0.111zM31.539 28.928c-0.022 0.017-0.039 0.183-0.039 0.361v0.322h0.333c0.428 0 0.439 0.1 0.017 0.122l-0.322 0.017v0.667l0.406 0.017c0.217 0.011 0.4 0.039 0.4 0.067s-0.233 0.061-0.511 0.072l-0.517 0.017 0.544 0.011c0.506 0.011 0.539 0.006 0.539-0.1 0-0.1-0.039-0.111-0.417-0.111h-0.417v-0.611h0.333c0.294 0 0.333-0.011 0.333-0.111s-0.039-0.111-0.333-0.111h-0.333v-0.606l0.406-0.022 0.4-0.017-0.394-0.011c-0.217-0.006-0.411 0.006-0.428 0.028zM25.639 29.222c0.050 0.089 0.1 0.167 0.117 0.167 0.011 0-0.011-0.078-0.061-0.167-0.050-0.094-0.1-0.167-0.117-0.167-0.011 0 0.011 0.072 0.061 0.167zM23.672 29.2c0 0.061 0.017 0.078 0.033 0.033 0.017-0.039 0.011-0.089-0.006-0.106-0.017-0.022-0.033 0.011-0.028 0.072zM26.261 29.272c-0.050 0.089-0.094 0.183-0.094 0.211 0 0.022 0.050-0.039 0.117-0.144 0.061-0.1 0.1-0.194 0.094-0.206-0.011-0.011-0.067 0.056-0.117 0.139zM27.478 29.25c0.017 0.089 0.083 0.217 0.15 0.278l0.117 0.111-0.089-0.111c-0.044-0.061-0.117-0.189-0.15-0.278l-0.061-0.167 0.033 0.167z"></path>
<path d="M26.394 29.367c-0.067 0.111-0.111 0.211-0.1 0.222s0.078-0.078 0.144-0.2c0.156-0.278 0.117-0.294-0.044-0.022zM33.35 29.389c0 0.139 0.011 0.194 0.022 0.122 0.011-0.067 0.011-0.178 0-0.25-0.011-0.067-0.022-0.011-0.022 0.128zM34.478 29.25c-0.050 0.144-0.039 0.178 0.028 0.067 0.033-0.056 0.050-0.117 0.033-0.128-0.011-0.017-0.039 0.011-0.061 0.061zM34.961 29.417c0 0.15 0.011 0.211 0.022 0.122 0.011-0.083 0.011-0.206 0-0.278-0.011-0.067-0.022 0-0.022 0.156zM34.794 29.472c0 0.15 0.011 0.211 0.022 0.122 0.011-0.083 0.011-0.206 0-0.278-0.011-0.067-0.022 0-0.022 0.156zM23.972 29.389c0.056 0.061 0.111 0.111 0.128 0.111s-0.017-0.050-0.072-0.111-0.111-0.111-0.128-0.111c-0.017 0 0.017 0.050 0.072 0.111zM27.75 29.389c0.056 0.061 0.111 0.111 0.128 0.111s-0.017-0.050-0.072-0.111-0.111-0.111-0.128-0.111c-0.017 0 0.017 0.050 0.072 0.111zM33.517 29.5c0 0.139 0.011 0.194 0.022 0.122 0.011-0.067 0.011-0.178 0-0.25-0.011-0.067-0.022-0.011-0.022 0.128zM23.722 29.372c0 0.028 0.056 0.1 0.128 0.161l0.122 0.106-0.111-0.139c-0.061-0.078-0.117-0.15-0.122-0.161-0.011-0.011-0.017 0-0.017 0.033zM25.833 29.556c0.033 0.061 0.072 0.111 0.089 0.111 0.011 0 0-0.050-0.033-0.111s-0.072-0.111-0.089-0.111c-0.011 0 0 0.050 0.033 0.111zM33.722 29.472c0 0.028 0.028 0.094 0.056 0.139s0.056 0.056 0.056 0.028c0-0.033-0.028-0.094-0.056-0.139s-0.056-0.061-0.056-0.028zM33.889 29.494c0 0.033 0.022 0.072 0.056 0.089s0.039-0.006 0.022-0.050c-0.039-0.1-0.078-0.117-0.078-0.039zM34.317 29.678c-0.050 0.128-0.083 0.239-0.072 0.25s0.061-0.083 0.111-0.211c0.050-0.128 0.083-0.239 0.072-0.25s-0.061 0.083-0.111 0.211zM34.511 29.583c-0.094 0.206-0.078 0.25 0.022 0.067 0.050-0.089 0.078-0.172 0.061-0.183-0.011-0.011-0.050 0.039-0.083 0.117zM24.206 29.561c0.039 0.039 0.083 0.056 0.1 0.039s-0.011-0.050-0.067-0.067c-0.078-0.033-0.083-0.028-0.033 0.028zM27.983 29.561c0.039 0.039 0.083 0.056 0.1 0.039s-0.011-0.050-0.067-0.067c-0.078-0.033-0.083-0.028-0.033 0.028zM24.078 29.689c0.061 0.050 0.133 0.089 0.167 0.089 0.067 0 0.039-0.028-0.133-0.106-0.133-0.061-0.133-0.061-0.033 0.017zM27.856 29.689c0.061 0.050 0.133 0.089 0.167 0.089 0.067 0 0.039-0.028-0.133-0.106-0.133-0.061-0.133-0.061-0.033 0.017zM24.589 29.778c0.067 0.078 0.133 0.178 0.15 0.222 0.028 0.072 0.033 0.072 0.033-0.006 0.006-0.044-0.061-0.144-0.144-0.222l-0.156-0.133 0.117 0.139zM26.206 29.706c-0.022 0.017-0.039 0.217-0.039 0.439 0 0.339-0.017 0.406-0.094 0.428s-0.072 0.028 0.022 0.033c0.111 0.006 0.122-0.022 0.139-0.467 0.011-0.261 0.017-0.472 0.011-0.472 0 0-0.022 0.017-0.039 0.039zM34.006 29.75c0.006 0.106 0.1 0.283 0.1 0.194 0-0.044-0.022-0.122-0.050-0.167s-0.050-0.061-0.050-0.028zM28.483 29.95c0.022 0.072 0.044 0.1 0.061 0.056 0.011-0.039-0.006-0.1-0.033-0.128-0.044-0.044-0.050-0.022-0.028 0.072zM33.294 30.083c0 0.15 0.011 0.211 0.022 0.122 0.011-0.083 0.011-0.206 0-0.278-0.011-0.067-0.022 0-0.022 0.156zM34.85 30.139c0 0.183 0.011 0.25 0.022 0.15s0.011-0.25 0-0.333-0.022 0-0.022 0.183zM35.017 30.111c0 0.167 0.011 0.239 0.022 0.15 0.011-0.083 0.011-0.217 0-0.306-0.011-0.083-0.022-0.011-0.022 0.156zM24.533 30.056c0.044 0.239 0.078 0.283 0.078 0.106 0-0.072-0.028-0.172-0.056-0.217-0.039-0.061-0.044-0.028-0.022 0.111zM28.311 30.056c0.044 0.239 0.078 0.283 0.078 0.106 0-0.072-0.028-0.172-0.056-0.217-0.039-0.061-0.044-0.028-0.022 0.111zM33.944 29.956c-0.006 0.128 0.144 0.322 0.244 0.317 0.106 0 0.106-0.006 0.011-0.044-0.056-0.022-0.133-0.1-0.178-0.178-0.039-0.072-0.072-0.117-0.078-0.094zM34.311 30.028c-0.050 0.144-0.039 0.178 0.028 0.067 0.033-0.056 0.050-0.117 0.033-0.128-0.011-0.017-0.039 0.011-0.061 0.061zM33.461 30.25c0 0.15 0.011 0.211 0.022 0.122 0.011-0.083 0.011-0.206 0-0.278-0.011-0.067-0.022 0-0.022 0.156zM28.472 30.333c-0.022 0.061-0.1 0.15-0.183 0.194s-0.117 0.078-0.078 0.083c0.083 0 0.344-0.244 0.344-0.333 0-0.094-0.044-0.061-0.083 0.056zM23.7 30.361c-0.033 0.089 0.161 0.25 0.3 0.25 0.044-0.006 0-0.039-0.106-0.083-0.156-0.072-0.172-0.094-0.117-0.167 0.039-0.050 0.044-0.083 0.011-0.083-0.028 0-0.067 0.039-0.089 0.083zM23.928 30.394c0.039 0.039 0.083 0.056 0.1 0.039s-0.011-0.050-0.067-0.067c-0.078-0.033-0.083-0.028-0.033 0.028zM24.528 30.506c-0.089 0.056-0.139 0.106-0.106 0.106 0.039 0 0.122-0.050 0.194-0.111 0.167-0.133 0.128-0.133-0.089 0.006zM27.572 30.511c0.061 0.056 0.15 0.1 0.2 0.094 0.056 0 0.039-0.022-0.044-0.056-0.078-0.028-0.167-0.072-0.2-0.094s-0.011 0.006 0.044 0.056zM24.156 30.483c0.033 0.011 0.1 0.011 0.139 0 0.033-0.017 0.006-0.028-0.072-0.028s-0.106 0.011-0.067 0.028zM27.989 30.483c0.039 0.017 0.089 0.011 0.106-0.006 0.022-0.017-0.011-0.033-0.072-0.028-0.061 0-0.078 0.017-0.033 0.033zM33.267 30.594c0.033 0.011 0.1 0.011 0.139 0 0.033-0.017 0.006-0.028-0.072-0.028s-0.106 0.011-0.067 0.028zM34.933 30.594c0.033 0.011 0.1 0.011 0.139 0 0.033-0.017 0.006-0.028-0.072-0.028s-0.106 0.011-0.067 0.028zM24.211 30.65c0.039 0.017 0.089 0.011 0.106-0.006 0.022-0.017-0.011-0.033-0.072-0.028-0.061 0-0.078 0.017-0.033 0.033zM27.989 30.65c0.039 0.017 0.089 0.011 0.106-0.006 0.022-0.017-0.011-0.033-0.072-0.028-0.061 0-0.078 0.017-0.033 0.033z"></path>
</symbol>
<symbol id="icon-oceana" viewBox="0 0 272 32">
<path d="M4.75 0.5c-2.25 0.35-4.25 1.3-4.25 2 0 0.25 0.75 0.8 1.65 1.15 3 1.25 3.2 2.050 1.6 5.25-1.7 3.45-2.2 8.45-1.25 11.95l0.7 2.3 0.65-3.2c0.95-4.9 2.95-8.3 6.4-11.1 1.7-1.35 4.050-2.7 5.45-3.1 3.050-0.9 8.9-0.95 11.4-0.050 1.75 0.6 1.8 0.6 1.25-0.3-1.2-1.9-5.65-3.55-10.8-3.95-2.65-0.2-5.25-0.5-5.8-0.65-1.9-0.45-5-0.6-7-0.3zM42.75 5.7c-4.85 2.25-7.3 5.95-7.65 11.45-0.3 4.5 0.6 7.35 3.050 10.2 2.8 3.1 5.2 4.15 9.85 4.15 4.050 0 7-1 8.7-2.95 0.95-1.050 0.95-1.050-0.2-2.3-1.3-1.4-2.65-1.55-4.5-0.5-1.65 0.95-4.7 0.95-6.7 0-4.55-2.15-5.3-11.050-1.25-14.45 2.050-1.75 4.65-2.15 7.5-1.15 3.3 1.2 4.2 1.050 5.5-0.7 1.1-1.55 1.1-1.6 0.15-2.3-3.75-2.9-10-3.55-14.45-1.45zM60.5 18.25v13.25h17.5v-1.15c0-0.6-0.35-1.65-0.8-2.25-0.7-1-1.15-1.1-5.5-1.1h-4.7v-6.45l8.25-0.3 0.15-2.15 0.15-2.1h-8.55v-6.5h4.7c4.35 0 4.8-0.1 5.5-1.1 0.45-0.6 0.8-1.65 0.8-2.25v-1.15h-17.5v13.25zM89.8 5.45c-0.35 0.5-6.15 15.3-8.55 21.65l-1.65 4.4h2.95c3.25 0 3.75-0.45 4.95-4.15l0.6-1.9 10.1 0.3 0.8 2.45c0.5 1.3 1.15 2.6 1.55 2.85s1.9 0.45 3.4 0.45c2.35 0 2.6-0.1 2.3-0.9-0.2-0.45-2.35-6.15-4.85-12.6s-4.75-12.050-5-12.4c-0.6-0.7-6.2-0.85-6.6-0.15zM96.5 21.1c0 0.45-6.2 0.55-6.6 0.1-0.25-0.2 1.7-6.75 2.9-9.7 0.25-0.65 3.7 8.3 3.7 9.6zM108.5 18.25v13.25h2.5c3.45 0 3.6-0.5 3.4-9.3-0.1-3.95-0.1-7.2-0.050-7.2 0 0 3 3.7 6.6 8.25l6.55 8.25h4.5v-26.5h-2.5c-3.1 0-3.1 0-2.9 9.15 0.1 3.75 0.050 6.85-0.15 6.85-0.15 0-3.1-3.6-6.6-8l-6.35-8h-5v13.25zM140.851 14.85c-2.1 5.45-4.4 11.45-5.1 13.3l-1.25 3.4 6.25-0.3 2.2-5.5h10.2l0.8 2.35c1.1 3.2 1.45 3.5 4.65 3.3l2.75-0.15-2.1-5.5c-5.85-15.35-7.75-19.95-8.35-20.3-0.35-0.25-1.9-0.45-3.45-0.45h-2.8l-3.8 9.85zM149.951 16.4c0.8 2.5 1.3 4.7 1.15 4.85-0.4 0.4-6.6 0.3-6.6-0.1 0-1.2 3.3-10.050 3.6-9.75 0.2 0.2 1.050 2.45 1.85 5zM168.001 10c0 2.8 0.2 5 0.45 5 0.3 0 0.55-0.85 0.65-1.9 0.15-1.8 0.2-1.85 2.25-2 1.5-0.1 2.35-0.5 2.9-1.25 1.050-1.5 0.95-2.2-0.5-3.6-0.9-0.95-1.75-1.25-3.5-1.25h-2.25v5zM173.001 6.75c1 1.2 0.2 3.15-1.5 3.5-0.8 0.2-1.7 0.2-2 0-0.55-0.35-0.7-3.4-0.15-3.9 0.6-0.65 3-0.35 3.65 0.4zM216.001 5.75c0 0.4 0.35 0.75 0.75 0.75s0.75-0.35 0.75-0.75-0.35-0.75-0.75-0.75-0.75 0.35-0.75 0.75zM243.501 10c0 4.050 0.15 5 0.75 5 0.5 0 0.75-0.75 0.85-2.9 0.15-2.65 0.25-2.85 1.4-2.85s1.25 0.2 1.4 2.85c0.1 2.15 0.35 2.9 0.85 2.9 0.55 0 0.75-0.65 0.75-2.65 0-3.4-0.45-4-2.7-3.75-1.8 0.2-1.8 0.2-1.8-1.7 0-1.35-0.2-1.9-0.75-1.9-0.6 0-0.75 0.9-0.75 5zM191.001 7c0 0.5-0.4 1.2-0.85 1.45-0.5 0.3-0.6 0.55-0.25 0.55s0.6 0.7 0.6 1.85c0 3.3 0.45 4.15 2.050 4.15 0.8 0 1.45-0.25 1.45-0.5 0-0.3-0.45-0.5-1-0.5-0.85 0-1-0.35-1-2.45 0-2.15 0.15-2.5 1.15-2.7l1.1-0.2-1.1-0.1c-0.85-0.050-1.15-0.35-1.15-1.3 0-0.7-0.2-1.25-0.5-1.25-0.25 0-0.5 0.45-0.5 1zM211.501 6.6c0 0.3-0.35 1-0.85 1.5-0.45 0.5-0.55 0.9-0.25 0.9s0.6 1.2 0.7 2.85c0.15 2.75 0.2 2.9 1.55 3.050 0.75 0.1 1.35-0.050 1.35-0.35s-0.35-0.55-0.75-0.55c-1.15 0-1.050-4.85 0.15-5.15 0.8-0.2 0.8-0.25 0-0.3-0.6-0.050-0.9-0.45-0.9-1.3 0-0.7-0.2-1.25-0.5-1.25-0.25 0-0.5 0.25-0.5 0.6zM239.001 6.6c0 0.3-0.35 1-0.85 1.5-0.45 0.5-0.55 0.9-0.25 0.9s0.6 1.2 0.7 2.85c0.15 2.75 0.2 2.9 1.55 3.050 0.75 0.1 1.35-0.050 1.35-0.35s-0.35-0.55-0.75-0.55c-1.15 0-1.050-4.85 0.15-5.15 0.8-0.2 0.8-0.25 0-0.3-0.6-0.050-0.9-0.45-0.9-1.3 0-0.7-0.2-1.25-0.5-1.25-0.25 0-0.5 0.25-0.5 0.6z"></path>
<path d="M22.5 7.55c0 0.2 0.3 0.6 0.7 0.8 1.75 1 2.9 4.1 2.95 7.8 0.050 6.35-2.6 10.050-7.65 10.7-5.8 0.8-9.75-2.55-10.45-8.85l-0.35-2.75-1.1 2.9c-0.7 1.8-1.1 4-1.1 5.9 0 2.5 0.2 3.2 1.25 4.25 3.050 3.050 9.95 4.45 14.85 3 7.8-2.25 12.15-9.15 10.85-17.25-0.45-2.8-1.35-4.2-3.45-5.3-1.65-0.85-6.5-1.75-6.5-1.2zM177.001 11.35c0 4.2 0.85 5 1.1 1 0.15-2.25 0.3-2.6 1.3-2.75 0.6-0.1 1.1-0.5 1.1-0.9 0-0.85-0.25-0.85-1.5-0.1-0.85 0.55-1.1 0.5-1.5-0.1-0.35-0.5-0.5 0.4-0.5 2.85zM182.751 9.25c-1.1 1.050-1.3 1.6-1.050 2.9 0.4 2 1.5 2.85 3.6 2.85 1.9 0 3.2-1.45 3.2-3.5 0-1.8-0.95-2.95-2.85-3.3-1.3-0.25-1.85-0.050-2.9 1.050zM186.651 10c1.5 2.15-0.45 5.15-2.65 4-1.15-0.6-1.4-3.4-0.4-4.4 0.9-0.9 2.25-0.7 3.050 0.4zM196.751 9.25c-1.4 1.35-1.5 2.1-0.65 4 0.85 1.85 4.75 2.5 5.3 0.85 0.15-0.45-0.15-0.5-1.15-0.1-1.65 0.6-3.25-0.1-3.25-1.5 0-0.85 0.35-1 2.5-1 2.8 0 3.25-0.75 1.5-2.5-1.35-1.35-2.8-1.25-4.25 0.25zM200.501 9.2c0 0.1 0.15 0.55 0.3 1 0.25 0.65-0.1 0.8-1.75 0.8-1.95 0-2.65-0.7-1.7-1.65 0.35-0.4 3.15-0.5 3.15-0.15zM204.651 8.75c-2.15 1.5-1.8 5.45 0.6 6.050 1.55 0.4 3.9-0.15 3.5-0.8-0.2-0.35-0.7-0.3-1.3 0.050-2.15 1.1-4.1-2.95-2.2-4.55 0.4-0.35 1.3-0.5 2-0.4 1.4 0.3 1.7-0.3 0.45-0.8-1.2-0.45-1.9-0.35-3.050 0.45zM219.851 8.35c-0.2 0.15-0.35 1.75-0.35 3.5 0 2.4 0.15 3.15 0.75 3.15 0.5 0 0.75-0.75 0.85-2.9 0.15-2.55 0.25-2.85 1.35-3 1.55-0.25 2.050 0.6 2.050 3.5 0 1.35 0.25 2.4 0.5 2.4 0.3 0 0.5-1.3 0.5-2.95 0-3.65-0.8-4.55-3.15-3.65-1 0.4-1.65 0.4-1.85 0.1s-0.45-0.35-0.65-0.15zM228.401 8.5c-1.050 0.65-1.2 2.8-0.25 3.15 0.45 0.15 0.45 0.35-0.050 1-0.4 0.45-0.55 1.050-0.35 1.4 0.2 0.3 0.050 0.75-0.3 1-0.55 0.3-0.55 0.65-0.15 1.3 0.8 1.3 4.6 1.25 5.5-0.1 0.95-1.4 0.2-2.3-2.25-2.6-2.4-0.35-2.5-1.3-0.15-1.55 1.25-0.15 1.65-0.45 1.95-1.5 0.15-0.75 0.55-1.5 0.85-1.7 0.35-0.25 0.25-0.4-0.25-0.4-0.45 0-1.45-0.1-2.25-0.25s-1.85 0-2.3 0.25zM231.251 10.25c0 0.7-0.4 1.050-1.35 1.15-1.2 0.15-1.4 0-1.4-1.15s0.2-1.3 1.4-1.15c0.95 0.1 1.35 0.45 1.35 1.15zM231.751 15.75c0 0.75-0.4 1.050-1.45 1.15-1.65 0.2-2.55-0.5-2.1-1.65 0.45-1.25 3.55-0.8 3.55 0.5zM252.151 9.3c-1 1-1.2 1.55-0.95 2.85 0.15 0.9 0.7 1.9 1.2 2.25 1.050 0.8 4.2 0.6 4.5-0.3 0.15-0.45-0.15-0.5-1.15-0.1-1.65 0.6-3.25-0.1-3.25-1.5 0-0.85 0.35-1 2.5-1 2.8 0 3.25-0.75 1.5-2.5-1.35-1.35-2.8-1.25-4.35 0.3zM256.001 9.2c0 0.1 0.15 0.55 0.3 1 0.25 0.65-0.1 0.8-1.75 0.8-1.95 0-2.65-0.7-1.7-1.65 0.35-0.4 3.15-0.5 3.15-0.15zM216.001 11.75c0 2.55 0.15 3.25 0.75 3.25s0.75-0.7 0.75-3.25-0.15-3.25-0.75-3.25-0.75 0.7-0.75 3.25zM201.901 26.25c-0.1 3.95 0 5.25 0.5 5.25 0.45 0 0.6-1.4 0.6-5.25 0-2.95-0.2-5.25-0.45-5.25-0.3 0-0.55 2.35-0.65 5.25zM210.251 21.5c-0.2 0.3-0.25 1.1-0.15 1.85 0.15 1.25 0 1.35-1.85 1.35-1.55 0.050-2.1 0.3-2.6 1.3-0.7 1.35-0.5 3.7 0.4 4.85 0.7 0.8 2.55 0.85 3.4 0 0.55-0.45 0.7-0.45 0.9 0 0.7 1.9 1.15 0.050 1.15-4.6 0-4.8-0.35-6.15-1.25-4.75zM209.201 25.3c1.15 0.45 1.1 4.5-0.050 5.15-0.55 0.3-1.2 0.3-1.75 0-1.25-0.65-1.25-4.2 0-4.9 1.050-0.65 0.85-0.6 1.8-0.25zM213.751 22.5c0 0.8 0.15 1.5 0.35 1.5 0.5 0 1-1.9 0.65-2.5-0.6-0.95-1-0.5-1 1zM172.501 21.6c0.45 2.55 3 9.7 3.55 9.8 0.5 0.1 1.050-1.1 1.9-3.9 0.65-2.2 1.35-3.9 1.5-3.75 0.2 0.1 0.9 1.9 1.55 3.95 0.65 2.15 1.45 3.8 1.8 3.8 0.4 0 1.2-1.8 1.95-4.4 0.75-2.4 1.4-4.65 1.5-5 0.15-0.3-0.1-0.6-0.5-0.6-0.7 0-2.25 4.2-2.25 6.15 0 2-1.3 0.4-2.25-2.8-0.9-3.1-2-4.25-2.5-2.75-0.1 0.35-0.7 2.1-1.3 3.85l-1.15 3.2-1.15-3.8c-0.8-2.55-1.45-3.85-1.9-3.85-0.4 0-0.75 0.050-0.75 0.1zM226.501 22.5c-1.050 0.8-1.25 1.35-1.25 3.75s0.2 3 1.2 3.8c4.75 3.85 10.65-1.050 7.8-6.5-1.15-2.25-5.45-2.8-7.75-1.050zM232.501 23.5c1.55 1.55 1.35 4.65-0.3 5.95-1.7 1.3-2.7 1.3-4.4 0-2.7-2.15-1.2-6.95 2.2-6.95 0.85 0 1.95 0.45 2.5 1zM188.151 25.1c-1.7 2.1-1 5.65 1.25 6.25 2.95 0.7 5.55-2.65 4.050-5.25-0.55-1.050-1.15-1.4-2.75-1.5-1.25-0.1-2.25 0.1-2.55 0.5zM191.901 25.6c0.35 0.35 0.6 1.3 0.6 2.15 0 1.8-0.75 2.75-2.3 2.75-1.2 0-1.7-0.85-1.7-2.95 0-1.5 0.8-2.55 2-2.55 0.45 0 1.050 0.25 1.4 0.6zM195.751 28c0 2.4 0.2 3.5 0.6 3.5 0.35 0 0.65-1 0.75-2.6 0.1-2.2 0.35-2.75 1.3-3.15 0.6-0.25 1.1-0.65 1.1-0.85 0-0.6-1.25-0.45-1.95 0.2-0.55 0.5-0.7 0.5-0.9 0-0.55-1.45-0.9-0.35-0.9 2.9zM216.851 24.85c-0.2 0.15-0.35 0.85-0.35 1.5 0 0.85 0.45 1.35 1.75 1.85 1.85 0.8 2.3 2 0.95 2.5-0.4 0.15-1.2 0.050-1.75-0.2-0.65-0.35-0.95-0.35-0.95-0.050 0 1 2.45 1.2 3.8 0.3 1.65-1.050 1.35-2.3-0.8-3.3-2.25-1.1-2.3-2.25-0.15-2.15 0.9 0.050 1.5-0.1 1.35-0.35-0.3-0.5-3.35-0.6-3.85-0.1zM237.451 25.3c-0.95 1.15-0.8 4 0.3 5.2 0.9 1 2.050 1.25 3.45 0.7 1.25-0.5 0.95-1.1-0.45-0.8-1.7 0.3-2.75-0.7-2.75-2.65 0-2 1.050-2.95 2.8-2.55 0.85 0.25 1.15 0.15 0.95-0.2-0.5-0.8-3.55-0.6-4.3 0.3zM244.351 25.4c-0.5 0.5-0.85 1.65-0.85 2.5 0 2.9 3 4.55 5.25 2.95 0.8-0.6 0.65-0.7-1.3-0.65-1.9 0.050-2.2-0.1-2.35-1.1s0.050-1.1 2.1-1.1c2.050 0 2.3-0.1 2.3-1.15 0-0.65-0.25-1.4-0.6-1.75-0.9-0.9-3.65-0.7-4.55 0.3zM248.401 26.1c0.15 0.75-0.2 0.9-1.6 0.9-1.7 0-2.35-0.75-1.45-1.7 0.65-0.65 2.9-0.050 3.050 0.8zM252.251 25c-0.2 0.3 0.25 0.35 1.2 0.2 1.15-0.25 1.55-0.1 2.050 0.75 0.4 0.85 0.4 1.1-0.1 1.25-3.3 0.85-3.65 1.1-3.8 2.45-0.2 1.65 0.9 2.25 2.8 1.4 0.9-0.45 1.4-0.45 1.5-0.1 0.45 1.4 1.1 0.3 1.1-2 0-3.45-0.6-4.45-2.75-4.45-0.9 0-1.85 0.2-2 0.5zM255.851 28.85c0.25 0.75-2.1 2.35-2.85 1.9-0.7-0.45-0.65-2.1 0.15-2.45 0.95-0.4 2.5-0.1 2.7 0.55zM259.501 28.1c0 1.95 0.2 3.4 0.5 3.4s0.5-1.2 0.5-2.7c0-3 0.95-4.4 2.4-3.45 0.6 0.35 0.9 1.35 1 3.35 0.1 1.55 0.35 2.8 0.65 2.8s0.45-1.35 0.35-3.4l-0.15-3.35h-5.25v3.35zM267.351 24.85c-0.7 0.65-0.35 2.7 0.55 2.95 1.6 0.5 2.35 1.050 2.5 1.8 0.2 1-1.25 1.55-2.45 0.9-0.6-0.35-0.95-0.35-0.95-0.050 0 0.7 1.8 1.15 3 0.8 1.15-0.35 2.2-2.050 1.75-2.75-0.2-0.3-1.1-0.85-2.1-1.25-2.1-0.9-1.95-2.050 0.3-1.95 0.85 0.050 1.55-0.1 1.55-0.35 0-0.5-3.65-0.6-4.15-0.1z"></path>
</symbol>
<symbol id="icon-surfrider" viewBox="0 0 58 32">
<path d="M33.44 2.822c-1.824 0.205-3.808 1.056-5.472 2.349-2.061 1.606-3.456 3.539-4.531 6.298-0.691 1.747-0.826 2.534-0.493 2.893 0.256 0.282 0.685 0.205 1.005-0.186 0.058-0.070 0.243-0.461 0.41-0.864 0.442-1.082 1.062-2.278 1.517-2.918 0.218-0.307 0.685-0.851 1.037-1.21 1.344-1.35 2.771-2.208 4.403-2.637 0.582-0.154 0.768-0.173 1.677-0.173 0.928 0 1.075 0.019 1.6 0.179 1.869 0.57 3.162 1.875 3.693 3.718 0.122 0.435 0.147 0.653 0.141 1.472s-0.032 1.050-0.173 1.581c-0.365 1.363-1.126 2.618-2.31 3.795-2.202 2.182-4.39 3.008-8.966 3.366-0.493 0.038-3.085 0.083-5.76 0.102-5.248 0.038-5.216 0.032-5.216 0.365 0 0.077 0.058 0.198 0.134 0.269 0.128 0.115 0.301 0.122 4.179 0.128 5.216 0.013 7.296-0.070 9.331-0.365 2.381-0.339 4.691-1.094 6.227-2.042 2.656-1.626 4.698-4.141 5.446-6.707 1.555-5.344-2.362-10.022-7.878-9.414z"></path>
<path d="M31.11 9.312c-1.357 0.307-2.47 0.947-3.558 2.042-0.653 0.659-1.062 1.242-1.53 2.176-0.243 0.486-0.326 0.736-0.346 1.011-0.045 0.589 0.237 0.883 0.704 0.755 0.307-0.090 0.563-0.365 0.954-1.043 0.442-0.749 1.414-1.754 2.086-2.15 0.8-0.474 1.28-0.608 2.131-0.614 0.704 0 0.755 0.013 1.19 0.211 0.538 0.256 1.024 0.717 1.267 1.203 0.602 1.203 0.198 2.771-1.024 4.032-1.21 1.242-2.854 1.843-5.85 2.138-0.371 0.038-2.24 0.090-4.16 0.109-3.008 0.032-3.501 0.045-3.597 0.134-0.147 0.128-0.147 0.224 0.006 0.358 0.115 0.109 0.378 0.109 3.891 0.083 2.963-0.019 3.962-0.051 4.691-0.134 2.336-0.269 4.013-0.8 5.146-1.626 1.094-0.8 1.83-1.638 2.342-2.669 0.39-0.781 0.512-1.222 0.557-2.022 0.102-1.818-0.89-3.302-2.573-3.872-0.64-0.211-1.69-0.269-2.33-0.122z"></path>
<path d="M30.72 13.376c-0.634 0.134-1.37 0.614-1.914 1.242-0.499 0.576-0.634 1.011-0.39 1.254 0.256 0.256 0.608 0.141 1.197-0.397 0.429-0.39 0.915-0.627 1.286-0.627 0.742 0 1.043 0.595 0.678 1.331-0.326 0.666-1.107 1.178-2.182 1.453-1.427 0.358-2.784 0.48-5.402 0.48-1.837 0-2.042 0.013-2.163 0.109-0.096 0.083-0.115 0.141-0.070 0.211 0.051 0.083 0.371 0.096 2.285 0.090 3.552-0.006 5.421-0.275 6.925-0.998 1.229-0.589 2.048-1.882 1.85-2.918-0.166-0.915-1.069-1.44-2.099-1.229zM16.704 22.662c-0.243 0.102-0.499 0.371-0.582 0.614-0.179 0.544 0.147 0.954 0.922 1.171 0.723 0.205 0.902 0.314 0.928 0.557 0.026 0.269-0.173 0.403-0.582 0.403-0.442 0-0.742-0.186-0.749-0.467 0-0.090-0.058-0.109-0.32-0.109-0.301 0-0.32 0.013-0.32 0.16 0 0.781 1.235 1.242 2.131 0.787 0.333-0.166 0.493-0.448 0.493-0.877 0-0.474-0.237-0.71-0.896-0.896-0.768-0.224-0.909-0.288-0.966-0.435-0.038-0.102-0.013-0.186 0.077-0.301 0.243-0.307 0.877-0.186 1.018 0.192 0.058 0.141 0.096 0.154 0.384 0.147l0.326-0.013-0.038-0.198c-0.051-0.243-0.205-0.467-0.442-0.64-0.141-0.109-0.288-0.134-0.698-0.147-0.288-0.013-0.595 0.013-0.685 0.051zM19.085 23.917c0.019 1.139 0.032 1.293 0.154 1.491 0.205 0.358 0.595 0.538 1.171 0.538 0.57 0 0.928-0.147 1.171-0.486 0.141-0.205 0.147-0.269 0.166-1.51l0.019-1.293h-0.646v1.088c0 1.286-0.051 1.478-0.416 1.6-0.314 0.102-0.634 0.032-0.8-0.173-0.115-0.154-0.128-0.256-0.128-1.338v-1.178h-0.717l0.026 1.261zM22.336 24.269v1.619h0.608l0.064-1.28 0.506 0.006c0.608 0 0.71 0.090 0.774 0.653 0.070 0.646 0.051 0.621 0.416 0.621 0.307 0 0.32-0.006 0.294-0.16-0.019-0.090-0.051-0.333-0.070-0.544-0.051-0.435-0.115-0.595-0.307-0.742l-0.128-0.109 0.134-0.070c0.326-0.173 0.442-0.826 0.205-1.203-0.218-0.358-0.39-0.403-1.504-0.403h-0.992v1.613zM24.134 23.29c0.109 0.083 0.147 0.186 0.147 0.358 0 0.371-0.179 0.48-0.8 0.48h-0.506v-0.96h0.506c0.397 0 0.538 0.026 0.653 0.122zM25.6 24.275v1.619l0.32-0.006h0.32v-1.376h1.344v-0.512h-1.344v-0.768h1.574l-0.006-0.288v-0.288h-2.208v1.619zM28.339 24.269l0.019 1.619h0.602l0.064-1.28 0.301-0.019c0.384-0.026 0.794 0.083 0.851 0.23 0.032 0.058 0.083 0.32 0.122 0.576l0.070 0.474 0.339 0.019c0.301 0.019 0.333 0.006 0.301-0.096-0.019-0.064-0.064-0.339-0.096-0.614-0.045-0.435-0.077-0.525-0.237-0.666l-0.186-0.166 0.154-0.115c0.179-0.134 0.333-0.467 0.333-0.717 0-0.256-0.192-0.602-0.41-0.736-0.173-0.102-0.333-0.122-1.222-0.122h-1.024l0.019 1.613zM30.131 23.27c0.186 0.128 0.198 0.544 0.013 0.73-0.109 0.109-0.211 0.128-0.64 0.128h-0.512v-0.96h0.499c0.346 0 0.538 0.032 0.64 0.102zM31.552 24.275v1.613l0.339-0.006 0.333-0.013 0.019-1.606 0.013-1.606h-0.704v1.619zM32.813 24.269l0.013 1.619 0.883-0.013c1.069-0.019 1.338-0.122 1.645-0.621 0.173-0.269 0.198-0.378 0.218-0.909 0.026-0.544 0.013-0.634-0.141-0.941-0.301-0.614-0.621-0.749-1.792-0.749h-0.838l0.013 1.613zM34.496 23.328c0.256 0.134 0.397 0.429 0.429 0.896 0.051 0.71-0.256 1.050-0.998 1.107l-0.454 0.032v-2.131h0.416c0.25 0 0.499 0.038 0.608 0.096zM36.032 24.275v1.613l1.171-0.006c0.64-0.006 1.171-0.032 1.184-0.051 0.006-0.019 0.013-0.147 0.013-0.282v-0.237h-1.696v-0.832l1.568-0.038v-0.506h-1.6v-0.704h1.715l0.026-0.288 0.019-0.288h-2.4v1.619zM38.912 24.275v1.619l0.672-0.013 0.019-0.659 0.019-0.666 0.486 0.032c0.576 0.038 0.691 0.134 0.755 0.614 0.096 0.755 0.064 0.698 0.41 0.691l0.314-0.006-0.032-0.352c-0.051-0.634-0.147-0.947-0.326-1.082l-0.166-0.115 0.141-0.077c0.326-0.173 0.442-0.826 0.205-1.203-0.218-0.358-0.39-0.403-1.504-0.403h-0.992v1.619zM40.736 23.328c0.090 0.083 0.16 0.23 0.16 0.32s-0.070 0.237-0.16 0.32c-0.134 0.141-0.211 0.16-0.634 0.16h-0.474l-0.026-0.454c-0.013-0.25-0.006-0.467 0.006-0.48s0.243-0.026 0.499-0.026c0.416 0 0.493 0.019 0.627 0.16zM18.893 26.694c-0.512 0.256-0.774 1.030-0.589 1.722 0.115 0.422 0.518 0.806 0.922 0.864 0.621 0.096 1.222-0.282 1.382-0.864 0.109-0.41 0.045-0.966-0.154-1.306-0.301-0.512-0.992-0.698-1.562-0.416zM19.962 26.989c0.288 0.218 0.397 0.506 0.378 1.018-0.019 0.378-0.051 0.493-0.198 0.685-0.416 0.544-1.267 0.41-1.51-0.23-0.109-0.282-0.083-0.877 0.045-1.133 0.166-0.339 0.493-0.531 0.838-0.493 0.154 0.019 0.352 0.083 0.448 0.154zM37.056 26.701c-0.589 0.301-0.826 1.222-0.486 1.946 0.179 0.39 0.467 0.589 0.922 0.646 0.883 0.102 1.523-0.749 1.299-1.741-0.186-0.838-0.986-1.229-1.734-0.851zM38.118 26.976c0.531 0.346 0.538 1.523 0.006 1.901-0.262 0.192-0.736 0.198-0.986 0.013-0.301-0.224-0.41-0.48-0.41-0.954 0-0.493 0.122-0.749 0.461-0.979 0.25-0.173 0.646-0.166 0.928 0.019zM15.968 27.936v1.312h0.147c0.134 0 0.141-0.019 0.141-0.608v-0.608h0.64c0.595 0 0.64-0.006 0.64-0.128 0-0.115-0.051-0.128-0.621-0.141l-0.627-0.019-0.019-0.435-0.019-0.429h0.71c0.659 0 0.704-0.006 0.704-0.128s-0.045-0.128-0.851-0.128h-0.851l0.006 1.312zM21.389 27.629c0.026 1.107 0.077 1.299 0.416 1.53 0.262 0.173 0.966 0.166 1.216-0.013 0.346-0.256 0.403-0.467 0.403-1.549v-0.973h-0.32v0.96c0 0.73-0.026 1.011-0.096 1.152-0.186 0.352-0.832 0.403-1.133 0.083-0.141-0.147-0.147-0.211-0.166-1.178l-0.019-1.018h-0.326l0.026 1.005zM24.384 27.936c0 1.261 0.006 1.312 0.128 1.312s0.128-0.051 0.141-1.075l0.019-1.069 0.704 1.069c0.627 0.96 0.723 1.075 0.883 1.075h0.173v-2.624h-0.32l-0.013 1.069-0.019 1.069-0.691-1.069c-0.582-0.896-0.723-1.069-0.851-1.069h-0.154v1.312zM27.328 27.936v1.331l0.691-0.032c0.787-0.032 1.011-0.122 1.235-0.474 0.109-0.186 0.154-0.358 0.173-0.755 0.019-0.448 0-0.557-0.128-0.8-0.25-0.48-0.397-0.544-1.242-0.576l-0.73-0.019v1.325zM28.864 27.104c0.429 0.41 0.371 1.427-0.096 1.734-0.083 0.058-0.358 0.115-0.634 0.134l-0.486 0.038v-2.15l0.512 0.032c0.454 0.026 0.538 0.051 0.704 0.211zM30.854 26.765c-0.032 0.083-0.262 0.659-0.512 1.293-0.25 0.627-0.454 1.152-0.454 1.165s0.070 0.026 0.154 0.026c0.134 0 0.179-0.058 0.307-0.416l0.147-0.416h1.107l0.154 0.416c0.122 0.346 0.173 0.416 0.288 0.416 0.083 0 0.147-0.019 0.147-0.038 0-0.032-0.397-1.082-0.928-2.477-0.064-0.16-0.346-0.141-0.41 0.032zM31.462 28.045c0.032 0.102-0.019 0.115-0.416 0.115h-0.448l0.154-0.403c0.083-0.218 0.186-0.486 0.224-0.589l0.077-0.192 0.186 0.48c0.102 0.262 0.205 0.531 0.224 0.589zM32.474 26.752c0 0.115 0.045 0.128 0.403 0.128h0.403v2.368h0.32v-2.368h0.384c0.339 0 0.384-0.013 0.384-0.128 0-0.122-0.045-0.128-0.947-0.128s-0.947 0.006-0.947 0.128zM35.2 27.936v1.312h0.32v-2.624h-0.32v1.312zM39.616 27.936c0 1.267 0.006 1.312 0.128 1.312s0.128-0.045 0.128-1.056c0-0.582 0.019-1.056 0.051-1.056 0.026 0.006 0.346 0.48 0.717 1.056 0.602 0.941 0.691 1.050 0.851 1.056h0.173v-2.624h-0.32l-0.013 1.056-0.019 1.056-0.698-1.056c-0.576-0.877-0.717-1.056-0.845-1.056h-0.154v1.312z"></path>
</symbol>
</defs>
</svg>
