<svg aria-hidden="true" style="position: absolute; width: 0; height: 0; overflow: hidden;" version="1.1" xmlns="http://www.w3.org/2000/svg" xmlns:xlink="http://www.w3.org/1999/xlink">
<defs>
<symbol id="icon-dolphin" viewBox="0 0 32 32">
<path d="M16.469 0.037c-1.456 0.15-2.406 0.356-3.75 0.819-0.9 0.306-1.069 0.35-1.662 0.375-0.6 0.031-0.725 0.019-1.25-0.137-0.975-0.287-1.369-0.35-2.119-0.35-1.487 0-2.756 0.45-3.869 1.381-0.806 0.681-1.613 1.831-1.675 2.406-0.031 0.244-0.013 0.294 0.156 0.469 0.225 0.219 0.375 0.231 0.994 0.088 0.313-0.075 0.619-0.094 1.175-0.069 1.344 0.050 1.694 0.275 1.287 0.813-1.669 2.238-2.55 3.969-3.169 6.225-0.269 0.981-0.369 1.55-0.313 1.775 0.050 0.2 0.369 0.419 0.612 0.419 0.1 0 0.25-0.069 0.362-0.175 0.156-0.144 0.206-0.275 0.35-0.919 0.313-1.419 0.9-2.975 1.606-4.25 0.338-0.613 1.112-1.775 1.481-2.219 0.388-0.469 0.469-0.662 0.469-1.194 0-0.419-0.019-0.506-0.188-0.781-0.369-0.594-1.063-0.875-2.337-0.956l-0.656-0.038 0.206-0.231c0.513-0.587 1.581-1.2 2.419-1.4 0.256-0.056 0.7-0.1 1.088-0.094 0.65 0 0.725 0.013 2.063 0.388 0.831 0.231 2.081 0.131 3.063-0.237 0.731-0.281 1.787-0.569 2.606-0.712 0.65-0.119 1.038-0.144 2.081-0.144 1.356-0.006 1.837 0.050 2.906 0.319 2.225 0.556 3.863 1.631 5.7 3.756 0.15 0.175 0.375 0.275 1.675 0.731 1.319 0.463 1.525 0.55 1.706 0.744 0.169 0.188 0.2 0.275 0.2 0.519 0 0.188-0.044 0.375-0.125 0.5-0.231 0.381-0.313 0.394-2.2 0.394-2.587 0-4.213 0.119-5.863 0.412-0.706 0.125-2.131 0.494-2.8 0.719-0.594 0.2-0.556 0.213-0.775-0.194-0.125-0.225-0.481-0.394-0.706-0.338s-0.469 0.369-0.469 0.606c0 0.113 0.063 0.3 0.131 0.419 0.644 1.056 0.85 2.688 0.494 3.938-0.206 0.713-0.65 1.512-1.15 2.044-0.394 0.419-1.194 1.069-1.256 1.012-0.012-0.012 0.019-0.194 0.075-0.4 0.056-0.238 0.094-0.7 0.1-1.25 0.006-0.95-0.094-1.594-0.375-2.494-0.219-0.706-0.719-1.75-0.9-1.869-0.387-0.275-0.994 0.037-0.994 0.506 0 0.056 0.081 0.281 0.181 0.494l0.188 0.387-0.481 0.406c-1.050 0.881-2.025 1.975-2.775 3.131-1.338 2.037-2.081 4.237-2.3 6.813-0.088 1.025-0.081 1.394 0.031 1.762 0.112 0.375 0.494 0.831 0.825 0.988 0.456 0.219 0.669 0.225 1.956 0.019 0.844-0.131 1.325-0.175 1.569-0.15 0.794 0.081 1.563 0.531 1.988 1.169 0.144 0.212 0.256 0.419 0.256 0.456 0 0.050-0.594 0.169-1.719 0.344-2.213 0.35-2.438 0.344-3.319-0.094-0.55-0.275-0.662-0.306-1.025-0.306-0.331 0-0.469 0.038-0.737 0.181-0.35 0.194-0.513 0.381-0.794 0.9-0.244 0.45-0.531 0.775-0.919 1.025-0.275 0.181-3.344 1.613-3.456 1.613-0.094 0-0.025-1.031 0.1-1.387 0.288-0.856 0.731-1.275 2.013-1.887 0.794-0.375 0.994-0.5 1.213-0.75 0.313-0.35 0.456-0.744 0.456-1.231 0-0.494-0.106-0.744-0.65-1.563-0.862-1.281-1.494-2.669-1.831-4.037-0.2-0.794-0.362-1.031-0.719-1.031-0.306 0-0.481 0.106-0.587 0.363-0.081 0.194-0.075 0.275 0.044 0.794 0.344 1.475 1.094 3.169 1.988 4.519 0.769 1.163 0.737 1.269-0.575 1.869-1.263 0.575-1.894 1.137-2.331 2.063-0.331 0.688-0.419 1.131-0.387 1.931 0.044 1.131 0.375 1.85 0.85 1.85 0.163 0 2.238-0.906 3.812-1.663 0.737-0.356 0.881-0.456 1.319-0.887 0.281-0.275 0.588-0.663 0.731-0.913 0.344-0.613 0.356-0.613 0.987-0.3 1.131 0.563 1.588 0.569 4.488 0.106 2.119-0.337 2.144-0.344 2.319-0.531 0.194-0.219 0.213-0.425 0.075-0.938-0.381-1.425-1.613-2.569-3.081-2.85-0.637-0.119-0.938-0.106-2.2 0.094-0.694 0.113-1.144 0.156-1.231 0.125-0.25-0.094-0.287-0.269-0.244-1.081 0.175-3.094 1.169-5.7 3.031-7.925 0.581-0.694 1.7-1.756 1.769-1.688s0.238 1.231 0.238 1.65c0 0.431-0.137 1.169-0.287 1.55-0.063 0.156-0.231 0.475-0.381 0.719-0.319 0.512-0.338 0.706-0.088 0.981 0.162 0.181 0.219 0.206 0.488 0.194 0.162 0 0.575-0.106 0.919-0.231 2.938-1.050 4.656-4.006 4.125-7.094-0.056-0.319-0.087-0.588-0.075-0.6 0.056-0.056 1.606-0.5 2.313-0.656 1.806-0.412 3.506-0.563 6.5-0.563 1.681 0 1.819-0.006 2.156-0.131 0.438-0.169 0.906-0.594 1.131-1.025 0.231-0.45 0.269-1.263 0.081-1.694-0.381-0.856-0.675-1.063-2.431-1.675l-1.331-0.463-0.756-0.794c-1.925-2.013-4.006-3.125-6.675-3.563-0.569-0.094-2.637-0.175-3.156-0.119z"></path>
<path d="M20.794 5.094c-0.313 0.313-0.231 0.8 0.156 0.987 0.444 0.219 0.863-0.063 0.863-0.575 0-0.5-0.663-0.769-1.019-0.412z"></path>
<path d="M2.181 15.994c-0.244 0.244-0.25 0.556-0.006 0.819 0.231 0.262 0.487 0.3 0.756 0.113 0.119-0.081 0.244-0.225 0.275-0.319 0.2-0.613-0.563-1.069-1.025-0.613z"></path>
</symbol>
<symbol id="icon-gull" viewBox="0 0 32 32">
<path d="M24.863 3.25c-1.756 0.319-3.225 1.487-3.581 2.844-0.050 0.206-0.094 0.5-0.094 0.662 0 0.388 0.15 1.219 0.331 1.844l0.144 0.512-1 0.325c-4.038 1.306-7.738 3.394-10.162 5.725-0.419 0.406-0.725 0.637-1.044 0.8-2 1-3.669 2.481-4.419 3.919l-0.181 0.344-2.256 1.050c-2.325 1.081-2.6 1.244-2.6 1.575 0 0.4 0.5 0.9 1.281 1.281 1.075 0.519 2.194 0.669 4.119 0.563 1.431-0.081 1.975-0.050 4.85 0.25 3.069 0.325 5.706 0.319 7.681-0.012 0.394-0.069 0.725-0.106 0.738-0.094 0.019 0.012 0.081 0.794 0.15 1.738 0.069 0.938 0.156 1.788 0.194 1.881 0.137 0.356 0.206 0.363 2.712 0.344l2.288-0.019 0.15-0.175c0.206-0.238 0.206-0.6 0-0.837l-0.15-0.175-3.887-0.038v-0.2c0-0.113-0.044-0.806-0.094-1.544-0.131-1.894-0.163-1.675 0.325-2.188 0.225-0.244 0.65-0.6 0.931-0.788 0.288-0.188 0.55-0.394 0.587-0.462 0.163-0.3 0.025-0.694-0.294-0.844-0.206-0.1-0.238-0.1-0.488 0-0.575 0.219-1.681 1.137-2.063 1.706-0.163 0.25-0.169 0.25-0.863 0.381-1.425 0.262-1.775 0.288-3.887 0.281-1.944 0-2.188-0.012-4.313-0.244-2.056-0.219-2.369-0.238-3.625-0.212-2.5 0.038-3.013 0.025-3.612-0.125-0.3-0.069-0.625-0.169-0.719-0.219l-0.169-0.087 0.531-0.244c0.294-0.137 1.087-0.506 1.763-0.825l1.237-0.575 0.862 0.219c1.469 0.381 2.219 0.488 3.638 0.519 2.787 0.069 4.494-0.438 7.688-2.275 1.6-0.919 1.769-1.006 2.813-1.425 1.2-0.481 1.375-0.575 2.031-0.994 1.556-1.012 2.206-2.431 1.881-4.1-0.212-1.094-0.981-2.256-1.863-2.825l-0.319-0.2 0.337-0.081c0.369-0.094 0.681-0.363 0.681-0.594 0-0.069-0.113-0.456-0.244-0.856-0.262-0.775-0.444-1.606-0.444-2.031 0-1.037 1.475-2.162 2.969-2.269 0.881-0.056 1.731 0.231 2.25 0.769 0.613 0.631 0.6 1.456-0.038 2.094-0.431 0.431-0.469 0.669-0.181 1.119 0.837 1.306 1.363 4.388 1.031 6.1-0.288 1.512-1.169 3.1-2.369 4.275-0.387 0.375-0.512 0.644-0.419 0.887 0.087 0.238 0.363 0.425 0.613 0.425 0.188 0 0.294-0.069 0.719-0.488 0.688-0.663 1.406-1.637 1.85-2.506 0.65-1.262 0.881-2.125 0.931-3.45 0.069-1.825-0.306-3.906-0.95-5.256l-0.169-0.363 0.212-0.325c0.119-0.181 0.25-0.425 0.294-0.537 0.050-0.106 0.113-0.2 0.144-0.2 0.094 0 0.694 0.319 0.913 0.487 0.113 0.088 0.319 0.313 0.456 0.506s0.313 0.381 0.387 0.425c0.406 0.225 0.919-0.088 0.919-0.563 0-0.225-0.431-0.85-0.837-1.206-0.413-0.375-0.831-0.612-1.406-0.813-0.394-0.138-0.419-0.156-0.538-0.444-0.413-1.006-1.119-1.631-2.25-1.994-0.55-0.175-1.575-0.25-2.106-0.15zM20.637 11.069c1.5 0.313 2.606 1.781 2.469 3.281-0.075 0.769-0.5 1.412-1.294 1.963-0.462 0.313-0.881 0.525-1.8 0.887-0.981 0.387-1.606 0.7-3.094 1.556-1.963 1.131-3.15 1.637-4.537 1.938-0.838 0.181-2.756 0.231-3.756 0.1-0.713-0.094-2.144-0.387-2.3-0.475-0.131-0.075 0.263-0.6 0.981-1.325 0.738-0.731 1.637-1.369 2.65-1.875 0.512-0.262 0.731-0.419 1.269-0.931 2.106-2 4.962-3.744 8.1-4.938 0.7-0.269 0.819-0.281 1.313-0.181z"></path>
<path d="M25.712 5.744c-0.406 0.175-0.525 0.706-0.219 1.013 0.425 0.425 1.15 0.050 1.044-0.531-0.069-0.369-0.5-0.619-0.825-0.481z"></path>
<path d="M23.706 20.531c-0.606 0.256-0.425 1.156 0.231 1.156 0.55 0 0.825-0.6 0.456-0.994-0.212-0.225-0.425-0.275-0.688-0.163z"></path>
</symbol>
<symbol id="icon-seal" viewBox="0 0 32 32">
<path d="M5.969 5.188c-0.806 0.094-1.55 0.344-2.706 0.906l-1.087 0.531h-0.512c-0.831 0-1.25 0.213-1.512 0.775-0.163 0.35-0.188 0.656-0.075 0.981 0.131 0.387 0.762 1.331 1.131 1.7 0.556 0.544 1.444 0.919 2.169 0.919 0.206 0 0.25 0.025 0.25 0.119 0 0.063-0.1 1.137-0.225 2.387-0.244 2.438-0.256 3.494-0.063 4.45 0.075 0.4 0.075 0.425-0.038 0.488-0.212 0.113-0.625 0.512-0.775 0.75-0.281 0.456-0.35 0.856-0.306 1.794 0.056 1.025 0.081 0.975-0.837 1.631-0.344 0.244-0.669 0.506-0.725 0.581-0.119 0.175-0.125 0.544 0 0.712 0.162 0.244 1 0.837 1.413 1 0.575 0.244 1.494 0.281 2.1 0.094 0.463-0.137 1.35-0.669 1.412-0.85 0.081-0.2 0.044-0.45-0.081-0.563-0.2-0.181-0.438-0.137-0.85 0.137-0.206 0.137-0.506 0.3-0.669 0.356-0.331 0.113-1.019 0.131-1.356 0.038-0.256-0.069-0.887-0.438-0.919-0.531-0.006-0.038 0.131-0.163 0.306-0.281 0.556-0.381 0.9-0.731 1.050-1.075 0.131-0.306 0.138-0.381 0.094-1.212-0.038-0.806-0.031-0.919 0.081-1.163 0.069-0.15 0.188-0.331 0.275-0.413l0.156-0.144 0.112 0.3c0.4 1.075 1.194 2.35 1.988 3.188 0.556 0.581 0.731 0.65 1.013 0.363 0.25-0.244 0.206-0.425-0.244-0.9-0.938-1-1.731-2.35-2.063-3.531-0.419-1.456-0.431-2.288-0.1-5.644 0.206-2.019 0.213-2.075 0.356-2.137 0.338-0.156 0.319-0.675-0.031-0.813-0.094-0.031-0.531-0.069-0.981-0.081-0.737-0.019-0.85-0.037-1.188-0.194-0.206-0.1-0.462-0.262-0.575-0.369l-0.2-0.194 0.256-0.287c0.306-0.35 0.587-0.9 0.675-1.306l0.069-0.294 0.675-0.356c1.344-0.706 2.175-0.95 3.256-0.95 0.362 0 0.862 0.037 1.119 0.081 0.431 0.075 0.469 0.075 0.625-0.037 0.238-0.181 0.256-0.525 0.037-0.694-0.287-0.225-1.588-0.362-2.5-0.263zM1.75 7.625c0 0.1-0.225 0.512-0.394 0.719l-0.156 0.181-0.131-0.213c-0.262-0.431-0.094-0.75 0.4-0.75 0.156 0 0.281 0.031 0.281 0.063z"></path>
<path d="M9.887 6.156c-0.213 0.094-0.3 0.3-0.238 0.55 0.019 0.088 0.181 0.244 0.394 0.388 0.781 0.513 1.594 1.431 2.012 2.262 0.394 0.787 0.5 1.256 0.762 3.331 0.194 1.544 0.269 2 0.363 2.125 0.075 0.106 0.8 0.475 2.356 1.194 2.669 1.225 3.6 1.7 4.794 2.413 1.444 0.869 3 1.969 4.156 2.944 0.481 0.406 0.663 0.488 0.913 0.425 0.087-0.019 0.975-0.675 1.988-1.456 2.012-1.556 2.137-1.644 2.35-1.644 0.194 0 0.481 0.156 0.6 0.325 0.137 0.2 0.125 0.625-0.019 0.813-0.069 0.081-0.644 0.456-1.288 0.825-0.637 0.375-1.188 0.725-1.219 0.788-0.113 0.206-0.069 0.469 0.094 0.625 0.15 0.144 0.225 0.156 1.394 0.219 0.675 0.038 1.288 0.1 1.356 0.137 0.519 0.288 0.531 0.994 0.025 1.294-0.15 0.087-0.275 0.1-0.769 0.063-0.544-0.038-0.594-0.031-0.719 0.094-0.219 0.219-0.169 0.581 0.113 0.719 0.238 0.125 1.119 0.188 1.425 0.106 0.419-0.113 0.831-0.438 1.044-0.819 0.169-0.3 0.194-0.406 0.194-0.813-0.006-0.569-0.137-0.863-0.563-1.238-0.35-0.306-0.544-0.375-1.194-0.438l-0.494-0.044 0.456-0.269c0.619-0.369 0.881-0.613 1.050-0.981 0.65-1.394-0.856-2.85-2.212-2.137-0.144 0.075-1.038 0.738-1.988 1.469-0.944 0.738-1.756 1.325-1.794 1.306-0.044-0.019-0.4-0.288-0.794-0.6-1.431-1.137-2.919-2.137-4.5-3.019-1.081-0.6-1.481-0.806-2.988-1.494-2.6-1.194-3.012-1.394-3.012-1.456 0-0.45-0.463-3.625-0.594-4.056-0.419-1.444-1.356-2.781-2.544-3.625-0.531-0.381-0.662-0.425-0.912-0.325z"></path>
<path d="M4.625 7.237c-0.206 0.213-0.237 0.419-0.094 0.694 0.144 0.288 0.412 0.337 0.681 0.125 0.131-0.1 0.162-0.181 0.162-0.4 0-0.306-0.138-0.506-0.388-0.569-0.138-0.031-0.206 0-0.362 0.15z"></path>
<path d="M10.037 19.137c-0.931 0.125-1.719 0.794-2.031 1.725-0.188 0.544-0.188 2.081-0.006 2.788 0.162 0.631 0.519 1.3 0.906 1.706 0.35 0.363 0.488 0.4 0.744 0.2 0.25-0.194 0.219-0.469-0.088-0.844-0.575-0.694-0.75-1.281-0.75-2.525 0-0.744 0.025-0.95 0.119-1.156 0.4-0.881 1.363-1.238 2.213-0.819 0.625 0.3 0.844 0.694 0.988 1.75 0.081 0.631 0.15 0.831 0.412 1.194 0.262 0.356 0.631 0.531 2.144 1 0.738 0.225 1.387 0.425 1.438 0.444 0.137 0.050-0.8 0.631-1.4 0.869-0.281 0.113-0.731 0.256-1.006 0.313-0.613 0.131-1.725 0.15-2.3 0.038-0.375-0.075-0.438-0.069-0.575 0.019-0.325 0.212-0.256 0.663 0.119 0.819 0.113 0.050 0.506 0.119 0.875 0.156 1.287 0.131 2.619-0.131 3.831-0.744 0.444-0.225 1.3-0.825 1.538-1.075 0.206-0.225 0.225-0.556 0.050-0.85-0.131-0.206-0.275-0.262-3.019-1.113-0.613-0.188-0.756-0.256-0.919-0.438-0.1-0.119-0.2-0.306-0.219-0.419s-0.063-0.413-0.1-0.656c-0.088-0.606-0.269-1.081-0.563-1.45-0.569-0.719-1.444-1.063-2.4-0.931z"></path>
<path d="M22.156 23.756c-1.956 0.269-3.569 0.488-3.575 0.488-0.006 0.006-0.069 0.069-0.144 0.144-0.269 0.288-0.044 0.738 0.363 0.738 0.125 0 1.75-0.206 3.606-0.456 3.325-0.45 3.375-0.456 3.969-0.381 1.4 0.175 1.294 0.175 1.469 0 0.2-0.2 0.206-0.469 0.019-0.644-0.119-0.106-0.313-0.15-0.988-0.231-0.462-0.056-0.913-0.113-1-0.125-0.087-0.006-1.756 0.2-3.719 0.469z"></path>
</symbol>
<symbol id="icon-turtle" viewBox="0 0 32 32">
<path d="M9.8 0.069c-1.219 0.175-2.45 0.725-3.656 1.631-0.7 0.519-1.944 1.775-2.094 2.1-0.219 0.494-0.013 0.994 0.519 1.269 0.9 0.456 2.313 0.869 3.431 0.994 0.938 0.112 2.894 0.050 3.838-0.119 0.412-0.075 0.769-0.112 0.787-0.088 0.050 0.056 0.188 0.531 0.188 0.638 0 0.037-0.125 0.125-0.287 0.194-0.731 0.313-1.756 1.025-2.569 1.781-1.3 1.2-2.362 2.9-2.969 4.775-0.15 0.45-0.3 0.819-0.338 0.819s-0.444-0.113-0.906-0.256c-1.331-0.406-2.094-0.4-2.944 0.019-0.55 0.269-1.669 1.394-2.075 2.081-0.694 1.188-0.881 2.356-0.569 3.563 0.219 0.869 1.219 2.469 1.738 2.781 0.219 0.137 0.569 0.163 0.837 0.056 0.094-0.031 0.938-0.825 1.869-1.75l1.688-1.688 0.131 0.8c0.313 1.894 1.088 3.5 2.094 4.338 0.981 0.819 2.406 1.394 4.037 1.625l0.525 0.075-1.656 1.663c-0.912 0.913-1.7 1.75-1.756 1.863-0.219 0.438-0.088 0.863 0.406 1.281 0.756 0.637 1.656 1.137 2.431 1.344 0.625 0.169 1.713 0.15 2.313-0.031 1-0.313 2.081-1.038 2.781-1.869 0.925-1.081 1.056-2.025 0.538-3.725-0.15-0.475-0.25-0.881-0.238-0.9 0.019-0.012 0.394-0.15 0.837-0.3 1.45-0.481 2.994-1.3 3.144-1.65 0.1-0.244-0.025-0.512-0.269-0.6-0.15-0.050-0.225-0.031-0.438 0.087-1.306 0.744-2.225 1.15-3.262 1.444-2.775 0.775-5.725 0.631-7.75-0.375-1.044-0.519-1.6-1.075-2.094-2.094-0.894-1.831-1.106-4.275-0.594-6.819 0.219-1.094 0.531-1.994 1.031-2.994 0.531-1.069 1.1-1.875 1.844-2.625 2.806-2.831 6.1-3.219 9.438-1.125 1.706 1.075 3.456 2.95 4.337 4.65 1.569 3.037 1.181 5.756-1.188 8.394-0.356 0.394-0.431 0.512-0.431 0.694 0 0.269 0.163 0.419 0.456 0.419 0.2 0 0.269-0.050 0.669-0.488 0.6-0.656 1.188-1.488 1.544-2.188 0.163-0.313 0.319-0.575 0.35-0.575 0.1 0 0.569 0.144 0.625 0.188 0.025 0.025-0.006 0.363-0.081 0.756-0.438 2.469-0.175 5.044 0.719 6.981 0.269 0.575 0.475 0.806 0.794 0.894 0.456 0.119 0.675 0 1.506-0.806 1.525-1.494 2.438-3.038 2.806-4.731 0.113-0.531 0.094-2.012-0.031-2.575-0.231-1.012-0.587-1.85-1.188-2.756-0.531-0.806-0.988-1.306-1.281-1.387-0.131-0.031-0.938-0.063-1.825-0.063h-1.6l-0.075-0.519c-0.144-0.925-0.706-2.406-1.238-3.238l-0.144-0.238 0.219-0.188c0.194-0.175 0.256-0.194 0.644-0.194 1.262 0 2.613-0.713 3.456-1.819 1.25-1.65 1.425-3.737 0.494-5.931-0.262-0.612-0.369-0.706-1.181-1-0.863-0.313-1.569-0.45-2.387-0.45-1.369 0-2.337 0.337-3.413 1.2-0.956 0.763-1.65 2.144-1.65 3.294 0 0.4-0.094 0.675-0.275 0.831-0.087 0.063-0.137 0.056-0.337-0.081-0.781-0.513-2.313-1.1-3.244-1.237l-0.519-0.075v-1.6c0-0.9-0.031-1.7-0.063-1.831-0.169-0.606-2.063-1.863-3.463-2.294-0.925-0.287-2.088-0.381-2.987-0.25zM12.181 1.131c0.988 0.25 1.925 0.731 2.775 1.413l0.419 0.337v3.113l-0.356 0.037c-0.2 0.019-0.556 0.075-0.8 0.125-0.238 0.044-0.456 0.063-0.481 0.037-0.019-0.019-0.1-0.263-0.175-0.531-0.262-0.944-0.319-0.981-1.194-0.787-1.006 0.225-1.794 0.313-2.894 0.313-1.563 0-2.706-0.206-3.881-0.694-0.794-0.331-0.8-0.256 0.094-1.138 1.362-1.331 2.625-2.056 4.056-2.325 0.65-0.125 1.756-0.081 2.438 0.1zM26.875 3.169c0.256 0.050 0.688 0.175 0.962 0.281 0.481 0.188 0.488 0.194 0.644 0.544 0.087 0.194 0.225 0.619 0.313 0.944 0.194 0.75 0.219 1.819 0.056 2.431-0.45 1.719-1.956 3.006-3.519 3.006-0.462 0-0.894 0.125-1.175 0.338l-0.206 0.162-0.269-0.331c-0.425-0.519-1.544-1.644-2.069-2.081l-0.481-0.406 0.188-0.269c0.212-0.3 0.3-0.612 0.306-1.081 0.006-1.15 0.681-2.294 1.788-3.019 0.956-0.625 2.075-0.794 3.462-0.519zM5.506 14.725c0.531 0.156 0.969 0.287 0.975 0.3 0.006 0.006-0.025 0.275-0.075 0.6s-0.106 0.9-0.131 1.281l-0.037 0.688-1.919 1.919c-1.050 1.063-1.931 1.925-1.956 1.925-0.094 0-0.806-1.031-1.006-1.456-0.313-0.669-0.387-1-0.381-1.7 0.006-1.038 0.388-1.875 1.263-2.794 0.563-0.588 0.725-0.713 1.194-0.9 0.544-0.225 0.95-0.2 2.075 0.137zM29.363 16.919c0.369 0.45 0.719 0.994 1 1.55 1.1 2.206 0.875 4.469-0.663 6.619-0.363 0.506-1.563 1.806-1.769 1.919-0.1 0.050-0.144 0.006-0.3-0.3-0.881-1.762-1.087-4.644-0.5-7.144 0.188-0.8 0.15-0.856-0.788-1.125-0.275-0.081-0.519-0.163-0.544-0.181s-0.006-0.194 0.044-0.394c0.044-0.194 0.1-0.55 0.125-0.794l0.044-0.444h3.1l0.25 0.294zM16.938 25.519c0 0.012 0.131 0.444 0.288 0.956 0.262 0.85 0.281 0.975 0.256 1.431-0.031 0.6-0.169 0.931-0.613 1.438-0.663 0.756-1.444 1.306-2.213 1.55-0.338 0.106-0.581 0.137-1.063 0.131-0.619 0-0.931-0.063-1.5-0.306-0.262-0.113-1.137-0.675-1.419-0.919l-0.175-0.144 3.906-3.894 0.719-0.044c0.575-0.031 1.256-0.119 1.769-0.212 0.025 0 0.044 0.006 0.044 0.012z"></path>
<path d="M24.844 4c-0.587 0.156-0.738 0.338-0.594 0.713 0.106 0.287 0.3 0.325 0.919 0.169 0.3-0.075 0.6-0.188 0.663-0.237 0.144-0.138 0.137-0.487-0.019-0.644s-0.381-0.15-0.969 0z"></path>
<path d="M27.363 6.169c-0.056 0.056-0.169 0.362-0.244 0.681-0.131 0.544-0.137 0.588-0.038 0.737 0.137 0.206 0.394 0.269 0.6 0.156 0.188-0.106 0.369-0.581 0.425-1.094 0.031-0.269 0.012-0.344-0.1-0.456-0.163-0.162-0.5-0.175-0.644-0.025z"></path>
<path d="M14.706 7.963c-1.475 0.281-2.819 1.113-4.075 2.506-1.613 1.794-2.606 4.825-2.488 7.594 0.094 2.075 0.619 3.606 1.544 4.456 1.688 1.563 5.894 1.8 9.075 0.519 1.363-0.55 2.337-1.188 3.269-2.137 0.925-0.944 1.544-1.95 1.881-3.056 0.15-0.5 0.169-0.663 0.169-1.438 0-1.044-0.156-1.738-0.606-2.688-1.081-2.287-3.45-4.544-5.675-5.406-0.938-0.362-2.244-0.513-3.094-0.35zM16.506 8.919c0.056 0.056-0.644 2.5-0.738 2.581-0.025 0.031-0.669 0.231-1.425 0.456l-1.375 0.406-0.738-0.731-0.738-0.725 0.469-0.444c0.931-0.887 1.975-1.431 3.069-1.613 0.269-0.037 1.419 0.012 1.475 0.069zM18.069 9.469c1.438 0.719 2.938 2.069 3.938 3.55 0.344 0.512 0.844 1.463 0.8 1.512-0.012 0.006-0.594 0.188-1.281 0.387l-1.262 0.369-0.844-0.831c-0.85-0.838-0.962-0.906-1.262-0.794-0.163 0.063-0.281 0.394-0.206 0.588 0.031 0.088 0.406 0.512 0.837 0.944l0.781 0.787-0.406 1.394c-0.231 0.769-0.425 1.413-0.444 1.425-0.038 0.044-2.675 0.819-2.781 0.825-0.1 0-3.563-3.425-3.563-3.531 0-0.156 0.775-2.7 0.844-2.775 0.050-0.050 0.694-0.262 1.444-0.488l1.362-0.394 0.281 0.275c0.156 0.15 0.35 0.306 0.425 0.344 0.3 0.15 0.644-0.088 0.644-0.45 0-0.125-0.087-0.269-0.313-0.506-0.169-0.181-0.313-0.356-0.313-0.387-0.006-0.075 0.712-2.525 0.738-2.525 0.006 0 0.275 0.125 0.581 0.281zM12.25 13.050c0 0.156-0.769 2.731-0.838 2.8-0.037 0.044-0.531 0.206-1.1 0.369s-1.069 0.313-1.119 0.331c-0.069 0.025-0.075-0.038-0.037-0.306 0.194-1.525 0.781-3.181 1.519-4.287l0.225-0.338 0.675 0.675c0.369 0.369 0.675 0.713 0.675 0.756zM23.169 16.1c0.087 1.35-0.5 2.775-1.637 3.95l-0.438 0.456-1.45-1.475 0.413-1.387c0.225-0.762 0.431-1.4 0.45-1.425 0.081-0.081 2.525-0.769 2.575-0.719 0.025 0.025 0.069 0.294 0.087 0.6zM13.45 18.544c0.956 0.956 1.738 1.762 1.738 1.8s-0.162 0.625-0.369 1.313l-0.363 1.25-0.275 0.019c-0.588 0.044-1.894-0.163-2.637-0.419-0.95-0.331-1.463-0.756-1.831-1.525-0.356-0.75-0.65-2.175-0.65-3.131v-0.281l0.456-0.137c0.244-0.075 0.8-0.238 1.231-0.369s0.825-0.238 0.875-0.244c0.050-0.006 0.875 0.775 1.825 1.725zM19.712 20.431l0.681 0.681-0.337 0.219c-1.038 0.663-2.462 1.2-3.762 1.431-0.438 0.075-0.806 0.125-0.819 0.106-0.031-0.031 0.606-2.219 0.662-2.281 0.050-0.050 2.669-0.831 2.8-0.831 0.056-0.006 0.4 0.3 0.775 0.675z"></path>
</symbol>
<symbol id="icon-wave" viewBox="0 0 32 32">
<path d="M14.6 6.694c-3.275 0.344-5.994 1.969-7.463 4.463-0.675 1.15-1.013 2.475-1.013 4 0 1.094-0.313 1.9-1 2.594-0.737 0.744-1.538 1.038-2.688 0.981-0.5-0.019-0.769-0.069-1.125-0.194-0.831-0.3-1.056-0.294-1.225 0.038-0.081 0.163-0.1 0.313-0.069 0.744 0.163 2.494 1.994 4.55 4.469 5.031 0.563 0.106 1.544 0.113 2.050 0.012 0.2-0.038 0.694-0.069 1.087-0.069 0.813 0.006 1.281 0.125 2.281 0.569 0.925 0.406 1.294 0.481 2.438 0.475 1.162 0 1.544-0.081 2.569-0.544 0.919-0.413 1.3-0.5 2.181-0.5 0.9 0 1.256 0.081 2.256 0.525s1.688 0.575 2.744 0.538c0.944-0.038 1.488-0.163 2.325-0.538 0.85-0.387 1.425-0.519 2.238-0.519 0.837-0.006 1.281 0.1 2.275 0.525 0.806 0.35 1.631 0.55 2.275 0.55 0.394 0 0.444-0.012 0.619-0.194l0.194-0.188-0.044-0.644c-0.194-3.012-1.494-5.438-3.356-6.281-0.644-0.288-1.169-0.394-2.019-0.394-0.931 0-1.594 0.144-2.456 0.538-1 0.456-1.231 0.506-2.3 0.506-0.887 0-0.969-0.012-1.481-0.194-1.956-0.7-3.113-2.144-3.219-4.025-0.038-0.719 0.044-1.219 0.294-1.731 0.337-0.688 1.063-1.206 1.681-1.206 0.3 0 0.9 0.344 1.238 0.706 0.175 0.194 0.394 0.369 0.488 0.394 0.719 0.181 1.375-1.406 1.069-2.594-0.256-1-1.081-1.931-2.288-2.594-0.581-0.313-1.606-0.638-2.381-0.75-0.706-0.106-1.825-0.119-2.644-0.031zM17.456 7.881c1.488 0.3 2.75 1.113 3.231 2.075 0.15 0.3 0.188 0.456 0.188 0.775 0 0.213-0.012 0.394-0.025 0.394s-0.181-0.1-0.381-0.219c-0.669-0.4-0.856-0.438-2.25-0.438-1.344 0-2.006 0.075-2.956 0.319-2.35 0.613-3.731 2.050-4.019 4.188-0.3 2.256 1.031 4.375 3.544 5.637 0.887 0.444 2.331 0.887 2.9 0.887 0.444 0 0.669-0.587 0.35-0.906-0.081-0.081-0.256-0.169-0.387-0.188-0.981-0.169-2.175-0.613-3.006-1.125-0.637-0.4-1.55-1.306-1.856-1.85-0.869-1.569-0.506-3.569 0.869-4.863 0.694-0.644 1.762-1.075 2.919-1.169l0.5-0.044-0.231 0.3c-0.594 0.781-0.806 1.481-0.8 2.625 0.006 0.969 0.131 1.525 0.544 2.375 0.55 1.144 1.387 1.962 2.625 2.563 1.038 0.506 1.488 0.613 2.663 0.613 1.131 0 1.575-0.094 2.556-0.544 0.775-0.356 1.212-0.475 1.944-0.512 2.488-0.15 3.962 1.581 4.469 5.213l0.038 0.275-0.269-0.044c-0.375-0.063-0.863-0.231-1.519-0.519-0.906-0.394-1.35-0.481-2.469-0.481-1.113 0.006-1.506 0.087-2.606 0.569-0.85 0.369-1.281 0.462-2.144 0.462-0.875 0-1.331-0.1-2.137-0.469-1.050-0.481-1.419-0.563-2.644-0.563-1.231 0-1.481 0.056-2.569 0.538-0.906 0.4-1.331 0.494-2.219 0.494-0.9 0-1.444-0.131-2.25-0.531-1.175-0.587-2-1.212-2.394-1.813-0.287-0.425-0.406-0.756-0.475-1.313-0.044-0.356-0.088-0.462-0.219-0.575-0.362-0.313-0.906-0.031-0.906 0.462 0.006 0.712 0.388 1.719 0.888 2.337l0.281 0.344-0.85 0.113c-0.713 0.094-0.931 0.1-1.375 0.038-1.5-0.206-2.813-1.119-3.431-2.387-0.25-0.519-0.444-1.137-0.375-1.212 0.025-0.019 0.206 0 0.406 0.044 0.538 0.119 1.775 0.106 2.269-0.025 1.262-0.344 2.294-1.194 2.881-2.387 0.356-0.738 0.438-1.106 0.494-2.375 0.056-1.375 0.181-1.912 0.656-2.875 1.075-2.188 3.225-3.694 5.969-4.181 0.744-0.131 0.844-0.144 1.956-0.15 0.787-0.013 1.125 0.013 1.625 0.119z"></path>
<path d="M12.356 9.5c-0.331 0.262-0.25 0.775 0.144 0.938s0.813-0.206 0.719-0.637c-0.050-0.219-0.306-0.425-0.531-0.425-0.094 0-0.244 0.056-0.331 0.125z"></path>
<path d="M10.025 11.025c-1.106 1.125-1.631 2.287-1.669 3.688-0.012 0.531-0.006 0.55 0.162 0.7 0.238 0.2 0.563 0.2 0.762-0.006 0.131-0.125 0.156-0.213 0.156-0.494 0-0.512 0.162-1.262 0.369-1.7 0.256-0.544 0.5-0.887 1.075-1.5 0.55-0.581 0.594-0.713 0.331-1.019-0.131-0.156-0.206-0.194-0.412-0.194-0.238 0-0.294 0.037-0.775 0.525z"></path>
<path d="M20.594 13.969c-0.337 0.331-0.1 0.906 0.375 0.906 0.306 0 0.531-0.225 0.531-0.531 0-0.475-0.575-0.713-0.906-0.375z"></path>
<path d="M22.806 16.181c-0.225 0.231-0.238 0.494-0.031 0.731 0.387 0.456 1.119-0.012 0.887-0.569-0.163-0.387-0.556-0.463-0.856-0.163z"></path>
<path d="M1.281 16.719c-0.338 0.331-0.1 0.906 0.375 0.906 0.306 0 0.531-0.225 0.531-0.531s-0.225-0.531-0.531-0.531c-0.156 0-0.275 0.050-0.375 0.156z"></path>
</symbol>
<symbol id="icon-whale" viewBox="0 0 32 32">
<path d="M15.375 0.688c-1.444 0.306-2.519 0.881-3.419 1.831-0.419 0.444-0.981 1.281-1.056 1.581-0.037 0.15-0.244 0.213-0.688 0.213-0.463 0-1.637 0.188-2.375 0.375-4.075 1.050-6.912 4.081-7.662 8.181-0.106 0.575-0.131 0.981-0.138 1.975 0 1.125 0.019 1.325 0.169 2.050 0.644 3.019 2.356 5.831 4.763 7.794 1.337 1.094 3.15 2.069 4.906 2.65 0.563 0.188 1.037 0.375 1.050 0.413 0.037 0.1-0.275 1.069-0.563 1.75-0.213 0.5-0.244 0.637-0.225 0.919 0.031 0.381 0.262 0.725 0.619 0.913 0.306 0.163 1.644 0.113 2.556-0.1 1.819-0.425 3.794-1.462 5.437-2.856l0.344-0.288 0.913-0.137c3.706-0.563 6.863-2.087 9.087-4.394 0.694-0.719 0.988-1.087 1.55-1.931 0.494-0.75 0.956-1.675 1.2-2.406 0.144-0.419 0.169-0.569 0.137-0.944-0.113-1.556-1.45-2.313-4.794-2.719-0.413-0.056-3.469-0.088-10.063-0.113-8.544-0.037-9.494-0.050-9.725-0.144-1.088-0.431-1.644-1.006-1.925-1.988-0.313-1.125-0.1-2.369 0.594-3.406 0.85-1.262 2.619-2.237 4.344-2.388l0.438-0.037 0.106 0.281c0.319 0.825 1.363 1.975 2.262 2.481 0.919 0.525 2.019 0.856 3.063 0.925 0.431 0.031 0.544 0.012 0.762-0.094 0.375-0.194 0.55-0.512 0.538-0.988-0.012-0.506-0.275-1.644-0.519-2.25-0.238-0.6-0.644-1.263-1.025-1.675l-0.281-0.306 0.369-0.4c0.656-0.719 1.15-1.85 1.381-3.2 0.087-0.544 0.106-0.762 0.056-0.944-0.075-0.288-0.269-0.537-0.5-0.656-0.244-0.125-1.019-0.113-1.688 0.031zM16.475 1.962c-0.063 0.538-0.331 1.406-0.613 1.969-0.269 0.531-0.7 1.038-1.287 1.494-0.219 0.175-0.262 0.244-0.262 0.431 0 0.181 0.044 0.263 0.231 0.419 0.744 0.631 1.069 1.019 1.35 1.606 0.294 0.606 0.519 1.331 0.587 1.925l0.038 0.331-0.4-0.044c-2.063-0.238-3.581-1.313-4.313-3.056-0.269-0.65-0.356-0.688-1.3-0.6-2.588 0.244-4.769 1.594-5.7 3.531-0.381 0.781-0.506 1.363-0.513 2.281 0 0.537 0.031 0.919 0.106 1.219 0.356 1.456 1.4 2.494 2.944 2.919l0.5 0.137 9.75 0.038c9.681 0.044 9.756 0.044 10.469 0.175 1.337 0.256 2.269 0.587 2.556 0.919 0.206 0.238 0.344 0.606 0.306 0.844l-0.019 0.156-2.688 0.031c-2.575 0.031-2.7 0.038-3.050 0.169-0.781 0.294-1.238 0.65-1.788 1.394-1.025 1.387-2.431 2.4-4.406 3.156-0.6 0.231-0.625 0.238-0.938 0.156-0.431-0.113-3.731-0.163-4.431-0.069-1.363 0.188-2.206 1.063-2.369 2.462-0.063 0.512-0.088 0.606-0.181 0.606-0.156 0-1.3-0.381-1.963-0.656-3.188-1.313-5.781-3.825-7.1-6.894-0.938-2.163-1.15-4.238-0.675-6.444 0.444-2.044 1.587-3.894 3.144-5.088 0.65-0.506 0.894-0.656 1.575-1 1.344-0.675 2.8-1.031 4.65-1.138 0.406-0.025 0.769-0.081 0.825-0.119 0.063-0.044 0.2-0.306 0.319-0.581 0.519-1.231 1.412-2.094 2.694-2.606 0.506-0.206 1.338-0.4 1.719-0.406l0.275-0.006-0.044 0.337zM30.431 19.887c-0.038 0.081-0.238 0.431-0.444 0.781l-0.375 0.631-1.606 0.025c-1.587 0.019-1.6 0.019-1.962 0.188-0.225 0.106-0.587 0.381-0.975 0.744-0.344 0.313-0.856 0.744-1.144 0.944-0.706 0.512-2.038 1.156-3.094 1.506-0.863 0.288-1.144 0.35-1.144 0.238 0-0.025-0.069-0.156-0.156-0.288-0.094-0.125-0.156-0.244-0.144-0.25 0.012-0.012 0.231-0.106 0.488-0.212 1.788-0.756 3.219-1.825 4.262-3.175 0.531-0.688 0.863-0.962 1.381-1.15 0.294-0.106 0.544-0.113 2.656-0.119h2.331l-0.075 0.137zM28.688 22.431c0 0.094-1.194 1.206-1.712 1.594-1.419 1.063-3.019 1.85-4.85 2.369-0.8 0.231-2.169 0.525-2.212 0.475-0.012-0.012 0.006-0.194 0.038-0.4l0.063-0.375 1.031-0.331c1.225-0.4 2.706-1.125 3.55-1.731 0.306-0.219 0.825-0.644 1.144-0.944 0.325-0.3 0.688-0.581 0.813-0.625 0.262-0.094 2.137-0.125 2.137-0.031zM17.919 24.656c0.6 0.25 0.975 0.8 0.981 1.438 0.006 0.544-0.188 0.894-0.806 1.425-1.9 1.644-4.294 2.731-6.231 2.837-0.4 0.025-0.675 0.012-0.675-0.019s0.094-0.288 0.213-0.569c0.456-1.075 0.731-2.169 0.856-3.363 0.106-1.012 0.306-1.394 0.887-1.688l0.319-0.156h2.113c1.756 0 2.156 0.019 2.344 0.094z"></path>
<path d="M21.625 18.206c-0.337 0.169-0.381 0.619-0.081 0.856 0.125 0.1 0.256 0.125 0.606 0.125 0.456-0.006 0.587-0.056 0.712-0.294 0.119-0.219 0.087-0.394-0.106-0.587-0.163-0.163-0.225-0.181-0.581-0.181-0.219 0-0.462 0.038-0.55 0.081z"></path>
</symbol>
</defs>
</svg>
